<?xml version="1.0" encoding="UTF-8"?>
<svg id="Layer_1" data-name="Layer 1" xmlns="http://www.w3.org/2000/svg" width="455" height="455" xmlns:xlink="http://www.w3.org/1999/xlink" viewBox="0 0 455 455">
  <defs>
    <clipPath id="clippath">
      <rect width="455" height="455" rx="100.60165" ry="100.60165" fill="none"/>
    </clipPath>
    <linearGradient id="linear-gradient" x1="230.8938" y1="245.77956" x2="264.85668" y2="231.36317" gradientUnits="userSpaceOnUse">
      <stop offset="0" stop-color="#231f20"/>
      <stop offset=".34916" stop-color="#231f20"/>
      <stop offset=".77366" stop-color="#5c5b5e"/>
      <stop offset="1" stop-color="#7d7e81"/>
    </linearGradient>
  </defs>
  <g clip-path="url(#clippath)">
    <g>
      <polyline points="521.52102 544.73552 521.52102 -56.21537 -79.42987 -56.21537 -79.42987 544.73552" fill="#f16974"/>
      <path d="M450.19592,195.00338l71.3251,234.67446-65.11129,114.05768-255.78683-93.73527-23.07784-25.05717c-.05841.00977-.11737.01953-.16455.00049-.09967-.11377-.21143-.21533-.32019-.32031-2.03259-1.96118-3.99121-3.14844-6.08374-5.44727-8.8999-9.77686-16.20544-24.96875-21.2829-37.18018-12.83228-30.86133-18.37799-68.63794-17.15399-102.05981.52075-14.21924,2.88324-27.41846,2.26782-41.97632-.87231-20.63232-9.78003-33.78223-16.90356-52.29688-8.60254-22.35889-17.37628-50.8042-13.10736-74.79956,3.11377-17.50269,17.77863-51.41919,33.42114-60.76099,13.55658-8.09595,31.16168-3.75732,45.09253,1.21436,25.17664,8.98535,37.10822,22.60889,65.69086,9.99609,20.24451-8.93359,50.5921-25.72363,70.86719-8.38794,1.3866,1.18579,2.13782,2.20386,3.20203,3.20435l127.1256,138.87427Z" fill="#1e1e1e" opacity=".1"/>
      <path d="M298.21313,405.43622l-.64039.32043c.24224-.41226.62243-.28944.64039-.32043Z" fill="#f6c5cf"/>
      <path d="M299.17372,403.19321c.24483-.43744.55765-.81011.64039-.96129l-.64039.96129Z" fill="#f6c5cf"/>
      <path d="M450.1959,196.00338v158.39478c0,53.2666-43.33496,96.60205-96.60156,96.60205h-152.97144l257.17813,98.28632,68.86957-122.34241-76.47469-230.94074Z" fill="#1e1e1e" opacity=".1"/>
      <path d="M450.1959,196.00338v158.39478c0,53.2666-43.33496,96.60205-96.60156,96.60205h-152.97144l257.17813,98.28632,68.86957-122.34241-76.47469-230.94074Z" fill="#1e1e1e" opacity=".1"/>
    </g>
    <rect x="3.1959" y="4.00021" width="447" height="447" rx="96.60205" ry="96.60205" transform="translate(454.19611 .80431) rotate(90)" fill="none" opacity=".46" stroke="#e8e8e8" stroke-miterlimit="10"/>
    <g opacity=".19">
      <path d="M353.59409.00007C409.15488.00007,454.19589,45.04108,454.19589,100.60163v253.79688c0,55.56055-45.04102,100.60156-100.60181,100.60156H99.79746c-55.56079,0-100.60156-45.04102-100.60156-100.60156V100.60163C-.80411,45.04108,44.23667.00007,99.79746.00007h253.79663M353.59409-.99993H99.79746C43.77426-.99993-1.80411,44.57819-1.80411,100.60163v253.79688c0,56.02344,45.57837,101.60156,101.60156,101.60156h253.79663c56.02344,0,101.60181-45.57812,101.60181-101.60156V100.60163c0-56.02344-45.57837-101.60156-101.60181-101.60156h0Z" fill="#504e4d"/>
    </g>
    <polygon points="238.79187 79.02334 214.83244 65.03331 219.70492 55.67551 243.18318 56.15377 238.79187 79.02334" fill="#f16974"/>
    <rect x="155.79187" y="68.70768" width="161.3913" height="114.79392" fill="#f16974"/>
  </g>
  <g>
    <path d="M337.37827,184.11853c8.60254-22.35889,17.37622-50.8042,13.10742-74.7998-3.11377-17.50244-17.77881-51.41895-33.42114-60.76074-13.55664-8.09619-31.16187-3.75732-45.09253,1.21436-12.3099,4.39323-21.50559,9.85282-30.97513,12.85373-2.10869.66825-3.57053,2.5846-3.57053,4.79664v10.06462c0,3.34612,3.17871,5.7919,6.40942,4.92068,7.24014-1.95243,13.76856-4.92965,20.16626-7.85198.64307-.29346,1.31348-.58838,1.96533-.8833l.09521-.05273c1.16406-.52881,2.34814-1.05615,3.53955-1.58057-.01465.00635-.02832.0127-.04248.01904,1.68066-.73975,3.38379-1.47168,5.14258-2.1748.10303-.04053.20557-.08154.30859-.12207.79199-.31396,1.60645-.61279,2.41797-.91406,5.15153-1.86822,10.50767-3.27255,15.79495-3.44484,1.63834-.05339,2.32172,2.07806.95554,2.9839l-.04492.02979-1.88867,1.25c-3.1665,2.09766-6.04395,4.37354-8.66895,6.82764h-.00049c-12.20703,11.41064-18.66895,26.86865-20.20264,48.29248-1.44482,19.43457,1.12256,36.45117-35.87354,36.45117s-34.42871-17.0166-35.87354-36.45117c-1.53369-21.42383-7.99561-36.88184-20.20264-48.29248h-.00049c-2.625-2.4541-5.50244-4.72998-8.66895-6.82764l-1.88867-1.25-.04517-.02979c-1.36893-.90275-.68812-3.03723.95081-2.98406,5.28906.1716,10.64685,1.57621,15.79992,3.44499.81152.30127,1.62598.6001,2.41797.91406.10303.04053.20557.08154.30859.12207,1.75879.70312,3.46191,1.43506,5.14258,2.1748-.01416-.00635-.02783-.0127-.04248-.01904,1.19141.52441,2.37549,1.05176,3.53955,1.58057l.09521.05273c.65186.29492,1.32227.58984,1.96533.8833,6.39732,2.92233,12.92565,5.89955,20.16577,7.85198,3.23071.87122,6.40943-1.57456,6.40943-4.92068v-10.06469c0-2.212-1.4618-4.12832-3.57045-4.79656-9.46932-3.00091-18.66482-8.4605-30.97472-12.85373-13.93091-4.97168-31.53589-9.31055-45.09253-1.21436-15.64258,9.3418-30.30737,43.2583-33.42114,60.76074-4.2688,23.99561,4.50488,52.44092,13.10742,74.7998,7.12354,18.51465,16.03125,31.66455,16.90356,52.29688.61523,14.55762-1.74707,27.75684-2.26782,41.97607-1.22412,33.42188,4.32153,71.19824,17.15381,102.06006,5.07739,12.21143,12.38306,27.40283,21.28296,37.18018,2.09253,2.29883,4.57422,4.83838,7.17505,6.08789,2.91772,1.37256,5.65259,2.10156,7.20459-1.60205,2.2356-5.33447-.67065-16.37354-1.39551-22.31543-2.64404-21.67334-1.1311-41.20068,2.29468-62.65967,5.07275-31.77295,16.85498-61.23438,30.4624-90.09375,2.7876-5.7002,6.71143-9.25732,11.06274-9.25732,4.40137,0,8.36572,3.63867,11.15869,9.4541,13.56836,28.79639,25.30859,58.1958,30.36963,89.89697,3.42603,21.45898,4.93872,40.98633,2.29468,62.65967-.72461,5.94189-3.63086,16.98096-1.39526,22.31543,1.552,3.70361,4.28687,2.97461,7.20435,1.60205,2.60107-1.24951,5.08252-3.78906,7.17505-6.08789,8.90015-9.77734,16.20557-24.96875,21.28296-37.18018,12.83228-30.86182,18.37793-68.63818,17.15405-102.06006-.52075-14.21924-2.8833-27.41846-2.26782-41.97607.87231-20.63232,9.78003-33.78223,16.90356-52.29688Z" fill="#fdfcfc"/>
    <path d="M337.37818,184.2043c8.60254-22.35889,17.37622-50.8042,13.10742-74.79956-2.85132-16.02759-15.39014-45.80603-29.49463-57.88696-2.04425,10.49646-9.60944,15.09198-24.65295,25.0578-15.9483,10.56525-25.65216,26.83362-25.65216,59.07214,0,26.79742-7.20654,41.83002-43.34888,41.83002-28.85767,0-45.21924,16.65814-52.57318,45.15405-7.74585,32.22925-19.10455,98.44214-10.60962,152.25488,2.39551,16.7218,6.96985,33.47144,13.71521,48.91895,2.91772,1.37231,5.65259,2.10132,7.20459-1.60205,2.2356-5.33447-.67065-16.37378-1.39551-22.31543-2.64398-21.67358-1.13116-41.20093,2.2948-62.65991,5.13635-32.17212,17.15137-61.97443,30.97559-91.18073,2.7464-5.11157,6.45892-8.25592,10.54944-8.25592,4.10358,0,7.82678,3.16412,10.57581,8.30469,13.81445,29.19073,25.81909,58.97772,30.95258,91.13196,3.42603,21.45898,4.93884,40.98633,2.2948,62.65991-.72479,5.94165-3.6311,16.98096-1.39545,22.31543,1.55194,3.70337,4.2868,2.97437,7.20453,1.60205,2.60089-1.24951,5.08246-3.78931,7.17499-6.08813,8.90002-9.7771,16.20544-24.96875,21.28296-37.18018,12.83215-30.86157,18.37793-68.63794,17.15393-102.05981-.52075-14.21924-2.8833-27.41846-2.26782-41.97632.87231-20.63232,9.78003-33.78223,16.90356-52.29688Z" fill="#e4e7ef"/>
    <path d="M283.21754,278.99306c-8.66327-29.28021-23.80176-63.1864-48.74078-82.34125-.02184-.01518-.0437-.03029-.06558-.04533-2.92236-2.00925-6.90637.20628-6.9065,3.75273l-.00136,36.65759c.00061,0,.0011.00012.00171.00012v.79657c4.10248.00177,7.82471,3.16589,10.573,8.30554,13.81427,29.19037,25.8186,58.97699,30.95203,91.13104,3.42596,21.45892,4.93878,40.98627,2.2948,62.65973-.72485,5.94183-3.6311,16.98102-1.39551,22.31555,1.552,3.70343,4.28687,2.97424,7.20453,1.60199,6.74542-15.44751,11.31976-32.19708,13.71527-48.91888,4.73627-33.06213,1.77295-64.13037-7.63159-95.91541Z" fill="#fdfcfc"/>
    <path d="M234.47676,196.6518h0c-2.95007-2.03472-6.97194.07696-6.97208,3.66067l-.00136,36.70432c.00061,0,.0011.00012.00171.00012v.77917l.02808.01874c2.16308.08932,3.78432.87937,5.00004,1.65454l49.17312,34.59101c-8.87158-28.07959-23.67914-59.32031-47.22949-77.40857Z" fill="url(#linear-gradient)" opacity=".05"/>
  </g>
  <g opacity=".03">
    <path d="M193.78574-22.52435c11.74716,6.04583,21.79343,16.96432,35.10927,16.15066,5.0628-.57866,9.25351-2.55979,13.82896-5.22587,5.51953-3.20116,11.06616-7.42381,17.5127-10.92479l.521.46777c-2.26538,2.6084-4.53662,5.21973-6.91748,7.74365-13.81726,14.74143-28.82052,21.23515-46.01857,7.09739-5.43854-4.35507-10.02432-9.60177-14.55685-14.84155-.00002.00002.52098-.46727.52098-.46727h0Z"/>
  </g>
  <path d="M336.92735,186.11837c8.60254-22.35889,17.37622-50.8042,13.10742-74.79956-3.11377-17.50256-17.77869-51.41919-33.42114-60.76086-13.55664-8.09607-31.16174-3.75745-45.09253,1.21423-17.94427,6.40417-29.26392,15.10254-44.47192,15.10254s-26.52765-8.69836-44.47192-15.10254c-13.93079-4.97168-31.53589-9.3103-45.09247-1.21423-15.64252,9.34167-30.30737,43.2583-33.4212,60.76086-4.26886,23.99536,4.50488,52.44067,13.10742,74.79956,7.12354,18.51465,16.03125,31.66467,16.9035,52.297.61548,14.55774-1.74701,27.75696-2.26776,41.9762-1.224,33.42188,4.32172,71.19836,17.15393,102.05994,5.07745,12.2113,12.383,27.40308,21.28296,37.18005,2.09253,2.29883,4.5741,4.83875,7.17493,6.08813,2.91772,1.37231,5.65259,2.10144,7.20459-1.60205,2.2356-5.33447-.67065-16.37366-1.39551-22.31543-2.64398-21.67346-1.13116-41.20081,2.2948-62.65979,5.07263-31.77313,16.85486-61.2345,30.4624-90.09351,2.78748-5.70032,6.7113-9.25732,11.06262-9.25732,4.40137,0,8.36584,3.63824,11.15881,9.45398,13.5683,28.79614,25.30847,58.19586,30.36957,89.89685,3.42603,21.45898,4.93884,40.98633,2.2948,62.65979-.72479,5.94177-3.6311,16.98096-1.39545,22.31543,1.55194,3.70349,4.2868,2.97437,7.20453,1.60205,2.60089-1.24939,5.08246-3.78931,7.17499-6.08813,8.90002-9.77698,16.20544-24.96875,21.28296-37.18005,12.83215-30.86157,18.37793-68.63806,17.15393-102.05994-.52075-14.21924-2.8833-27.41846-2.26782-41.9762.87231-20.63232,9.78003-33.78235,16.90356-52.297Z" fill="none"/>
  <rect x="3.1959" y="4.00021" width="447" height="447" rx="96.60205" ry="96.60205" transform="translate(454.19611 .80431) rotate(90)" fill="none" opacity=".29" stroke="#e8e8e8" stroke-miterlimit="10" stroke-width="4"/>
  <ellipse cx="227.5" cy="115.18099" rx="35.8726" ry="26.01626" fill="#f16974"/>
</svg>