<?xml version="1.0" encoding="UTF-8"?>
<svg id="Layer_1" data-name="Layer 1" xmlns="http://www.w3.org/2000/svg" width="455" height="455" xmlns:xlink="http://www.w3.org/1999/xlink" viewBox="0 0 455 455">
  <defs>
    <clipPath id="clippath">
      <rect width="455" height="455" rx="100.60165" ry="100.60165" fill="none"/>
    </clipPath>
    <linearGradient id="linear-gradient" x1="230.44296" y1="247.77956" x2="264.40584" y2="233.36317" gradientUnits="userSpaceOnUse">
      <stop offset="0" stop-color="#231f20"/>
      <stop offset=".34916" stop-color="#231f20"/>
      <stop offset=".77366" stop-color="#5c5b5e"/>
      <stop offset="1" stop-color="#7d7e81"/>
    </linearGradient>
  </defs>
  <g clip-path="url(#clippath)">
    <g>
      <polyline points="521.52102 544.73552 521.52102 -56.21537 -79.42987 -56.21537 -79.42987 544.73552" fill="#f38390"/>
      <path d="M450.19592,196.00338l71.3251,234.67446-65.11129,114.05768-255.78683-93.73527-23.07784-25.05717c-.05841.00977-.11737.01953-.16455.00049-.09967-.11377-.21143-.21533-.32019-.32031-2.03259-1.96118-3.99121-3.14844-6.08374-5.44727-8.8999-9.77686-16.20544-24.96875-21.2829-37.18018-12.83228-30.86133-18.37799-68.63794-17.15399-102.05981.52075-14.21924,2.88324-27.41846,2.26782-41.97632-.87231-20.63232-9.78003-33.78223-16.90356-52.29688-8.60254-22.35889-17.37628-50.8042-13.10736-74.79956,3.11377-17.50269,17.77863-51.41919,33.42114-60.76099,13.55658-8.09595,31.16168-3.75732,45.09253,1.21436,25.17664,8.98535,37.10822,22.60889,65.69086,9.99609,20.24451-8.93359,50.5921-25.72363,70.86719-8.38794,1.3866,1.18579,2.13782,2.20386,3.20203,3.20435l127.1256,138.87427Z" fill="#1e1e1e" opacity=".1"/>
      <path d="M298.21313,405.43622l-.64039.32043c.24224-.41226.62243-.28944.64039-.32043Z" fill="#f6c5cf"/>
      <path d="M299.17372,403.19321c.24483-.43744.55765-.81011.64039-.96129l-.64039.96129Z" fill="#f6c5cf"/>
      <path d="M450.1959,196.00338v158.39478c0,53.2666-43.33496,96.60205-96.60156,96.60205h-152.97144l257.17813,98.28632,68.86957-122.34241-76.47469-230.94074Z" fill="#1e1e1e" opacity=".1"/>
    </g>
    <rect x="3.1959" y="4.00021" width="447" height="447" rx="96.60156" ry="96.60156" transform="translate(454.19611 .80431) rotate(90)" fill="none" opacity=".46" stroke="#e8e8e8" stroke-miterlimit="10"/>
    <g opacity=".19">
      <path d="M353.59421-.00018C409.155-.00018,454.19577,45.04084,454.19577,100.60187v253.79639c0,55.56104-45.04077,100.60156-100.60156,100.60156H99.79758c-55.56079,0-100.60181-45.04053-100.60181-100.60156V100.60187C-.80423,45.04084,44.23679-.00018,99.79758-.00018h253.79663M353.59421-1.00018H99.79758C43.77414-1.00018-1.80423,44.57843-1.80423,100.60187v253.79639c0,56.02344,45.57837,101.60156,101.60181,101.60156h253.79663c56.02319,0,101.60156-45.57812,101.60156-101.60156V100.60187c0-56.02344-45.57837-101.60205-101.60156-101.60205h0Z" fill="#504e4d"/>
    </g>
  </g>
  <g>
    <path d="M336.92735,186.11837c8.60254-22.35889,17.37622-50.8042,13.10742-74.79956-3.11377-17.50256-17.77869-51.41919-33.42114-60.76086-13.55664-8.09607-31.16174-3.75745-45.09253,1.21423-17.94427,6.40417-29.26392,15.10254-44.47192,15.10254s-26.52765-8.69836-44.47192-15.10254c-13.93079-4.97168-31.53589-9.3103-45.09247-1.21423-15.64252,9.34167-30.30737,43.2583-33.4212,60.76086-4.26886,23.99536,4.50488,52.44067,13.10742,74.79956,7.12354,18.51465,16.03125,31.66467,16.9035,52.297.61548,14.55774-1.74701,27.75696-2.26776,41.9762-1.224,33.42188,4.32172,71.19836,17.15393,102.05994,5.07745,12.2113,12.383,27.40308,21.28296,37.18005,2.09253,2.29883,4.5741,4.83875,7.17493,6.08813,2.91772,1.37231,5.65259,2.10144,7.20459-1.60205,2.2356-5.33447-.67065-16.37366-1.39551-22.31543-2.64398-21.67346-1.13116-41.20081,2.2948-62.65979,5.07263-31.77313,16.85486-61.2345,30.4624-90.09351,2.78748-5.70032,6.7113-9.25732,11.06262-9.25732,4.40137,0,8.36584,3.63824,11.15881,9.45398,13.5683,28.79614,25.30847,58.19586,30.36957,89.89685,3.42603,21.45898,4.93884,40.98633,2.2948,62.65979-.72479,5.94177-3.6311,16.98096-1.39545,22.31543,1.55194,3.70349,4.2868,2.97437,7.20453,1.60205,2.60089-1.24939,5.08246-3.78931,7.17499-6.08813,8.90002-9.77698,16.20544-24.96875,21.28296-37.18005,12.83215-30.86157,18.37793-68.63806,17.15393-102.05994-.52075-14.21924-2.8833-27.41846-2.26782-41.9762.87231-20.63232,9.78003-33.78235,16.90356-52.297Z" fill="#fdfcfc"/>
    <path d="M336.92735,186.2043c8.60254-22.35889,17.37622-50.8042,13.10742-74.79956-2.85132-16.02759-15.39014-45.80603-29.49463-57.88696-2.04425,10.49646-9.60944,15.09198-24.65295,25.0578-15.9483,10.56525-25.65216,26.83362-25.65216,59.07214,0,26.79742-7.20654,41.83002-43.34888,41.83002-28.85767,0-45.21924,16.65814-52.57318,45.15405-7.74585,32.22925-19.10455,98.44214-10.60962,152.25488,2.39551,16.7218,6.96985,33.47144,13.71521,48.91895,2.91772,1.37231,5.65259,2.10132,7.20459-1.60205,2.2356-5.33447-.67065-16.37378-1.39551-22.31543-2.64398-21.67358-1.13116-41.20093,2.2948-62.65991,5.13635-32.17212,17.15137-61.97443,30.97559-91.18073,2.7464-5.11157,6.45892-8.25592,10.54944-8.25592,4.10358,0,7.82678,3.16412,10.57581,8.30469,13.81445,29.19073,25.81909,58.97772,30.95258,91.13196,3.42603,21.45898,4.93884,40.98633,2.2948,62.65991-.72479,5.94165-3.6311,16.98096-1.39545,22.31543,1.55194,3.70337,4.2868,2.97437,7.20453,1.60205,2.60089-1.24951,5.08246-3.78931,7.17499-6.08813,8.90002-9.7771,16.20544-24.96875,21.28296-37.18018,12.83215-30.86157,18.37793-68.63794,17.15393-102.05981-.52075-14.21924-2.8833-27.41846-2.26782-41.97632.87231-20.63232,9.78003-33.78223,16.90356-52.29688Z" fill="#e4e7ef"/>
    <path d="M191.03342,78.36319c-1.76562-.01074-3.53857.01855-5.30737.0166-9.09277-.01025-19.22559.26416-24.98413,8.49268-12.3418,17.63574-10.2041,50.00391-8.35522,70.70703.58276,6.5249,1.95557,13.10742,2.53955,19.521.02905.3208.26562,1.02783-.24731.9624-6.22046-17.95947-13.86475-36.1748-17.38281-54.94482-2.6687-14.23828-5.22681-42.35889,9.38623-50.88867,13.29712-7.76172,28.99829-1.09131,41.68262,4.65283.84326.38184,2.05103.81836,2.66846,1.48096Z" fill="#f38390" opacity=".31"/>
    <path d="M282.7667,280.99306c-8.66327-29.28021-23.80176-63.1864-48.74078-82.34125-.02184-.01518-.0437-.03029-.06558-.04533-2.92236-2.00925-6.90637.20628-6.9065,3.75273l-.00136,36.65759c.00061,0,.0011.00012.00171.00012v.79657c4.10248.00177,7.82471,3.16589,10.573,8.30554,13.81427,29.19037,25.8186,58.97699,30.95203,91.13104,3.42596,21.45892,4.93878,40.98627,2.2948,62.65973-.72485,5.94183-3.6311,16.98102-1.39551,22.31555,1.552,3.70343,4.28687,2.97424,7.20453,1.60199,6.74542-15.44751,11.31976-32.19708,13.71527-48.91888,4.73627-33.06213,1.77295-64.13037-7.63159-95.91541Z" fill="#fdfcfc"/>
    <path d="M234.02592,198.6518h0c-2.95007-2.03472-6.97194.07696-6.97208,3.66067l-.00136,36.70432c.00061,0,.0011.00012.00171.00012v.77917l.02808.01874c2.16308.08932,3.78432.87937,5.00004,1.65454l49.17312,34.59101c-8.87158-28.07959-23.67914-59.32031-47.22949-77.40857Z" fill="url(#linear-gradient)" opacity=".05"/>
  </g>
  <path d="M254.11646,82.03312c-5.55452,2.25402-11.40382,4.17623-17.88822,5.15282v-28.19531h-17.30371v28.33643c-6.53761-.87159-12.42717-2.71305-18.00355-4.9209-3.40407-1.34777-7.21677.71154-7.8853,4.31115-.6197,3.33673-.76717,6.83897-.36409,10.43869,1.81373,16.19767,14.84342,29.1823,31.05078,30.90737,21.12935,2.24896,38.9839-14.25239,38.9839-34.9243,0-2.35576-.23216-4.65737-.67467-6.88323-.71186-3.58079-4.53221-5.5955-7.91514-4.22271Z" fill="#f38390"/>
  <path d="M254.11646,82.03312c-5.55452,2.25402-11.40382,4.17623-17.88822,5.15282h0l-17.30371.10052v.04059c-6.53761-.87159-12.42717-2.71305-18.00355-4.9209-3.40407-1.34777-7.21677.71154-7.8853,4.31115-.6197,3.33673-.76717,6.83897-.36409,10.43869,1.81373,16.19767,14.84342,29.1823,31.05078,30.90737,21.12935,2.24896,38.9839-14.25239,38.9839-34.9243,0-2.35576-.23216-4.65737-.67467-6.88323-.71186-3.58079-4.53221-5.5955-7.91514-4.22271Z" fill="#1e1e1e" opacity=".1"/>
  <path d="M227.00887,67.42558l-8.60813-1.37785v21.27932c-6.53761-.87159-12.42717-2.71305-18.00355-4.9209-3.40407-1.34777-7.21677.71154-7.8853,4.31115-.6197,3.33673-.76717,6.83897-.36409,10.43869,1.81373,16.19767,14.84342,29.1823,31.05078,30.90737,21.12935,2.24896,38.9839-14.25239,38.9839-34.9243,0-2.35576-.23216-4.65737-.67467-6.88323-.71186-3.58079-4.53221-5.5955-7.91514-4.22271-5.55452,2.25402-11.40382,4.17623-17.88822,5.15282v-21.34732l-8.69558,1.36957" fill="#1e1e1e" opacity=".1"/>
  <g opacity=".27">
    <path d="M236.53561,65.79043c-5.60489,2.23787-12.12639,2.34477-17.79248.25889,0-.0001.01514-.07383.01514-.07383,5.83108,1.27986,12.09306.9202,17.77734-.18506h0Z" fill="#fff"/>
  </g>
</svg>