<?xml version="1.0" encoding="UTF-8"?>
<svg id="Layer_1" data-name="Layer 1" xmlns="http://www.w3.org/2000/svg" width="455.03421" height="455.00014" xmlns:xlink="http://www.w3.org/1999/xlink" viewBox="0 0 455.03421 455.00014">
  <defs>
    <clipPath id="clippath">
      <rect x=".03421" y=".00014" width="455" height="455" rx="100.60165" ry="100.60165" fill="none"/>
    </clipPath>
    <linearGradient id="linear-gradient" x1="230.47718" y1="247.7797" x2="264.44005" y2="233.36331" gradientUnits="userSpaceOnUse">
      <stop offset="0" stop-color="#231f20"/>
      <stop offset=".34916" stop-color="#231f20"/>
      <stop offset=".77366" stop-color="#5c5b5e"/>
      <stop offset="1" stop-color="#7d7e81"/>
    </linearGradient>
    <clipPath id="clippath-1">
      <rect x="13.07769" y="-510.26073" width="455" height="455" rx="100.60165" ry="100.60165" fill="none"/>
    </clipPath>
  </defs>
  <path d="M244.90189,116.33438l-57.7-61.64783,36.65566,109.62901c.73113,3.19978,5.27858,3.22897,6.05073.03885l14.99361-48.02003Z" fill="#1e1e1e" opacity=".1"/>
  <g clip-path="url(#clippath)">
    <g>
      <polyline points="521.55523 544.73566 521.55523 -56.21523 -79.39565 -56.21523 -79.39565 544.73566" fill="#8e8e8e"/>
      <path d="M450.23014,195.00352l71.3251,234.67446-65.11129,114.05768-255.78683-93.73527-23.07784-25.05717c-.05841.00977-.11737.01953-.16455.00049-.09967-.11377-.21143-.21533-.32019-.32031-2.03259-1.96118-3.99121-3.14844-6.08374-5.44727-8.8999-9.77686-16.20544-24.96875-21.2829-37.18018-12.83228-30.86133-18.37799-68.63794-17.15399-102.05981.52075-14.21924,2.88324-27.41846,2.26782-41.97632-.87231-20.63232-9.78003-33.78223-16.90356-52.29688-8.60254-22.35889-17.37628-50.8042-13.10736-74.79956,3.11377-17.50269,17.77863-51.41919,33.42114-60.76099,13.55658-8.09595,31.16168-3.75732,45.09253,1.21436,25.17664,8.98535,37.10822,22.60889,65.69086,9.99609,20.24451-8.93359,50.5921-25.72363,70.86719-8.38794,1.3866,1.18579,2.13782,2.20386,3.20203,3.20435l127.1256,138.87427Z" fill="#1e1e1e" opacity=".1"/>
      <path d="M298.24734,405.43635l-.64039.32043c.24224-.41226.62243-.28944.64039-.32043Z" fill="#f6c5cf"/>
      <path d="M299.20793,403.19335c.24483-.43744.55765-.81011.64039-.96129l-.64039.96129Z" fill="#f6c5cf"/>
      <path d="M450.23011,196.00352v158.39478c0,53.2666-43.33496,96.60205-96.60156,96.60205h-152.97144l257.17813,98.28632,68.86957-122.34241-76.47469-230.94074Z" fill="#1e1e1e" opacity=".1"/>
      <path d="M450.23011,196.00352v158.39478c0,53.2666-43.33496,96.60205-96.60156,96.60205h-152.97144l255.78682,93.73531,65.11129-114.05768-71.32512-234.67445Z" fill="#1e1e1e" opacity=".1"/>
      <path d="M450.23011,196.00352v158.39478c0,53.2666-43.33496,96.60205-96.60156,96.60205h-152.97144l255.78682,93.73531,65.11129-114.05768-71.32512-234.67445Z" fill="#1e1e1e" opacity=".1"/>
    </g>
    <rect x="3.23011" y="4.00034" width="447" height="447" rx="96.60156" ry="96.60156" transform="translate(454.23046 .77023) rotate(90)" fill="none" opacity=".46" stroke="#e8e8e8" stroke-miterlimit="10"/>
    <g opacity=".19">
      <path d="M353.6283.00022C409.18909.00022,454.23011,45.04099,454.23011,100.60178v253.79663c0,55.56079-45.04102,100.60181-100.60181,100.60181H99.83167c-55.56079,0-100.60156-45.04102-100.60156-100.60181V100.60178C-.76989,45.04099,44.27088.00022,99.83167.00022h253.79663M353.6283-.99978H99.83167C43.80848-.99978-1.76989,44.57859-1.76989,100.60178v253.79663c0,56.02344,45.57837,101.60181,101.60156,101.60181h253.79663c56.02344,0,101.60181-45.57837,101.60181-101.60181V100.60178c0-56.02319-45.57837-101.60156-101.60181-101.60156h0Z" fill="#504e4d"/>
    </g>
  </g>
  <g>
    <polyline points="185.97826 56.32782 268.70429 145.51816 314.31932 104.21499 254.36957 24.24087 149.58696 43.41478 177.04348 52.41478" fill="#8e8e8e"/>
    <path d="M336.95814,185.11863c8.60254-22.35889,17.37622-50.8042,13.10742-74.7998-3.11377-17.50244-17.77881-51.41895-33.42114-60.76074-8.03235-4.79702-18.89022-4.52647-29.30314-2.47528-11.92081,2.34822-21.79854,10.66647-26.3467,21.93298l-30.06488,82.45426c-1.30913,3.59034-6.38692,3.59034-7.69605,0l-30.06488-82.45426c-4.54816-11.26651-14.42588-19.58476-26.3467-21.93298-10.41292-2.05119-21.2708-2.32173-29.30314,2.47528-15.64233,9.3418-30.30737,43.2583-33.42114,60.76074-4.2688,23.99561,4.50488,52.44092,13.10742,74.7998,7.12354,18.51465,16.03125,31.66455,16.90356,52.29688.61548,14.55762-1.74707,27.75684-2.26782,41.97607-1.22412,33.42188,4.32178,71.19849,17.15381,102.06006,5.07764,12.21143,12.38306,27.40308,21.2832,37.18018,2.09229,2.29883,4.57397,4.83862,7.1748,6.08789,2.91772,1.37256,5.65259,2.10156,7.20459-1.60205,2.2356-5.33447-.67065-16.37354-1.39551-22.31543-2.64404-21.67334-1.1311-41.20068,2.29492-62.65967,5.07251-31.77319,16.85474-61.23438,30.4624-90.09351,2.78735-5.70044,6.71118-9.25732,11.0625-9.25732s8.27515,3.55688,11.0625,9.25732c13.60767,28.85913,25.38989,58.32031,30.4624,90.09351,3.42603,21.45898,4.93896,40.98633,2.29492,62.65967-.72485,5.94189-3.6311,16.98096-1.39551,22.31543,1.552,3.70361,4.28687,2.97461,7.20459,1.60205,2.60083-1.24927,5.08252-3.78906,7.1748-6.08789,8.90015-9.7771,16.20557-24.96875,21.2832-37.18018,12.83203-30.86157,18.37793-68.63818,17.15381-102.06006-.52075-14.21924-2.8833-27.41846-2.26782-41.97607.87231-20.63232,9.78003-33.78223,16.90356-52.29688Z" fill="#fdfcfc"/>
    <path d="M336.96156,186.20444c8.60254-22.35889,17.37622-50.8042,13.10742-74.79956-2.85132-16.02759-15.39014-45.80603-29.49463-57.88696-2.04425,10.49646-9.60944,15.09198-24.65295,25.0578-15.9483,10.56525-25.65216,26.83362-25.65216,59.07214,0,26.79742-7.20654,41.83002-43.34888,41.83002-28.85767,0-45.21924,16.65814-52.57318,45.15405-7.74585,32.22925-19.10455,98.44214-10.60962,152.25488,2.39551,16.7218,6.96985,33.47144,13.71521,48.91895,2.91772,1.37231,5.65259,2.10132,7.20459-1.60205,2.2356-5.33447-.67065-16.37378-1.39551-22.31543-2.64398-21.67358-1.13116-41.20093,2.2948-62.65991,5.13635-32.17212,17.15137-61.97443,30.97559-91.18073,2.7464-5.11157,6.45892-8.25592,10.54944-8.25592,4.10358,0,7.82678,3.16412,10.57581,8.30469,13.81445,29.19073,25.81909,58.97772,30.95258,91.13196,3.42603,21.45898,4.93884,40.98633,2.2948,62.65991-.72479,5.94165-3.6311,16.98096-1.39545,22.31543,1.55194,3.70337,4.2868,2.97437,7.20453,1.60205,2.60089-1.24951,5.08246-3.78931,7.17499-6.08813,8.90002-9.7771,16.20544-24.96875,21.28296-37.18018,12.83215-30.86157,18.37793-68.63794,17.15393-102.05981-.52075-14.21924-2.8833-27.41846-2.26782-41.97632.87231-20.63232,9.78003-33.78223,16.90356-52.29688Z" fill="#e4e7ef"/>
    <path d="M191.06763,78.36332c-1.76562-.01074-3.53857.01855-5.30737.0166-9.09277-.01025-19.22559.26416-24.98413,8.49268-12.3418,17.63574-10.2041,50.00391-8.35522,70.70703.58276,6.5249,1.95557,13.10742,2.53955,19.521.02905.3208.26562,1.02783-.24731.9624-6.22046-17.95947-13.86475-36.1748-17.38281-54.94482-2.6687-14.23828-5.22681-42.35889,9.38623-50.88867,13.29712-7.76172,28.99829-1.09131,41.68262,4.65283.84326.38184,2.05103.81836,2.66846,1.48096Z" fill="#1e1e1e" opacity=".1"/>
    <path d="M282.80092,280.9932c-8.66327-29.28021-23.80176-63.1864-48.74078-82.34125-.02184-.01518-.0437-.03029-.06558-.04533-2.92236-2.00925-6.90637.20628-6.9065,3.75273l-.00136,36.65759c.00061,0,.0011.00012.00171.00012v.79657c4.10248.00177,7.82471,3.16589,10.573,8.30554,13.81427,29.19037,25.8186,58.97699,30.95203,91.13104,3.42596,21.45892,4.93878,40.98627,2.2948,62.65973-.72485,5.94183-3.6311,16.98102-1.39551,22.31555,1.552,3.70343,4.28687,2.97424,7.20453,1.60199,6.74542-15.44751,11.31976-32.19708,13.71527-48.91888,4.73627-33.06213,1.77295-64.13037-7.63159-95.91541Z" fill="#fdfcfc"/>
    <path d="M234.06013,198.65194h0c-2.95007-2.03472-6.97194.07696-6.97208,3.66067l-.00136,36.70432c.00061,0,.0011.00012.00171.00012v.77917l.02808.01874c2.16308.08932,3.78432.87937,5.00004,1.65454l49.17312,34.59101c-8.87158-28.07959-23.67914-59.32031-47.22949-77.40857Z" fill="url(#linear-gradient)" opacity=".05"/>
  </g>
  <rect x="3.23011" y="4.00034" width="447" height="447" rx="96.60156" ry="96.60156" transform="translate(454.23046 .77023) rotate(90)" fill="none" opacity=".29" stroke="#e8e8e8" stroke-miterlimit="10" stroke-width="3"/>
  <g clip-path="url(#clippath-1)">
    <g>
      <polyline points="534.34334 34.49505 534.34334 -566.45583 -66.60754 -566.45583 -66.60754 34.49505" fill="#fbaf5e"/>
      <path d="M462.75187-315.60518l71.3251,234.67446-65.11129,114.05768L213.17885-60.60831l-23.07784-25.05717c-4.90535-3.65887-.11737.01953-.16455.00049-.09967-.11377-.21143-.21533-.32019-.32031-2.03259-1.96118-3.99121-3.14844-6.08374-5.44727-8.8999-9.77686-16.20544-24.96875-21.2829-37.18018-12.83228-30.86133-18.37799-68.63794-17.15399-102.05981.52075-14.21924,2.88324-27.41846,2.26782-41.97632-.87231-20.63232-9.78003-33.78223-16.90356-52.29688-8.60254-22.35889-17.37628-50.8042-13.10736-74.79956,3.11377-17.50269,17.77863-51.41919,33.42114-60.76099,13.55658-8.09595,31.16168-3.75732,45.09253,1.21436,25.17664,8.98535,37.10822,22.60889,65.69086,9.99609,20.24451-8.93359,50.5921-25.72363,70.86719-8.38794,1.3866,1.18579,2.13782,2.20386,3.20203,3.20435l127.1256,138.87427Z" fill="#1e1e1e" opacity=".1"/>
      <path d="M462.75185-314.60518v158.39478c0,53.2666-43.33496,96.60205-96.60156,96.60205h-152.97144L470.35698,38.67797l68.86957-122.34241-76.47469-230.94074Z" fill="#1e1e1e" opacity=".1"/>
      <path d="M462.75185-314.60518v158.39478c0,53.2666-43.33496,96.60205-96.60156,96.60205h-152.97144L470.35698,38.67797l68.86957-122.34241-76.47469-230.94074Z" fill="#1e1e1e" opacity=".1"/>
    </g>
  </g>
</svg>