<?xml version="1.0" encoding="UTF-8"?>
<svg id="Layer_1" data-name="Layer 1" xmlns="http://www.w3.org/2000/svg" width="454.19581" height="455" xmlns:xlink="http://www.w3.org/1999/xlink" viewBox="0 0 454.19581 455">
  <defs>
    <clipPath id="clippath">
      <rect width="455" height="455" rx="100.60165" ry="100.60165" fill="none"/>
    </clipPath>
  </defs>
  <g clip-path="url(#clippath)">
    <g>
      <polyline points="521.52102 544.73552 521.52102 -56.21537 -79.42987 -56.21537 -79.42987 544.73552" fill="#d3d3d3"/>
      <path d="M298.21313,405.43622l-.64039.32043c.24224-.41226.62243-.28944.64039-.32043Z" fill="#f6c5cf"/>
      <path d="M299.17372,403.19321c.24483-.43744.55765-.81011.64039-.96129l-.64039.96129Z" fill="#f6c5cf"/>
      <path d="M450.1959,322.33015v32.06801c0,53.2666-43.33496,96.60205-96.60156,96.60205h-82.63179l185.44718,93.73531,65.11129-114.05768-71.32512-108.34768Z" fill="#1e1e1e" opacity=".1"/>
      <path d="M622.67707,476.54857l-248.16577-248.16602h0L227.5,80.76586c-70.31006,0-127.30754,76.42398-127.30754,146.73404,0,34.19922,13.48779,65.24585,35.43066,88.11865l-.02124.02112,1.7793,1.7793c.06665.06665-16.29262,11.6282-16.22572,11.69472l262.61244,234.69187,238.90916-87.25699Z" fill="#1e1e1e" opacity=".1"/>
    </g>
    <rect x="3.1959" y="4.00021" width="447" height="447" rx="96.60205" ry="96.60205" transform="translate(454.19611 .80431) rotate(90)" fill="none" opacity=".46" stroke="#e8e8e8" stroke-miterlimit="10"/>
    <g opacity=".19">
      <path d="M353.59408-.0001C409.15487-.0001,454.19588,45.04091,454.19588,100.6017v253.79663c0,55.56079-45.04102,100.60168-100.60181,100.60168H99.79745c-55.56079,0-100.60168-45.04089-100.60168-100.60168V100.6017C-.80424,45.04091,44.23665-.0001,99.79745-.0001h253.79663M353.59408-1.0001H99.79745C43.77413-1.0001-1.80424,44.57827-1.80424,100.6017v253.79663c0,56.02332,45.57837,101.60168,101.60168,101.60168h253.79663c56.02344,0,101.60181-45.57837,101.60181-101.60168V100.6017c0-56.02344-45.57837-101.60181-101.60181-101.60181h0Z" fill="#504e4d"/>
    </g>
  </g>
  <rect x="3.1959" y="4.00021" width="447" height="447" rx="96.60156" ry="96.60156" transform="translate(454.19611 .80431) rotate(90)" fill="none" opacity=".29" stroke="#e8e8e8" stroke-miterlimit="10" stroke-width="4"/>
  <path d="M227.5,100.19236c-70.31007,0-127.30764,56.99757-127.30764,127.30764s56.99757,127.30764,127.30764,127.30764,127.30764-56.99757,127.30764-127.30764" fill="none" stroke="#fff" stroke-miterlimit="10" stroke-width="40"/>
  <line x1="227.5" y1="227.5" x2="227.5" y2="133.80934" fill="none" stroke="#fff" stroke-miterlimit="10" stroke-width="40"/>
  <line x1="260.72068" y1="227.5" x2="321.93807" y2="227.5" fill="none" stroke="#fff" stroke-miterlimit="10" stroke-width="27"/>
</svg>