<?xml version="1.0" encoding="UTF-8"?>
<svg id="Layer_1" data-name="Layer 1" xmlns="http://www.w3.org/2000/svg" width="455" height="455" xmlns:xlink="http://www.w3.org/1999/xlink" viewBox="0 0 455 455">
  <defs>
    <clipPath id="clippath">
      <rect width="455" height="455" rx="100.60165" ry="100.60165" fill="none"/>
    </clipPath>
  </defs>
  <g clip-path="url(#clippath)">
    <g>
      <polyline points="521.52102 544.73552 521.52102 -56.21537 -79.42987 -56.21537 -79.42987 544.73552" fill="#b7b7b7"/>
      <path d="M298.21313,405.43622l-.64039.32043c.24224-.41226.62243-.28944.64039-.32043Z" fill="#f6c5cf"/>
      <path d="M299.17372,403.19321c.24483-.43744.55765-.81011.64039-.96129l-.64039.96129Z" fill="#f6c5cf"/>
      <path d="M450.1959,181.5016v172.89656c0,53.2666-43.33496,96.60205-96.60156,96.60205h-165.74735l257.17813,244.93617,81.64548-268.99226-76.47469-245.44253Z" fill="#1e1e1e" opacity=".1"/>
      <path d="M511.70994,374.97205l41.88037,11.39893-54.83789-99.11328,49.31396-7.61182-154.81543-160.59277-338.02903,17.70371,6.99876,6.48392-5.17391,47.78261,8.98446,3.71922-9.68674-3.15121,57.46214,55.4476c-15.29443-1.11328-28.13916-3.56934-40.42383-6.36279,3.521,3.63721,7.04199,7.2749,10.56299,10.9126h-14.23193v25.66992c-1.27197-.27979-2.54883-.55664-3.80957-.84326.23926.24707.47852.49414.71777.7417l-1.2124-.68945v35.67676l-11.37793,1.88135,170.34521,176.12256,105.2002-36.12646c71.47656-.73828,142.95361-1.47656,214.43066-2.21484l-34.17529-35.30908c13.88477-.14355,27.76904-.28662,41.65381-.43018l-39.77637-41.0957Z" fill="#1e1e1e" opacity=".1"/>
    </g>
    <rect x="3.1959" y="4.00021" width="447" height="447" rx="96.60156" ry="96.60156" transform="translate(454.19611 .80431) rotate(90)" fill="none" opacity=".46" stroke="#e8e8e8" stroke-miterlimit="10"/>
    <g opacity=".19">
      <path d="M353.59422.00008C409.15489.00008,454.19578,45.04085,454.19578,100.60164v253.79663c0,55.56079-45.04089,100.60181-100.60156,100.60181H99.79747c-55.56079,0-100.60168-45.04102-100.60168-100.60181V100.60164C-.80422,45.04085,44.23668.00008,99.79747.00008h253.79675M353.59422-.99992H99.79747C43.77415-.99992-1.80422,44.57845-1.80422,100.60164v253.79663c0,56.02344,45.57837,101.60181,101.60168,101.60181h253.79675c56.02332,0,101.60156-45.57837,101.60156-101.60181V100.60164c0-56.02319-45.57825-101.60156-101.60156-101.60156h0Z" fill="#504e4d"/>
    </g>
    <polygon points="494.85234 283.43685 552.91143 279.26888 398.096 118.6761 60.00529 136.38039 66.53396 142.42895 60.74265 190.31434 69.87627 190.36556 60.00518 190.56917 394.23593 520.57678 603.66435 666.97444 457.52213 521.28632 639.50504 508.22236 500.9251 279.85872 494.85234 283.43685" fill="#1e1e1e" opacity=".04"/>
  </g>
  <rect x="3.1959" y="4.00021" width="447" height="447" rx="96.60156" ry="96.60156" transform="translate(454.19611 .80431) rotate(90)" fill="none" opacity=".29" stroke="#e8e8e8" stroke-miterlimit="10" stroke-width="4"/>
  <g>
    <path d="M66.16248,278.89611c1.67232,15.19064,19.03635,13.122,27.40844,3.65816-4.24515,17.23777,16.64126,34.36999,31.01001,22.75473,4.39671-3.55416,5.06098-9.00102,9.18465-11.77812,8.60183,31.30583,32.62589,37.58249,46.6177,5.44967,3.65331,8.53065,10.45444,20.31825,20.59092,21.62152,14.95308,1.92254,21.7137-19.36116,23.28258-19.78717,3.28158-.89107,7.76789,12.85004,11.43309,14.6555,15.75469,13.26533,28.20103-1.80561,34.22855-16.4898,13.55387,32.17757,38.29904,25.72772,46.61775-5.44972l10.01299,12.77801c13.26675,9.30967,32.37844-5.00376,30.17264-20.0918,4.78597-.33204,6.64399,5.36836,10.91412,6.57216,13.24223,3.73314,17.93587-13.87458,19.22688-13.85393,7.32088,8.10099,12.19054,22.92168,10.00794,33.74112-1.16227,5.7615-12.87007,11.14495-17.30642,15.56969-13.71261,13.67673-17.92645,23.46976-38.05358,31.38179-43.01043,16.90751-80.00983-7.25219-121.02394-5.89203-36.38108,1.20651-68.2675,20.97834-107.29862,6.97662-23.94242-8.58891-38.1311-31.86154-58.90087-45.25098-1.91544-6.48298-1.22215-13.32062.35053-19.78082.69725-2.86411,7.98234-20.13057,11.52466-16.7846Z" fill="#e0ced9" stroke="#fff" stroke-miterlimit="10"/>
    <path d="M173.7147,258.6472c2.37553.9034,3.92771,3.20511,3.92771,5.74662l.00005,24.5554c0,6.78057-11.77258,26.88677-20.7387,26.1099-8.47084-.73396-19.46073-20.60477-19.46073-27.93714v-27.61732c0-3.41684,2.7699-6.18674,6.18674-6.18674l18.00832,2.97595c.82618.13653,1.66422.19643,2.50097.22884,3.55921.13785,6.28218.87202,9.57563,2.1245Z" fill="#fafafb"/>
    <path d="M308.58175,253.31792c2.3621,0,4.27696,1.91486,4.27696,4.27696v29.5271c0,7.37438-10.96905,27.14596-19.46981,27.94443-8.0783.75879-20.72962-19.49157-20.72962-26.11718l.00002-25.92424c0-2.80565,2.23398-5.02456,5.03528-5.18076.54206-.03023,1.10099-.13987,1.71743-.44636,1.55012-.77071,6.22669-1.90226,9.35093-2.59312,1.17466-.25975,2.35918-.42382,3.55999-.49693l16.2588-.98991Z" fill="#fafafb"/>
    <path d="M216.65028,258.79966c2.67643,0,4.8461,2.16967,4.8461,4.8461v28.95796c0,6.07283-11.8571,22.72127-19.18643,22.71658-7.77318-.00497-19.18575-18.95267-19.18575-24.54383v-27.13072c0-2.67643,2.16967-4.8461,4.8461-4.8461h28.67998Z" fill="#fafafb"/>
    <path d="M263.11597,258.79966c2.24315,0,4.06158,1.81843,4.06158,4.06158v27.91524c0,5.59116-11.41257,24.53886-19.18575,24.54383-7.32933.00469-19.18643-16.64376-19.18643-22.71658v-29.74249c0-2.24315,1.81843-4.06158,4.06158-4.06158h30.24903Z" fill="#fafafb"/>
    <path d="M345.36474,247.84075c3.29192.20181,5.86615,2.90904,5.86615,6.20713v38.55584c0,1.56186-5.48256,7.77836-7.44613,8.98485-15.97973,9.81856-24.545-12.28863-25.52162-25.35309-.24613-3.29252-.67401-21.42392.1366-22.23453,1.28782-1.28782,5.79781-2.36129,8.52427-3.19231,2.65392-.80891,4.8482-2.17516,8.79866-2.94622,2.89065-.5642,6.30141-.22648,9.64208-.02167Z" fill="#fafafb"/>
    <path d="M99.07085,254.47014c0-3.51246,2.72494-6.42887,6.23029-6.65218,3.22353-.20535,5.58556.89778,8.37126,1.44149,3.95046.77106,6.2539,1.26737,8.90783,2.07628,2.72641.831,6.11283.40025,9.14581,2.62444,2.68129,1.96628.55051,17.36139.31223,20.4475-1.00986,13.07913-8.92247,37.38023-25.52128,27.18091-1.96359-1.20655-7.44614-7.42296-7.44614-8.98486v-38.13358Z" fill="#fafafb"/>
    <path d="M380.46684,279.813c-3.28814,15.26698-22.45367,5.21535-23.86586-9.02489-.30391-3.06451-.73243-22.1702.09989-22.96095.40285-.38272,7.10056-1.71849,10.39277-2.76839,1.95679-.62402,13.3732-9.14067,13.3732-1.79071,0,9.39397,1.67463,28.76954,0,36.54493Z" fill="#fafafb"/>
    <path d="M69.83491,243.26806c2.06215-7.19998,9.13676,2.62767,12.68157,3.75818,3.29244,1.05002,8.44409.81003,10.88704,2.03811,4.12445,2.07336-.78733,31.72774-10.16359,35.02254-4.90055,1.72204-13.40502-.71383-13.40502-6.10114,0-7.65469-1.54677-29.31717,0-34.71769Z" fill="#fafafb"/>
  </g>
  <g>
    <path d="M211.47379,209.87743h-35.11476c-3.92699,0-7.11045-3.18346-7.11045-7.11045v-32.17535c0-3.95583,10.00685-20.88448,13.43765-24.01981,8.10976-7.41133,17.64972-5.25177,24.91742,2.11013,2.4495,2.48125,10.98059,17.49421,10.98059,20.08244v34.0026c0,3.92699-3.18346,7.11045-7.11045,7.11045Z" fill="#fafafb"/>
    <path d="M225.89322,168.76438c2.41282-14.56308,20.78493-36.00407,35.89801-22.19257,3.4308,3.13533,13.43765,20.06399,13.43765,24.01981v32.49314c0,3.75149-3.04118,6.79267-6.79267,6.79267h-35.38281c-3.74114,0-6.81275-3.02328-6.79044-6.76436.0676-11.33315-2.01034-24.44654-.36975-34.34869Z" fill="#fafafb"/>
    <path d="M288.21146,204.39569c-4.1426,0-7.50083-3.35824-7.50083-7.50083v-20.82149c0-11.81725,14.60854-37.98139,29.75457-33.45058,5.34207,1.59804,15.92659,19.5029,15.92659,24.31434v27.21685c0,5.63294-4.60877,10.2417-10.2417,10.2417h-27.93863Z" fill="#fafafb"/>
    <path d="M118.08567,166.93713c.84035-5.37322,9.53126-21.37972,14.65504-23.71472,18.07948-8.23916,29.74724,23.0523,30.99604,36.53692.34516,3.7271,1.22739,24.63636-2.71078,24.63636l-36.23714.00006c-3.64023,0-6.66651-2.97683-6.75845-6.6159-.24884-9.84907-1.19961-22.81887.05529-30.84271Z" fill="#fafafb"/>
    <path d="M106.86392,198.91396l-18.57132.00004c-5.53007.00001-10.15279-4.25395-10.54205-9.7703-1.2298-17.42802,4.12055-47.08738,17.4971-47.06457,7.87835.01344,17.35628,16.99351,17.35628,23.03075v28.06406c0,3.17012-2.56989,5.74001-5.74001,5.74002Z" fill="#fafafb"/>
    <path d="M360.40881,198.91395h-21.98779c-3.61608,0-6.54749-2.93141-6.54749-6.54749v-27.25658c0-.77296,4.82877-12.77427,5.74919-14.35046,17.64825-30.22217,34.04625,22.58246,29.12986,43.24487-.69145,2.90601-3.35662,4.90965-6.34376,4.90965Z" fill="#fafafb"/>
    <path d="M55.95928,152.31916c.47927-2.71715,5.7695-12.34281,9.10311-10.03942.75828.52394,8.13783,14.77165,8.47874,16.36808.62742,2.93804.81138,15.41447.77635,19.156-.03373,3.60249.97481,12.9058-1.79636,14.82842-2.75871,1.91397-16.56184,1.36288-16.56184-1.9409,0-10.64933-1.65906-28.96649,0-38.37218Z" fill="#fafafb"/>
    <path d="M372.06871,193.43931c-1.14651-1.21526-2.14375-29.34198-1.39897-33.38528.56455-3.06488,2.02223-5.14719,3.17655-7.78104,2.93831-6.70444,7.48387-14.95506,12.42925-5.02007,2.61223,5.24783,3.72472,37.88168,1.98724,43.18314-1.41002,4.30229-15.59934,3.63365-16.19407,3.00325Z" fill="#fafafb"/>
    <path d="M393.32229,118.93494c-20.76953-8.28418-34.9585-22.68311-58.90088-27.99707-39.03125-8.6626-70.91748,13.57031-107.29834,14.31641-41.01416.8418-78.01367-24.10596-121.02441-13.64551-20.12695,4.89551-24.34082,10.95459-38.05322,19.4165-4.43652,2.73779-16.14404,6.06836-17.30664,9.6333-.2251.68994-.35742,1.41211-.4375,2.14746h.09717c.07568.59131.15234,1.18311.22803,1.77539,2.64502,20.75,9.67334,8.93457,16.27979,13.06055,2.23975,1.39844,7.97412,12.2583,9.17676,15.57715,4.29639-3.10205,5.36523-9.19629,9.99219-12.81201,13.67529-10.68701,24.97705,3.54736,28.37793,16.47559,9.08008-10.9248,13.14746-24.92236,31.14648-19.27295,8.75586,2.74805,17.70605,20.76416,19.104,21.09912,3.78711.90771,11.98535-20.97021,27.41309-22.03467,19.57227-1.3501,25.59814,21.13379,29.22852,22.0376,3.46045.86084,12.23584-19.98828,25.71094-21.84131,21.35352-2.93652,26.30322,20.79883,30.95508,21.8252,3.38281.74658,12.1792-19.95068,23.82031-21.80469,16.41455-2.61426,19.70605,8.7002,27.30957,19.98779,8.76172-23.36719,26.57617-28.56104,38.36377-3.62744,1.11523-.0127,7.4585-13.98096,10.06641-15.60938,4.2915-2.68018,10.82812,2.28809,12.68262.92139,2.05176-1.51123,3.71777-9.50391,4.00977-15.75732h.14746c-.1377-1.30273-.48096-2.59766-1.08887-3.87109ZM110.3174,122.80603c.94238-.04688,1.88867-.05029,2.83203,0h-2.83203Z" fill="#e0ced9" stroke="#fff" stroke-miterlimit="10"/>
  </g>
</svg>