<?xml version="1.0" encoding="UTF-8"?>
<svg id="Layer_1" data-name="Layer 1" xmlns="http://www.w3.org/2000/svg" width="455" height="455" xmlns:xlink="http://www.w3.org/1999/xlink" viewBox="0 0 455 455">
  <defs>
    <clipPath id="clippath">
      <rect y="0" width="455" height="455" rx="100.60165" ry="100.60165" fill="none"/>
    </clipPath>
  </defs>
  <g clip-path="url(#clippath)">
    <g>
      <polyline points="519.41232 542.62682 519.41232 -58.32406 -81.53856 -58.32406 -81.53856 542.62682" fill="#bcbcbc"/>
      <path d="M298.21313,405.43622l-.64039.32043c.24224-.41226.62243-.28944.64039-.32043Z" fill="#f6c5cf"/>
      <path d="M299.17372,403.19321c.24483-.43744.55765-.81011.64039-.96129l-.64039.96129Z" fill="#f6c5cf"/>
      <path d="M450.1959,196.00338v158.39478c0,53.2666-43.33496,96.60205-96.60156,96.60205h-152.97144l257.17813,98.28632,68.86957-122.34241-76.47469-230.94074Z" fill="#1e1e1e" opacity=".1"/>
    </g>
    <g opacity=".67">
      <path d="M353.59431,6.00039c52.16345,0,94.60156,42.43799,94.60156,94.60156v253.79639c0,52.16357-42.43811,94.60205-94.60156,94.60205H99.79743c-52.16345,0-94.60156-42.43848-94.60156-94.60205V100.60196C5.19587,48.43838,47.63398,6.00039,99.79743,6.00039h253.79688M353.59431,4.00039H99.79743C46.53083,4.00039,3.19587,47.33584,3.19587,100.60196v253.79639c0,53.2666,43.33496,96.60205,96.60156,96.60205h253.79688c53.2666,0,96.60156-43.33545,96.60156-96.60205V100.60196c0-53.26611-43.33496-96.60156-96.60156-96.60156h0Z" fill="#e8e8e8"/>
    </g>
    <g opacity=".19">
      <path d="M353.59419-.00009C409.15492-.00009,454.19581,45.04092,454.19581,100.60147v253.79688c0,55.56055-45.04089,100.60156-100.60162,100.60156H99.79743c-55.56067,0-100.60156-45.04102-100.60156-100.60156V100.60147C-.80413,45.04092,44.23677-.00009,99.79743-.00009h253.79675M353.59419-1.00009H99.79743C43.77412-1.00009-1.80413,44.57803-1.80413,100.60147v253.79688c0,56.02344,45.57825,101.60156,101.60156,101.60156h253.79675c56.02332,0,101.60162-45.57812,101.60162-101.60156V100.60147c0-56.02344-45.57831-101.60156-101.60162-101.60156h0Z" fill="#504e4d"/>
    </g>
    <g>
      <polygon points="807.5675 536.11141 411.72849 131.13139 66.49249 131.13139 462.33157 536.11141 807.5675 536.11141" fill="#1e1e1e" opacity=".1"/>
      <polygon points="339.93808 465.85421 468.17337 596.37535 391.13656 463.28975 127.39821 193.4805 72.33436 193.4805 137.21055 259.51327 78.43681 259.51327 143.58326 326.16528 78.09471 259.51327 68.03491 295.91138 428.31064 664.10309 282.93711 468.74048 473.88588 664.10309 339.93808 465.85421" fill="#1e1e1e" opacity=".1"/>
    </g>
    <rect y="0" width="455" height="455" rx="100.60165" ry="100.60165" fill="none"/>
    <g>
      <path d="M79.8423,259.48695c1.67232,15.19064,19.03635,13.122,27.40844,3.65816-4.24515,17.23777,16.64126,34.36999,31.01001,22.75473,4.39671-3.55416,5.06098-9.00102,9.18465-11.77812,8.60183,31.30583,32.62589,37.58249,46.6177,5.44967,3.65331,8.53065,10.45444,20.31825,20.59092,21.62152,14.95308,1.92254,21.7137-19.36116,23.28258-19.78717,3.28158-.89107,7.76789,12.85004,11.43309,14.6555,15.75469,13.26533,28.20103-1.80561,34.22855-16.4898,13.55387,32.17757,38.29904,25.72772,46.61775-5.44972l10.01299,12.77801c13.26675,9.30967,32.37844-5.00376,30.17264-20.0918,4.78597-.33204,6.64399,5.36836,10.91412,6.57216,13.24223,3.73314,17.93587-13.87458,19.22688-13.85393,7.32088,8.10099,12.19054,22.92168,10.00794,33.74112-1.16227,5.7615-12.87007,11.14495-17.30642,15.56969-13.71261,13.67673-17.92645,23.46976-38.05358,31.38179-43.01043,16.90751-80.00983-7.25219-121.02394-5.89203-36.38108,1.20651-68.2675,20.97834-107.29862,6.97662-23.94242-8.58891-38.1311-31.86154-58.90087-45.25098-1.91544-6.48298-1.22215-13.32062.35053-19.78082.69725-2.86411,7.98234-20.13057,11.52466-16.7846Z" fill="#fafafb"/>
      <path d="M406.84589,140.87876c-1.85468,1.36641-8.39125-3.6018-12.68279-.92159-2.6076,1.62854-8.95096,15.59693-10.0663,15.60955-11.78753-24.93338-29.60183-19.73983-38.36366,3.62742-7.60345-11.2877-10.89506-22.60192-27.3097-19.98768-11.64109,1.85399-20.43751,22.55111-23.82014,21.80468-4.65188-1.02651-9.60163-24.76179-30.95515-21.82522-13.47513,1.85312-22.25063,22.70228-25.71098,21.84109-3.63038-.90351-9.65604-23.38761-29.22845-22.03729-15.42783,1.06438-23.62601,22.9421-27.41323,22.03436-1.39784-.33504-10.34807-18.35091-19.10411-21.09916-17.99857-5.6492-22.06606,8.34835-31.14613,19.27327-3.40118-12.92853-14.70265-27.16286-28.37828-16.47565-4.62682,3.61576-5.69546,9.70994-9.99181,12.81172-1.20273-3.31881-6.93713-14.17833-9.17686-15.5771-6.6065-4.12591-13.63504,9.6895-16.27977-11.0604-.93533-7.33835-2.26183-14.76501,5.37032-18.17242,13.66296-6.0999,15.08266-1.23177,24.17187,5.08262,25.95826,18.03355,39.21296-13.52452,62.74468-16.74337,31.46643-4.30422,50.30735,12.94991,82.14819,10.88696,25.28041-1.63791,40.57591-14.19578,69.3646-11.05828,25.2289,2.74955,44.78344,34.3643,69.8825,16.91469,9.01226-6.26559,11.38581-12.65619,25.24035-4.32115,7.49533,4.50927,4.89718,26.3043.70486,29.39294Z" fill="#fafafb"/>
      <path d="M228.06575,212.19279h-35.11476c-3.92699,0-7.11045-3.18346-7.11045-7.11045v-32.17535c0-3.95583,10.00685-20.88448,13.43765-24.01981,8.10976-7.41133,17.64972-5.25177,24.91742,2.11013,2.4495,2.48125,10.98059,17.49421,10.98059,20.08244v34.0026c0,3.92699-3.18346,7.11045-7.11045,7.11045Z" fill="#fafafb"/>
      <path d="M242.48519,171.07974c2.41282-14.56308,20.78493-36.00407,35.89801-22.19257,3.4308,3.13533,13.43765,20.06399,13.43765,24.01981v32.49314c0,3.75149-3.04118,6.79267-6.79267,6.79267h-35.38281c-3.74114,0-6.81275-3.02328-6.79044-6.76436.0676-11.33315-2.01034-24.44654-.36975-34.34869Z" fill="#fafafb"/>
      <path d="M304.80342,206.71105c-4.1426,0-7.50083-3.35824-7.50083-7.50083v-20.82149c0-11.81725,14.60854-37.98139,29.75457-33.45058,5.34207,1.59804,15.92659,19.5029,15.92659,24.31434v27.21685c0,5.63294-4.60877,10.2417-10.2417,10.2417h-27.93863Z" fill="#fafafb"/>
      <path d="M134.67763,169.25249c.84035-5.37322,9.53126-21.37972,14.65504-23.71472,18.07948-8.23916,29.74724,23.0523,30.99604,36.53692.34516,3.7271,1.22739,24.63636-2.71078,24.63636l-36.23714.00006c-3.64023,0-6.66651-2.97683-6.75845-6.6159-.24884-9.84907-1.19961-22.81887.05529-30.84271Z" fill="#fafafb"/>
      <path d="M187.39452,239.23804c2.37553.9034,3.92771,3.20511,3.92771,5.74662l.00005,24.5554c0,6.78057-11.77258,26.88677-20.7387,26.1099-8.47084-.73396-19.46073-20.60477-19.46073-27.93714v-27.61732c0-3.41684,2.7699-6.18674,6.18674-6.18674l18.00832,2.97595c.82618.13653,1.66422.19643,2.50097.22884,3.55921.13785,6.28218.87202,9.57563,2.1245Z" fill="#fafafb"/>
      <path d="M322.26157,233.90876c2.3621,0,4.27696,1.91486,4.27696,4.27696v29.5271c0,7.37438-10.96905,27.14596-19.46981,27.94443-8.0783.75879-20.72962-19.49157-20.72962-26.11718l.00002-25.92424c0-2.80565,2.23398-5.02456,5.03528-5.18076.54206-.03023,1.10099-.13987,1.71743-.44636,1.55012-.77071,6.22669-1.90226,9.35093-2.59312,1.17466-.25975,2.35918-.42382,3.55999-.49693l16.2588-.98991Z" fill="#fafafb"/>
      <path d="M230.3301,239.3905c2.67643,0,4.8461,2.16967,4.8461,4.8461v28.95796c0,6.07283-11.8571,22.72127-19.18643,22.71658-7.77318-.00497-19.18575-18.95267-19.18575-24.54383v-27.13072c0-2.67643,2.16967-4.8461,4.8461-4.8461h28.67998Z" fill="#fafafb"/>
      <path d="M276.79579,239.3905c2.24315,0,4.06158,1.81843,4.06158,4.06158v27.91524c0,5.59116-11.41257,24.53886-19.18575,24.54383-7.32933.00469-19.18643-16.64376-19.18643-22.71658v-29.74249c0-2.24315,1.81843-4.06158,4.06158-4.06158h30.24903Z" fill="#fafafb"/>
      <path d="M123.45589,201.22932l-18.57132.00004c-5.53007.00001-10.15279-4.25395-10.54205-9.7703-1.2298-17.42802,4.12055-47.08738,17.4971-47.06457,7.87835.01344,17.35628,16.99351,17.35628,23.03075v28.06406c0,3.17012-2.56989,5.74001-5.74001,5.74002Z" fill="#fafafb"/>
      <path d="M377.00077,201.22931h-21.98779c-3.61608,0-6.54749-2.93141-6.54749-6.54749v-27.25658c0-.77296,4.82877-12.77427,5.74919-14.35046,17.64825-30.22217,34.04625,22.58246,29.12986,43.24487-.69145,2.90601-3.35662,4.90965-6.34376,4.90965Z" fill="#fafafb"/>
      <path d="M359.04456,228.43159c3.29192.20181,5.86615,2.90904,5.86615,6.20713v38.55584c0,1.56186-5.48256,7.77836-7.44613,8.98485-15.97973,9.81856-24.545-12.28863-25.52162-25.35309-.24613-3.29252-.67401-21.42392.1366-22.23453,1.28782-1.28782,5.79781-2.36129,8.52427-3.19231,2.65392-.80891,4.8482-2.17516,8.79866-2.94622,2.89065-.5642,6.30141-.22648,9.64208-.02167Z" fill="#fafafb"/>
      <path d="M112.75067,235.06098c0-3.51246,2.72494-6.42887,6.23029-6.65218,3.22353-.20535,5.58556.89778,8.37126,1.44149,3.95046.77106,6.2539,1.26737,8.90783,2.07628,2.72641.831,6.11283.40025,9.14581,2.62444,2.68129,1.96628.55051,17.36139.31223,20.4475-1.00986,13.07913-8.92247,37.38023-25.52128,27.18091-1.96359-1.20655-7.44614-7.42296-7.44614-8.98486v-38.13358Z" fill="#fafafb"/>
      <path d="M394.14666,260.40383c-3.28814,15.26698-22.45367,5.21535-23.86586-9.02489-.30391-3.06451-.73243-22.1702.09989-22.96095.40285-.38272,7.10056-1.71849,10.39277-2.76839,1.95679-.62402,13.3732-9.14067,13.3732-1.79071,0,9.39397,1.67463,28.76954,0,36.54493Z" fill="#fafafb"/>
      <path d="M83.51473,223.8589c2.06215-7.19998,9.13676,2.62767,12.68157,3.75818,3.29244,1.05002,8.44409.81003,10.88704,2.03811,4.12445,2.07336-.78733,31.72774-10.16359,35.02254-4.90055,1.72204-13.40502-.71383-13.40502-6.10114,0-7.65469-1.54677-29.31717,0-34.71769Z" fill="#fafafb"/>
      <path d="M72.55125,154.63452c.47927-2.71715,5.7695-12.34281,9.10311-10.03942.75828.52394,8.13783,14.77165,8.47874,16.36808.62742,2.93804.81138,15.41447.77635,19.156-.03373,3.60249.97481,12.9058-1.79636,14.82842-2.75871,1.91397-16.56184,1.36288-16.56184-1.9409,0-10.64933-1.65906-28.96649,0-38.37218Z" fill="#fafafb"/>
      <path d="M388.66067,195.75466c-1.14651-1.21526-2.14375-29.34198-1.39897-33.38528.56455-3.06488,2.02223-5.14719,3.17655-7.78104,2.93831-6.70444,7.48387-14.95506,12.42925-5.02007,2.61223,5.24783,3.72472,37.88168,1.98724,43.18314-1.41002,4.30229-15.59934,3.63365-16.19407,3.00325Z" fill="#fafafb"/>
    </g>
  </g>
  <g opacity=".27">
    <path d="M236.53547,65.79043c-5.60466,2.23794-12.12648,2.3447-17.79236.25889,0-.0001.01502-.07383.01502-.07383,5.83098,1.27984,12.09346.92022,17.77734-.18506h0Z" fill="#fff"/>
  </g>
  <g opacity=".08">
    <path d="M353.59419,1.99991c54.36914,0,98.60162,44.23242,98.60162,98.60156v253.79688c0,54.36914-44.23248,98.60156-98.60162,98.60156H99.79743c-54.36902,0-98.60156-44.23242-98.60156-98.60156V100.60147C1.19587,46.23233,45.42842,1.99991,99.79743,1.99991h253.79675M353.59419-.00009H99.79743C44.23677-.00009-.80413,45.04092-.80413,100.60147v253.79688c0,55.56055,45.04089,100.60156,100.60156,100.60156h253.79675c55.56073,0,100.60162-45.04102,100.60162-100.60156V100.60147C454.19581,45.04092,409.15492-.00009,353.59419-.00009h0Z" fill="#101010"/>
  </g>
</svg>