<?xml version="1.0" encoding="UTF-8"?>
<svg id="Layer_1" data-name="Layer 1" xmlns="http://www.w3.org/2000/svg" width="454.19581" height="455" xmlns:xlink="http://www.w3.org/1999/xlink" viewBox="0 0 454.19581 455">
  <defs>
    <clipPath id="clippath">
      <rect width="455" height="455" rx="100.60165" ry="100.60165" fill="none"/>
    </clipPath>
  </defs>
  <g clip-path="url(#clippath)">
    <g>
      <polyline points="521.52102 544.73552 521.52102 -56.21537 -79.42987 -56.21537 -79.42987 544.73552" fill="#e8e8e8"/>
      <path d="M566.44393,352.26594l-248.16577-248.16602-40.7689-7.8558-50.35111-14.43478c-70.31006,0-127.30754,76.42398-127.30754,146.73404,0,34.19922,30.94009,42.39316,52.88296,65.26596l7.64525,4.43478,13.56522,15.65217c46.81775-.6531-53.19733,16.19434-81.22944,79.91731l262.61244,234.69187,211.11689-276.23954Z" fill="#1e1e1e" opacity=".05"/>
      <path d="M298.21313,405.43622l-.64039.32043c.24224-.41226.62243-.28944.64039-.32043Z" fill="#f6c5cf"/>
      <path d="M299.17372,403.19321c.24483-.43744.55765-.81011.64039-.96129l-.64039.96129Z" fill="#f6c5cf"/>
      <path d="M450.1959,215.82544v138.57272c0,53.2666-43.33496,96.60205-96.60156,96.60205h-205.93958l180.22473,161.45692,212.37969-307.02216-90.06328-89.60953Z" fill="#1e1e1e" opacity=".1"/>
    </g>
    <rect x="3.1959" y="4.00021" width="447" height="447" rx="96.60156" ry="96.60156" transform="translate(454.19611 .80431) rotate(90)" fill="none" opacity=".78" stroke="#e8e8e8" stroke-miterlimit="10"/>
    <g opacity=".1">
      <path d="M353.68299,2.00004c54.32007,0,98.51294,44.19263,98.51294,98.5127v253.97461c0,54.32007-44.19287,98.5127-98.51294,98.5127H100.51282c-54.32007,0-98.51294-44.19263-98.51294-98.5127V100.51273C1.99988,46.19266,46.19275,2.00004,100.51282,2.00004h253.17017M353.68299.00004H100.51282C45.0011.00004-.00012,45.00101-.00012,100.51273v253.97461C-.00012,409.99894,45.0011,455.00004,100.51282,455.00004h253.17017c55.51172,0,100.51294-45.0011,100.51294-100.5127V100.51273C454.19593,45.00101,409.1947.00004,353.68299.00004h0Z" fill="#504e4d"/>
    </g>
    <ellipse cx="222.03674" cy="204.18096" rx="80.86957" ry="85.71534" fill="#939393" opacity="0"/>
  </g>
  <rect x="3.1959" y="4.00021" width="447" height="447" rx="96.60156" ry="96.60156" transform="translate(454.19611 .80431) rotate(90)" fill="none" opacity=".29" stroke="#f9f9fa" stroke-miterlimit="10" stroke-width="4"/>
  <path d="M226.73938,66.52081c-74.01987,0-134.02478,60.00491-134.02478,134.02478,0,49.36593,26.69443,92.49103,66.43135,115.74678h-66.43135v76.41661h76.41655v-71.12282c17.45258,8.32134,36.98505,12.98421,57.60823,12.98421,74.01987,0,134.02478-60.00491,134.02478-134.02478s-60.00491-134.02478-134.02478-134.02478ZM226.73938,276.71252c-42.06582,0-76.16693-34.10112-76.16693-76.16693s34.10112-76.16693,76.16693-76.16693,76.16693,34.10106,76.16693,76.16693-34.10106,76.16693-76.16693,76.16693Z" fill="#a898c9"/>
  <g opacity=".43">
    <path d="M226.73938,67.52079c35.53223,0,68.9375,13.83704,94.06274,38.96204,25.125,25.12512,38.96191,58.53052,38.96191,94.06274s-13.83691,68.93774-38.96191,94.06274c-25.12524,25.125-58.53052,38.96204-94.06274,38.96204-20.00635,0-39.24365-4.33582-57.17773-12.88684l-1.43042-.68213v71.70764h-74.41675v-74.41663h69.11987l-3.18335-1.86304c-19.70215-11.53052-36.21704-28.03345-47.75952-47.72473-11.89136-20.28687-18.177-43.51013-18.177-67.15906,0-35.53223,13.83716-68.93762,38.96216-94.06274,25.125-25.125,58.53052-38.96204,94.06274-38.96204M226.73938,277.71256c42.55005,0,77.16699-34.61694,77.16699-77.16699s-34.61694-77.16687-77.16699-77.16687-77.16699,34.61694-77.16699,77.16687,34.61694,77.16699,77.16699,77.16699M226.73938,66.52079c-74.01978,0-134.0249,60.00488-134.0249,134.02478,0,49.36597,26.69458,92.49109,66.4314,115.74683h-66.4314v76.41663h76.41675v-71.12292c17.45239,8.32141,36.98486,12.98425,57.60815,12.98425,74.01978,0,134.02466-60.00488,134.02466-134.02478s-60.00488-134.02478-134.02466-134.02478h0ZM226.73938,276.71256c-42.06592,0-76.16699-34.1012-76.16699-76.16699s34.10107-76.16687,76.16699-76.16687,76.16699,34.10107,76.16699,76.16687-34.10107,76.16699-76.16699,76.16699h0Z" fill="#fff"/>
  </g>
</svg>