<?xml version="1.0" encoding="UTF-8"?>
<svg id="Layer_1" data-name="Layer 1" xmlns="http://www.w3.org/2000/svg" width="454.30435" height="455" xmlns:xlink="http://www.w3.org/1999/xlink" viewBox="0 0 454.30435 455">
  <defs>
    <clipPath id="clippath">
      <rect x="-.69565" y="-525.60257" width="455" height="455" rx="100.60165" ry="100.60165" fill="none"/>
    </clipPath>
    <clipPath id="clippath-1">
      <rect width="455" height="455" rx="100.60165" ry="100.60165" fill="none"/>
    </clipPath>
  </defs>
  <g clip-path="url(#clippath)">
    <g>
      <polyline points="520.82537 9.13295 520.82537 -591.81794 -80.12552 -591.81794 -80.12552 9.13295" fill="#9180bc"/>
      <path d="M560.68318-149.4442l-241.94787-268.90564-41.92171-18.00861-50.35111-14.43478c-70.31006,0-127.30754,76.42398-127.30754,146.73404,0,34.19922,30.94009,42.39316,52.88296,65.26596l7.64525,4.43478,13.56522,15.65217c46.81775-.6531-53.19733,16.19434-74.22944,80.91731L463.94405,75.4521l96.73913-224.8963Z" fill="#1e1e1e" opacity=".09"/>
      <path d="M449.50025-296.77713v125.57272c0,53.2666-43.33496,96.60205-96.60156,96.60205h-188.93958l180.22473,161.45692,195.37969-294.02216-90.06328-89.60953Z" fill="#1e1e1e" opacity=".1"/>
    </g>
  </g>
  <g clip-path="url(#clippath-1)">
    <g>
      <polyline points="521.52102 534.73552 521.52102 -66.21537 -79.42987 -66.21537 -79.42987 534.73552" fill="#eaeaea" opacity=".77"/>
      <path d="M548.35259,387.77104L321.27816,108.96949l-40.7689-13.8558-50.35111-14.43478c-70.31006,0-127.30754,76.42398-127.30754,146.73404,0,34.19922,30.94009,42.39316,52.88296,65.26596l7.64525,4.43478,7.2174,2.99058c46.81775-.6531-46.84951,28.85593-69.88162,87.5789l307.62076,209.76893,140.01724-209.68106Z" fill="#232323" opacity=".07"/>
      <path d="M298.21313,405.43622l-.64039.32043c.24224-.41226.62243-.28944.64039-.32043Z" fill="#f6c5cf"/>
      <path d="M299.17372,403.19321c.24483-.43744.55765-.81011.64039-.96129l-.64039.96129Z" fill="#f6c5cf"/>
      <path d="M450.1959,231.5106v122.88756c0,53.2666-43.33496,96.60205-96.60156,96.60205h-189.26437l180.22473,161.45692,195.70448-291.337-90.06328-89.60953Z" fill="#1e1e1e" opacity=".1"/>
      <path d="M353.59424,4.00025c53.2666,0,96.60156,43.33545,96.60156,96.60156v253.79639c0,53.2666-43.33496,96.60205-96.60156,96.60205H99.79736c-53.2666,0-96.60156-43.33545-96.60156-96.60205V100.60181C3.1958,47.3357,46.53076,4.00025,99.79736,4.00025h253.79688M353.59424.00025H99.79736C44.32544.00025-.8042,45.12989-.8042,100.60181v253.79639c0,55.47217,45.12964,100.60205,100.60156,100.60205h253.79688c55.47192,0,100.60156-45.12988,100.60156-100.60205V100.60181C454.1958,45.12989,409.06616.00025,353.59424.00025h0Z" fill="#cccccb"/>
      <path d="M450.1959,237.96392v125.88756c0,53.2666-47.33496,96.60205-100.60156,94.60205l-177.9928-.78261,42.80322,175.74371,337.35861-294.337-101.56747-101.11372Z" fill="#1e1e1e" opacity=".1"/>
      <path d="M450.1959,237.96392v119.21685c0,53.2666-47.33496,96.60205-100.60156,94.60205l-178.1479-.78261,63.69969,207.4416,348.31513-287.66629-133.26535-132.8116Z" fill="#1e1e1e" opacity=".1"/>
    </g>
    <rect x="3.1959" y="4.00021" width="447" height="447" rx="96.60156" ry="96.60156" transform="translate(454.19611 .80431) rotate(90)" fill="none" opacity=".46" stroke="#e8e8e8" stroke-miterlimit="10"/>
    <g opacity=".19">
      <path d="M353.59409,0C409.15488,0,454.19589,45.04078,454.19589,100.60157v253.79675c0,55.56079-45.04102,100.60168-100.60181,100.60168H99.79746c-55.56079,0-100.60156-45.04089-100.60156-100.60168V100.60157C-.80411,45.04078,44.23667,0,99.79746,0h253.79663M353.59409-1H99.79746C43.77426-1-1.80411,44.57837-1.80411,100.60157v253.79675c0,56.02332,45.57837,101.60168,101.60156,101.60168h253.79663c56.02344,0,101.60181-45.57837,101.60181-101.60168V100.60157c0-56.02319-45.57837-101.60156-101.60181-101.60156h0Z" fill="#504e4d"/>
    </g>
  </g>
  <path d="M229.04372,71.67211c-71.68196,0-129.79163,58.10967-129.79163,129.79163,0,47.80671,25.85129,89.56971,64.33312,112.09093h-64.33312v74.003h74.00295v-68.87641c16.90134,8.05851,35.81688,12.57411,55.78868,12.57411,71.68196,0,129.79163-58.10967,129.79163-129.79163s-58.10967-129.79163-129.79163-129.79163ZM229.04372,275.22495c-40.73717,0-73.76121-33.02404-73.76121-73.76121s33.02404-73.76121,73.76121-73.76121,73.76121,33.02398,73.76121,73.76121-33.02398,73.76121-73.76121,73.76121Z" fill="#7869af"/>
</svg>