<?xml version="1.0" encoding="UTF-8"?>
<svg id="Layer_1" data-name="Layer 1" xmlns="http://www.w3.org/2000/svg" width="454.37285" height="219" xmlns:xlink="http://www.w3.org/1999/xlink" viewBox="0 0 454.37285 219">
  <defs>
    <clipPath id="clippath">
      <rect x="-554.78261" width="455" height="455" rx="100.60165" ry="100.60165" fill="none"/>
    </clipPath>
    <clipPath id="clippath-1">
      <path d="M100.60165,249h253.7967c55.52356,0,100.60165,45.07809,100.60165,100.60165v52.71432c0,29.07711-23.60692,52.68403-52.68403,52.68403H52.68403C23.60692,455,0,431.39308,0,402.31597v-52.71432C0,294.07809,45.07809,249,100.60165,249Z" transform="translate(455 704) rotate(180)" fill="none"/>
    </clipPath>
    <clipPath id="clippath-2">
      <path d="M100.60165,0h253.7967c55.52356,0,100.60165,45.07809,100.60165,100.60165v59.92627c0,32.27162-26.20046,58.47208-58.47208,58.47208H58.39582c-32.22953,0-58.39582-26.16629-58.39582-58.39582v-60.00253C0,45.07809,45.07809,0,100.60165,0Z" fill="none"/>
    </clipPath>
  </defs>
  <g clip-path="url(#clippath)">
    <polygon points="-59.93026 283.43685 -1.87118 279.26888 -156.68661 118.6761 -494.77732 136.38039 -488.24865 142.42895 -494.03996 190.31434 -484.90634 190.36556 -494.77743 190.56917 -160.54668 520.57678 48.88174 666.97444 -97.26048 521.28632 84.72243 508.22236 -53.85751 279.85872 -59.93026 283.43685" fill="#1e1e1e" opacity=".04"/>
  </g>
  <g clip-path="url(#clippath-1)">
    <g>
      <polyline points="-66.52102 -89.73552 -66.52102 511.21537 534.42987 511.21537 534.42987 -89.73552" fill="#bcbcbc"/>
      <path d="M156.78687,49.56378l.64039-.32043c-.24224.41226-.62243.28944-.64039.32043Z" fill="#f6c5cf"/>
      <path d="M155.82628,51.80679c-.24483.43744-.55765.81011-.64039.96129l.64039-.96129Z" fill="#f6c5cf"/>
    </g>
    <g opacity=".19">
      <path d="M355.20256-.00012C410.76329-.00012,455.80418,45.04089,455.80418,100.60144v253.79688c0,55.56104-45.04089,100.60156-100.60162,100.60156H101.40586c-55.56079,0-100.60168-45.04053-100.60168-100.60156V100.60144C.80418,45.04089,45.84507-.00012,101.40586-.00012h253.79669M355.20256-1.00012H101.40586C45.38255-1.00012-.19582,44.578-.19582,100.60144v253.79688c0,56.02344,45.57837,101.60156,101.60168,101.60156h253.79669c56.02332,0,101.60162-45.57812,101.60162-101.60156V100.60144c0-56.02344-45.57831-101.60156-101.60162-101.60156h0Z" fill="#504e4d"/>
    </g>
    <polygon points="573.29445 312.49127 631.35353 308.3233 476.5381 147.73052 138.44739 165.43481 144.97607 171.48337 139.18475 219.36876 148.31838 219.41998 138.44728 219.62359 472.67804 549.6312 682.10646 696.02886 535.96424 550.34074 717.94715 537.27677 579.3672 308.91314 573.29445 312.49127" fill="#1e1e1e" opacity=".1"/>
  </g>
  <g clip-path="url(#clippath-2)">
    <g>
      <polyline points="521.87971 534.60508 521.87971 -66.3458 -79.07117 -56.3458 -79.07117 544.60508" fill="#bcbcbc"/>
      <polygon points="495.21297 237.81384 553.27205 233.64587 398.45662 73.0531 60.36592 90.75738 66.89459 96.80595 61.10328 144.69134 70.2369 144.74255 60.3658 144.94617 152.38924 232.74646 215.69002 233.01648 229.13387 246.91443 411.11678 233.85046 501.28573 234.23572 495.21297 237.81384" fill="#1e1e1e" opacity=".1"/>
      <path d="M553.27205,229.64587l-102.27197-106.08838v36.90479c0,30.12061-24.41699,54.5376-54.53711,54.5376H137.98153l14.40771,13.74658,63.30078.27002,13.44385,13.89795,181.98291-13.06396,90.16895.38525-6.07275,3.57812,58.05908-4.16797Z" fill="#1e1e1e" opacity=".2"/>
    </g>
    <g opacity=".19">
      <path d="M353.59432-.00012C409.15487-.00012,454.19588,45.04089,454.19588,113.60144v253.79688c0,42.56104-45.04102,87.60156-100.60156,87.60156H99.79745c-55.56055,0-100.60156-45.04053-100.60156-87.60156V113.60144C-.80412,45.04089,44.2369-.00012,99.79745-.00012h253.79688M353.59432-1.00012H99.79745c-27.75,0-53.2749,11.15625-71.87256,31.41406-9.37891,10.21631-16.70068,22.38525-21.76172,36.16846C.87655,80.97986-1.80412,96.79919-1.80412,113.60144v253.79688c0,21.20557,10.85889,43.25732,29.79199,60.50049,19.89746,18.12109,45.3999,28.10107,71.80957,28.10107h253.79688c26.40967,0,51.91211-9.97998,71.80957-28.10107,18.93311-17.24316,29.79199-39.29492,29.79199-60.50049V113.60144c0-16.80225-2.68066-32.62158-7.96729-47.01904-5.06104-13.7832-12.38281-25.95215-21.76172-36.16846-18.59766-20.25781-44.12256-31.41406-71.87256-31.41406h0Z" fill="#504e4d"/>
    </g>
    <g opacity=".46">
      <path d="M354.39803,5.99988c52.16357,0,94.60205,42.43848,94.60205,94.60205v59.86084c0,28.96924-23.56787,52.53711-52.53711,52.53711H58.65682c-29.03516,0-52.65674-23.62158-52.65674-52.65674v-59.74121C6.00008,48.43836,48.43856,5.99988,100.60213,5.99988h253.7959M354.39803,3.99988H100.60213C47.25008,3.99988,4.00008,47.24988,4.00008,100.60193v59.74121c0,30.18604,24.4707,54.65674,54.65674,54.65674h337.80615c30.12012,0,54.53711-24.41699,54.53711-54.53711v-59.86084c0-53.35205-43.25-96.60205-96.60205-96.60205h0Z" fill="#e8e8e8"/>
    </g>
  </g>
  <g opacity=".08">
    <path d="M348.4257,1.99988c57.66248,0,104.57428,46.91162,104.57428,104.57422v53.76904c0,31.24072-25.41608,56.65674-56.65668,56.65674H58.65672c-31.2406,0-56.65674-25.41602-56.65674-56.65674v-53.76904C1.99998,48.9115,48.91179,1.99988,106.57432,1.99988h241.85138M348.4257-.00012H106.57432C47.71495-.00012-.00002,47.71472-.00002,106.5741v53.76904C-.00002,192.73865,26.26152,218.99988,58.65672,218.99988h337.68658c32.3952,0,58.65668-26.26123,58.65668-58.65674v-53.76904C454.99998,47.71472,407.28508-.00012,348.4257-.00012h0Z" fill="#101010"/>
  </g>
  <g opacity=".46">
    <path d="M354.39817,5.99988c52.16376,0,94.60205,42.43848,94.60205,94.60205v59.86084c0,28.96924-23.56818,52.53711-52.53735,52.53711H58.65678c-29.03491,0-52.65656-23.62158-52.65656-52.65674v-59.74121C6.00023,48.43836,48.4384,5.99988,100.60203,5.99988h253.79614M354.39817,3.99988H100.60203C47.25029,3.99988,4.00023,47.24988,4.00023,100.60193v59.74121c0,30.18604,24.47058,54.65674,54.65656,54.65674h337.80609c30.12012,0,54.53735-24.41699,54.53735-54.53711v-59.86084c0-53.35205-43.25024-96.60205-96.60205-96.60205h0Z" fill="#e8e8e8"/>
  </g>
  <g>
    <path d="M216.61778,163.87743h-35.11476c-3.92699,0-7.11045-3.18346-7.11045-7.11045v-32.17535c0-3.95583,10.00685-20.88448,13.43765-24.01981,8.10976-7.41133,17.64972-5.25177,24.91742,2.11013,2.4495,2.48125,10.98059,17.49421,10.98059,20.08244v34.0026c0,3.92699-3.18346,7.11045-7.11045,7.11045Z" fill="#fafafb"/>
    <path d="M231.03722,122.76438c2.41282-14.56308,20.78493-36.00407,35.89801-22.19257,3.4308,3.13533,13.43765,20.06399,13.43765,24.01981v32.49314c0,3.75149-3.04118,6.79267-6.79267,6.79267h-35.38281c-3.74114,0-6.81275-3.02328-6.79044-6.76436.0676-11.33315-2.01034-24.44654-.36975-34.34869Z" fill="#fafafb"/>
    <path d="M293.35545,158.39569c-4.1426,0-7.50083-3.35824-7.50083-7.50083v-20.82149c0-11.81725,14.60854-37.98139,29.75457-33.45058,5.34207,1.59804,15.92659,19.5029,15.92659,24.31434v27.21685c0,5.63294-4.60877,10.2417-10.2417,10.2417h-27.93863Z" fill="#fafafb"/>
    <path d="M123.22966,120.93713c.84035-5.37322,9.53126-21.37972,14.65504-23.71472,18.07948-8.23916,29.74724,23.0523,30.99604,36.53692.34516,3.7271,1.22739,24.63636-2.71078,24.63636l-36.23714.00006c-3.64023,0-6.66651-2.97683-6.75845-6.6159-.24884-9.84907-1.19961-22.81887.05529-30.84271Z" fill="#fafafb"/>
    <path d="M112.00791,152.91396l-18.57132.00004c-5.53007.00001-10.15279-4.25395-10.54205-9.7703-1.2298-17.42802,4.12055-47.08738,17.4971-47.06457,7.87835.01344,17.35628,16.99351,17.35628,23.03075v28.06406c0,3.17012-2.56989,5.74001-5.74001,5.74002Z" fill="#fafafb"/>
    <path d="M365.5528,152.91395h-21.98779c-3.61608,0-6.54749-2.93141-6.54749-6.54749v-27.25658c0-.77296,4.82877-12.77427,5.74919-14.35046,17.64825-30.22217,34.04625,22.58246,29.12986,43.24487-.69145,2.90601-3.35662,4.90965-6.34376,4.90965Z" fill="#fafafb"/>
    <path d="M61.10328,106.31916c.47927-2.71715,5.7695-12.34281,9.10311-10.03942.75828.52394,8.13783,14.77165,8.47874,16.36808.62742,2.93804.81138,15.41447.77635,19.156-.03373,3.60249.97481,12.9058-1.79636,14.82842-2.75871,1.91397-16.56184,1.36288-16.56184-1.9409,0-10.64933-1.65906-28.96649,0-38.37218Z" fill="#fafafb"/>
    <path d="M377.2127,147.43931c-1.14651-1.21526-2.14375-29.34198-1.39897-33.38528.56455-3.06488,2.02223-5.14719,3.17655-7.78104,2.93831-6.70444,7.48387-14.95506,12.42925-5.02007,2.61223,5.24783,3.72472,37.88168,1.98724,43.18314-1.41002,4.30229-15.59934,3.63365-16.19407,3.00325Z" fill="#fafafb"/>
    <path d="M398.46628,72.93494c-20.76953-8.28418-34.9585-22.68311-58.90088-27.99707-39.03125-8.6626-70.91748,13.57031-107.29834,14.31641-41.01416.8418-78.01367-24.10596-121.02441-13.64551-20.12695,4.89551-24.34082,10.95459-38.05322,19.4165-4.43652,2.73779-16.14404,6.06836-17.30664,9.6333-.2251.68994-.35742,1.41211-.4375,2.14746h.09717c.07568.59131.15234,1.18311.22803,1.77539,2.64502,20.75,9.67334,8.93457,16.27979,13.06055,2.23975,1.39844,7.97412,12.2583,9.17676,15.57715,4.29639-3.10205,5.36523-9.19629,9.99219-12.81201,13.67529-10.68701,24.97705,3.54736,28.37793,16.47559,9.08008-10.9248,13.14746-24.92236,31.14648-19.27295,8.75586,2.74805,17.70605,20.76416,19.104,21.09912,3.78711.90771,11.98535-20.97021,27.41309-22.03467,19.57227-1.3501,25.59814,21.13379,29.22852,22.0376,3.46045.86084,12.23584-19.98828,25.71094-21.84131,21.35352-2.93652,26.30322,20.79883,30.95508,21.8252,3.38281.74658,12.1792-19.95068,23.82031-21.80469,16.41455-2.61426,19.70605,8.7002,27.30957,19.98779,8.76172-23.36719,26.57617-28.56104,38.36377-3.62744,1.11523-.0127,7.4585-13.98096,10.06641-15.60938,4.2915-2.68018,10.82812,2.28809,12.68262.92139,2.05176-1.51123,3.71777-9.50391,4.00977-15.75732h.14746c-.1377-1.30273-.48096-2.59766-1.08887-3.87109ZM115.4614,76.80603c.94238-.04688,1.88867-.05029,2.83203,0h-2.83203Z" fill="#e0ced9" stroke="#fff" stroke-miterlimit="10"/>
  </g>
</svg>