<?xml version="1.0" encoding="UTF-8"?>
<svg id="Layer_1" data-name="Layer 1" xmlns="http://www.w3.org/2000/svg" width="455" height="206" xmlns:xlink="http://www.w3.org/1999/xlink" viewBox="0 0 455 206">
  <defs>
    <clipPath id="clippath">
      <path d="M100.60165,0h253.7967C409.92191,0,455,45.07809,455,100.60165v52.71432c0,29.07711-23.60692,52.68403-52.68403,52.68403H52.68403C23.60692,206,0,182.39308,0,153.31597v-52.71432C0,45.07809,45.07809,0,100.60165,0Z" transform="translate(455 206) rotate(-180)" fill="none"/>
    </clipPath>
    <clipPath id="clippath-1">
      <path d="M100.60165-249h253.7967c55.52356,0,100.60165,45.07809,100.60165,100.60165v52.71432c0,29.07711-23.60692,52.68403-52.68403,52.68403H52.68403C23.60692-43,0-66.60692,0-95.68403v-52.71432C0-203.92191,45.07809-249,100.60165-249Z" fill="none"/>
    </clipPath>
  </defs>
  <g clip-path="url(#clippath)">
    <polyline points="-66.52102 -338.73552 -66.52102 262.21537 534.42987 262.21537 534.42987 -338.73552" fill="#bcbcbc"/>
    <g opacity=".19">
      <path d="M355.20248-249.00009c55.56079,0,100.60168,45.04102,100.60168,100.60156V105.39834c0,55.56055-45.04089,100.60156-100.60168,100.60156H101.40585C45.84506,205.99991.80417,160.95889.80417,105.39834v-253.79688c0-55.56055,45.04089-100.60156,100.60168-100.60156h253.79663M355.20248-250.00009H101.40585C45.38254-250.00009-.19583-204.42197-.19583-148.39853V105.39834c0,56.02344,45.57837,101.60156,101.60168,101.60156h253.79663c56.02332,0,101.60168-45.57812,101.60168-101.60156v-253.79688c0-56.02344-45.57837-101.60156-101.60168-101.60156h0Z" fill="#504e4d"/>
    </g>
    <g opacity=".46">
      <path d="M402.31613,5.99991c25.74146,0,46.68359,20.94238,46.68359,46.68408v52.71436c0,52.16357-42.43811,94.60156-94.60156,94.60156H100.60178c-52.1637,0-94.60205-42.43799-94.60205-94.60156v-52.71436C5.99973,26.94229,26.94211,5.99991,52.68381,5.99991h349.63232M402.31613,3.99991H52.68381C25.83908,3.99991,3.99973,25.83926,3.99973,52.68399v52.71436c0,53.26611,43.33545,96.60156,96.60205,96.60156h253.79639c53.26611,0,96.60156-43.33545,96.60156-96.60156v-52.71436c0-26.84473-21.83936-48.68408-48.68359-48.68408h0Z" fill="#e8e8e8"/>
    </g>
    <polygon points="474.8276 202.32844 336.47812 58.20199 208.84946 148.02181 347.19894 292.14827 474.8276 202.32844" fill="#1e1e1e" opacity=".1"/>
  </g>
  <polyline points="118.40837 58.24097 227.49999 167.33259 336.59161 58.24097" fill="#fdfcfc"/>
  <g opacity=".08">
    <path d="M402.31601,1.99991c27.94727,0,50.68396,22.73682,50.68396,50.68408v52.71436c0,54.36914-44.23254,98.60156-98.60156,98.60156H100.60165C46.23251,203.99991,1.99997,159.76748,1.99997,105.39834v-52.71436C1.99997,24.73672,24.73666,1.99991,52.68405,1.99991h349.63196M402.31601-.00009H52.68405C23.58749-.00009-.00003,23.58731-.00003,52.68399v52.71436C-.00003,160.95889,45.04086,205.99991,100.60165,205.99991h253.79675c55.56067,0,100.60156-45.04102,100.60156-100.60156v-52.71436C454.99997,23.58731,431.41257-.00009,402.31601-.00009h0Z" fill="#101010"/>
  </g>
  <g clip-path="url(#clippath-1)">
    <g>
      <polyline points="521.52102 295.73552 521.52102 -305.21537 -79.42987 -305.21537 -79.42987 295.73552" fill="#bcbcbc"/>
      <path d="M298.21313,156.43622l-.64039.32043c.24224-.41226.62243-.28944.64039-.32043Z" fill="#f6c5cf"/>
      <path d="M299.17372,154.19321c.24483-.43744.55765-.81011.64039-.96129l-.64039.96129Z" fill="#f6c5cf"/>
    </g>
    <g opacity=".19">
      <path d="M353.59421-249.00009c55.56067,0,100.60156,45.04102,100.60156,100.60156V105.39834c0,55.56055-45.04089,100.60156-100.60156,100.60156H99.79746C44.23666,205.99991-.80423,160.95889-.80423,105.39834v-253.79688c0-55.56055,45.04089-100.60156,100.60168-100.60156h253.79675M353.59421-250.00009H99.79746C43.77414-250.00009-1.80423-204.42197-1.80423-148.39853V105.39834c0,56.02344,45.57837,101.60156,101.60168,101.60156h253.79675c56.02332,0,101.60156-45.57812,101.60156-101.60156v-253.79688c0-56.02344-45.57825-101.60156-101.60156-101.60156h0Z" fill="#504e4d"/>
    </g>
  </g>
</svg>