<?xml version="1.0" encoding="UTF-8"?>
<svg id="Layer_1" data-name="Layer 1" xmlns="http://www.w3.org/2000/svg" width="454.37285" height="206" xmlns:xlink="http://www.w3.org/1999/xlink" viewBox="0 0 454.37285 206">
  <defs>
    <clipPath id="clippath-1">
      <path d="M100.60165,0h253.7967C409.92191,0,455,45.07809,455,100.60165v52.71432c0,29.07711-23.60692,52.68403-52.68403,52.68403H52.68403c-29.07711,0-52.68403-23.60692-52.68403-52.68403v-52.71432C0,45.07809,45.07809,0,100.60165,0Z" transform="translate(455 206) rotate(180)" fill="none"/>
    </clipPath>
    <clipPath id="clippath-2">
      <path d="M100.60165-249h253.7967c55.52356,0,100.60165,45.07809,100.60165,100.60165v59.92627c0,32.27162-26.20046,58.47208-58.47208,58.47208H58.39582C26.16629-30,0-56.16629,0-88.39582v-60.00253c0-55.52356,45.07809-100.60165,100.60165-100.60165Z" fill="none"/>
    </clipPath>
  </defs>
  <g clip-path="url(#clippath-1)">
    <polyline points="-66.52102 -338.73552 -66.52102 262.21537 534.42987 262.21537 534.42987 -338.73552" fill="#9180bc"/>
    <g opacity=".19">
      <path d="M355.20272-249.00012c55.56055,0,100.60156,45.04102,100.60156,100.60156V105.39832c0,55.56104-45.04102,100.60156-100.60156,100.60156H101.40584C45.8453,205.99988.80428,160.95935.80428,105.39832v-253.79688c0-55.56055,45.04102-100.60156,100.60156-100.60156h253.79688M355.20272-250.00012H101.40584C45.38241-250.00012-.19572-204.422-.19572-148.39856V105.39832c0,56.02344,45.57812,101.60156,101.60156,101.60156h253.79688c56.02344,0,101.60156-45.57812,101.60156-101.60156v-253.79688c0-56.02344-45.57812-101.60156-101.60156-101.60156h0Z" fill="#504e4d"/>
    </g>
    <g opacity=".46">
      <path d="M402.316,5.99988c25.74121,0,46.68359,20.94238,46.68359,46.68408v52.71436c0,52.16357-42.43799,94.60156-94.60156,94.60156H100.60164c-52.16357,0-94.60205-42.43799-94.60205-94.60156v-52.71436C5.99959,26.94226,26.94198,5.99988,52.68368,5.99988h349.63232M402.316,3.99988H52.68368C25.83895,3.99988,3.99959,25.83923,3.99959,52.68396v52.71436c0,53.26611,43.33545,96.60156,96.60205,96.60156h253.79639c53.26611,0,96.60156-43.33545,96.60156-96.60156v-52.71436c0-26.84473-21.83936-48.68408-48.68359-48.68408h0Z" fill="#e8e8e8"/>
    </g>
    <g>
      <path d="M224.98186,54.7693c-53.28695-.46585-100.95684.26071-145.36851-16.70932,3.521,3.63721,6.0171,7.89107,9.53809,11.52876h-14.23193v25.66992c-1.27197-.27979-2.54883-.55664-3.80957-.84326.23926.24707.47852.49414.71777.7417l-1.2124-.68945v35.67676l-11.37823,1.88107,170.34549,176.12283,105.20022-36.12646c71.47656-.73828,142.95361-1.47656,214.43066-2.21484l-34.17529-35.30908c13.88477-.14355,27.76904-.28662,41.65381-.43018L386.62996,38.3656c-45.36963,10.43945-98.23584,16.43408-154.69189,16.43408-2.32491,0-4.64373-.01016-6.95621-.03038" fill="#1e1e1e" opacity=".1"/>
      <path d="M556.69198,218.06775l-105.75879-109.26611c-1.7998,51.6958-44.40869,93.19873-96.53516,93.19873h-209.22803l87.22119,90.14795,102.3916-36.12646c71.47656-.73828,142.95361-1.47656,214.43066-2.21484l-34.17529-35.30908c13.88477-.14355,27.76904-.28662,41.65381-.43018Z" fill="#1e1e1e" opacity=".1"/>
    </g>
  </g>
  <g opacity=".08">
    <path d="M402.316,1.99988c27.94727,0,50.68408,22.73682,50.68408,50.68408v52.71436c0,54.36914-44.23242,98.60156-98.60156,98.60156H100.60164c-54.36914,0-98.60156-44.23242-98.60156-98.60156v-52.71436C2.00008,24.73669,24.7369,1.99988,52.68416,1.99988h349.63184M402.316-.00012H52.68416C23.58748-.00012.00008,23.58728.00008,52.68396v52.71436C.00008,160.95935,45.0411,205.99988,100.60164,205.99988h253.79688c55.56055,0,100.60156-45.04053,100.60156-100.60156v-52.71436C455.00008,23.58728,431.41268-.00012,402.316-.00012h0Z" fill="#101010"/>
  </g>
  <g clip-path="url(#clippath-2)">
    <g>
      <polyline points="521.87971 285.60508 521.87971 -315.3458 -79.07117 -305.3458 -79.07117 295.60508" fill="#9180bc"/>
      <path d="M298.21313,156.43622l-.64039.32043c.24224-.41226.62243-.28944.64039-.32043Z" fill="#f6c5cf"/>
      <path d="M299.17372,154.19321c.24483-.43744.55765-.81011.64039-.96129l-.64039.96129Z" fill="#f6c5cf"/>
      <polygon points="443.81507 61.3768 237.63184 61.3768 230.63184 44.55982 448.81507 44.55982 443.81507 61.3768" fill="#1e1e1e" opacity=".2"/>
    </g>
    <g opacity=".19">
      <path d="M353.59432-249.00012c55.56055,0,100.60156,45.04102,100.60156,113.60156V118.39832c0,42.56104-45.04102,87.60156-100.60156,87.60156H99.79745C44.2369,205.99988-.80412,160.95935-.80412,118.39832v-253.79688c0-68.56055,45.04102-113.60156,100.60156-113.60156h253.79688M353.59432-250.00012H99.79745c-27.75,0-53.2749,11.15625-71.87256,31.41406-9.37891,10.21631-16.70068,22.38525-21.76172,36.16846-5.28662,14.39746-7.96729,30.2168-7.96729,47.01904V118.39832c0,21.20557,10.85889,43.25732,29.79199,60.50049,19.89746,18.12109,45.3999,28.10107,71.80957,28.10107h253.79688c26.40967,0,51.91211-9.97998,71.80957-28.10107,18.93311-17.24316,29.79199-39.29492,29.79199-60.50049v-253.79688c0-16.80225-2.68066-32.62158-7.96729-47.01904-5.06104-13.7832-12.38281-25.95215-21.76172-36.16846-18.59766-20.25781-44.12256-31.41406-71.87256-31.41406h0Z" fill="#504e4d"/>
    </g>
  </g>
  <g>
    <path d="M71.30647,74.89611c1.67232,15.19064,19.03635,13.122,27.40844,3.65816-4.24515,17.23777,16.64126,34.36999,31.01001,22.75473,4.39671-3.55416,5.06098-9.00102,9.18465-11.77812,8.60183,31.30583,32.62589,37.58249,46.6177,5.44967,3.65331,8.53065,10.45444,20.31825,20.59092,21.62152,14.95308,1.92254,21.7137-19.36116,23.28258-19.78717,3.28158-.89107,7.76789,12.85004,11.43309,14.6555,15.75469,13.26533,28.20103-1.80561,34.22855-16.4898,13.55387,32.17757,38.29904,25.72772,46.61775-5.44972l10.01299,12.77801c13.26675,9.30967,32.37844-5.00376,30.17264-20.0918,4.78597-.33204,6.64399,5.36836,10.91412,6.57216,13.24223,3.73314,17.93587-13.87458,19.22688-13.85393,7.32088,8.10099,12.19054,22.92168,10.00794,33.74112-1.16227,5.7615-12.87007,11.14495-17.30642,15.56969-13.71261,13.67673-17.92645,23.46976-38.05358,31.38179-43.01043,16.90751-80.00983-7.25219-121.02394-5.89203-36.38108,1.20651-68.2675,20.97834-107.29862,6.97662-23.94242-8.58891-38.1311-31.86154-58.90087-45.25098-1.91544-6.48298-1.22215-13.32062.35053-19.78082.69725-2.86411,7.98234-20.13057,11.52466-16.7846Z" fill="#e0ced9" stroke="#fff" stroke-miterlimit="10"/>
    <path d="M178.85869,54.6472c2.37553.9034,3.92771,3.20511,3.92771,5.74662l.00005,24.5554c0,6.78057-11.77258,26.88677-20.7387,26.1099-8.47084-.73396-19.46073-20.60477-19.46073-27.93714v-27.61732c0-3.41684,2.7699-6.18674,6.18674-6.18674l18.00832,2.97595c.82618.13653,1.66422.19643,2.50097.22884,3.55921.13785,6.28218.87202,9.57563,2.1245Z" fill="#fafafb"/>
    <path d="M313.72574,49.31792c2.3621,0,4.27696,1.91486,4.27696,4.27696v29.5271c0,7.37438-10.96905,27.14596-19.46981,27.94443-8.0783.75879-20.72962-19.49157-20.72962-26.11718l.00002-25.92424c0-2.80565,2.23398-5.02456,5.03528-5.18076.54206-.03023,1.10099-.13987,1.71743-.44636,1.55012-.77071,6.22669-1.90226,9.35093-2.59312,1.17466-.25975,2.35918-.42382,3.55999-.49693l16.2588-.98991Z" fill="#fafafb"/>
    <path d="M221.79427,54.79966c2.67643,0,4.8461,2.16967,4.8461,4.8461v28.95796c0,6.07283-11.8571,22.72127-19.18643,22.71658-7.77318-.00497-19.18575-18.95267-19.18575-24.54383v-27.13072c0-2.67643,2.16967-4.8461,4.8461-4.8461h28.67998Z" fill="#fafafb"/>
    <path d="M268.25996,54.79966c2.24315,0,4.06158,1.81843,4.06158,4.06158v27.91524c0,5.59116-11.41257,24.53886-19.18575,24.54383-7.32933.00469-19.18643-16.64376-19.18643-22.71658v-29.74249c0-2.24315,1.81843-4.06158,4.06158-4.06158h30.24903Z" fill="#fafafb"/>
    <path d="M350.50873,43.84075c3.29192.20181,5.86615,2.90904,5.86615,6.20713v38.55584c0,1.56186-5.48256,7.77836-7.44613,8.98485-15.97973,9.81856-24.545-12.28863-25.52162-25.35309-.24613-3.29252-.67401-21.42392.1366-22.23453,1.28782-1.28782,5.79781-2.36129,8.52427-3.19231,2.65392-.80891,4.8482-2.17516,8.79866-2.94622,2.89065-.5642,6.30141-.22648,9.64208-.02167Z" fill="#fafafb"/>
    <path d="M104.21484,50.47014c0-3.51246,2.72494-6.42887,6.23029-6.65218,3.22353-.20535,5.58556.89778,8.37126,1.44149,3.95046.77106,6.2539,1.26737,8.90783,2.07628,2.72641.831,6.11283.40025,9.14581,2.62444,2.68129,1.96628.55051,17.36139.31223,20.4475-1.00986,13.07913-8.92247,37.38023-25.52128,27.18091-1.96359-1.20655-7.44614-7.42296-7.44614-8.98486v-38.13358Z" fill="#fafafb"/>
    <path d="M385.61083,75.813c-3.28814,15.26698-22.45367,5.21535-23.86586-9.02489-.30391-3.06451-.73243-22.1702.09989-22.96095.40285-.38272,7.10056-1.71849,10.39277-2.76839,1.95679-.62402,13.3732-9.14067,13.3732-1.79071,0,9.39397,1.67463,28.76954,0,36.54493Z" fill="#fafafb"/>
    <path d="M74.9789,39.26806c2.06215-7.19998,9.13676,2.62767,12.68157,3.75818,3.29244,1.05002,8.44409.81003,10.88704,2.03811,4.12445,2.07336-.78733,31.72774-10.16359,35.02254-4.90055,1.72204-13.40502-.71383-13.40502-6.10114,0-7.65469-1.54677-29.31717,0-34.71769Z" fill="#fafafb"/>
  </g>
</svg>