<?xml version="1.0" encoding="UTF-8"?>
<svg id="Layer_1" data-name="Layer 1" xmlns="http://www.w3.org/2000/svg" width="455" height="206" xmlns:xlink="http://www.w3.org/1999/xlink" viewBox="0 0 455 206">
  <defs>
    <clipPath id="clippath">
      <path d="M100.60165,249h253.7967c55.52356,0,100.60165,45.07809,100.60165,100.60165v52.71432c0,29.07711-23.60692,52.68403-52.68403,52.68403H52.68403C23.60692,455,0,431.39308,0,402.31597v-52.71432C0,294.07809,45.07809,249,100.60165,249Z" transform="translate(455 704) rotate(-180)" fill="none"/>
    </clipPath>
    <clipPath id="clippath-1">
      <path d="M100.60165,0h253.7967C409.92191,0,455,45.07809,455,100.60165v52.71432c0,29.07711-23.60692,52.68403-52.68403,52.68403H52.68403C23.60692,206,0,182.39308,0,153.31597v-52.71432C0,45.07809,45.07809,0,100.60165,0Z" fill="none"/>
    </clipPath>
  </defs>
  <g clip-path="url(#clippath)">
    <g>
      <polyline points="-66.52102 -89.73552 -66.52102 511.21537 534.42987 511.21537 534.42987 -89.73552" fill="#bcbcbc"/>
      <path d="M156.78687,49.56378l.64039-.32043c-.24224.41226-.62243.28944-.64039.32043Z" fill="#f6c5cf"/>
      <path d="M155.82628,51.80679c-.24483.43744-.55765.81011-.64039.96129l.64039-.96129Z" fill="#f6c5cf"/>
    </g>
    <g opacity=".19">
      <path d="M355.20248-.00009C410.76328-.00009,455.80417,45.04092,455.80417,100.60147v253.79688c0,55.56055-45.04089,100.60156-100.60168,100.60156H101.40585c-55.56079,0-100.60168-45.04102-100.60168-100.60156V100.60147C.80417,45.04092,45.84506-.00009,101.40585-.00009h253.79663M355.20248-1.00009H101.40585C45.38254-1.00009-.19583,44.57803-.19583,100.60147v253.79688c0,56.02344,45.57837,101.60156,101.60168,101.60156h253.79663c56.02332,0,101.60168-45.57812,101.60168-101.60156V100.60147c0-56.02344-45.57837-101.60156-101.60168-101.60156h0Z" fill="#504e4d"/>
    </g>
  </g>
  <g clip-path="url(#clippath-1)">
    <g>
      <polyline points="521.52102 544.73552 521.52102 -56.21537 -79.42987 -56.21537 -79.42987 544.73552" fill="#bcbcbc"/>
      <polygon points="385.92941 202.44717 336.59164 147.33242 118.40842 147.33242 167.74619 202.44717 385.92941 202.44717" fill="#1e1e1e" opacity=".1"/>
      <polygon points="381.29733 232.2643 175.1141 232.2643 168.1141 202.44732 386.29733 202.44732 381.29733 232.2643" fill="#1e1e1e" opacity=".2"/>
    </g>
    <g opacity=".19">
      <path d="M353.59421-.00009C409.15488-.00009,454.19577,45.04092,454.19577,100.60147v253.79688c0,55.56055-45.04089,100.60156-100.60156,100.60156H99.79746c-55.56079,0-100.60168-45.04102-100.60168-100.60156V100.60147C-.80423,45.04092,44.23666-.00009,99.79746-.00009h253.79675M353.59421-1.00009H99.79746C43.77414-1.00009-1.80423,44.57803-1.80423,100.60147v253.79688c0,56.02344,45.57837,101.60156,101.60168,101.60156h253.79675c56.02332,0,101.60156-45.57812,101.60156-101.60156V100.60147c0-56.02344-45.57825-101.60156-101.60156-101.60156h0Z" fill="#504e4d"/>
    </g>
    <g opacity=".46">
      <path d="M354.39816,5.99991c52.1637,0,94.60205,42.43848,94.60205,94.60205v52.71387c0,25.7417-20.94238,46.68408-46.68408,46.68408H52.68381c-25.74146,0-46.68359-20.94238-46.68359-46.68408v-52.71387C6.00021,48.43838,48.43832,5.99991,100.60178,5.99991h253.79639M354.39816,3.99991H100.60178C47.33566,3.99991,4.00021,47.33535,4.00021,100.60196v52.71387c0,26.84473,21.83936,48.68408,48.68359,48.68408h349.63232c26.84473,0,48.68408-21.83936,48.68408-48.68408v-52.71387c0-53.2666-43.33545-96.60205-96.60205-96.60205h0Z" fill="#e8e8e8"/>
    </g>
  </g>
  <polyline points="336.59162 147.33259 227.50001 38.24097 118.40839 147.33259" fill="#fdfcfc"/>
  <g opacity=".08">
    <path d="M354.39841,1.99991c54.36902,0,98.60156,44.23242,98.60156,98.60156v52.71436c0,27.94727-22.73669,50.68408-50.68396,50.68408H52.68405c-27.94739,0-50.68408-22.73682-50.68408-50.68408v-52.71436C1.99997,46.23233,46.23251,1.99991,100.60165,1.99991h253.79675M354.39841-.00009H100.60165C45.04086-.00009-.00003,45.04092-.00003,100.60147v52.71436C-.00003,182.4125,23.58749,205.99991,52.68405,205.99991h349.63196c29.09656,0,52.68396-23.5874,52.68396-52.68408v-52.71436C454.99997,45.04092,409.95908-.00009,354.39841-.00009h0Z" fill="#101010"/>
  </g>
</svg>