<?xml version="1.0" encoding="UTF-8"?>
<svg id="Layer_1" data-name="Layer 1" xmlns="http://www.w3.org/2000/svg" width="455" height="455" xmlns:xlink="http://www.w3.org/1999/xlink" viewBox="0 0 455 455">
  <defs>
    <clipPath id="clippath">
      <rect width="455" height="455" rx="100.60165" ry="100.60165" fill="none"/>
    </clipPath>
  </defs>
  <g clip-path="url(#clippath)">
    <g>
      <polyline points="521.52102 534.73552 521.52102 -66.21537 -79.42987 -66.21537 -79.42987 534.73552" fill="#9180bc"/>
      <path d="M561.37883,376.15837L319.43096,107.25273l-41.92171-18.00861-50.35111-14.43478c-70.31006,0-127.30754,76.42398-127.30754,146.73404,0,34.19922,30.94009,42.39316,52.88296,65.26596l7.64525,4.43478,13.56522,15.65217c46.81775-.6531-53.19733,16.19434-74.22944,80.91731l364.9251,213.24107,96.73913-224.8963Z" fill="#1e1e1e" opacity=".09"/>
      <path d="M298.21313,405.43622l-.64039.32043c.24224-.41226.62243-.28944.64039-.32043Z" fill="#f6c5cf"/>
      <path d="M299.17372,403.19321c.24483-.43744.55765-.81011.64039-.96129l-.64039.96129Z" fill="#f6c5cf"/>
      <path d="M450.1959,228.82544v125.57272c0,53.2666-43.33496,96.60205-96.60156,96.60205h-188.93958l180.22473,161.45692,195.37969-294.02216-90.06328-89.60953Z" fill="#1e1e1e" opacity=".1"/>
    </g>
    <rect x="3.1959" y="4.00021" width="447" height="447" rx="96.60156" ry="96.60156" transform="translate(454.19611 .80431) rotate(90)" fill="none" opacity=".46" stroke="#e8e8e8" stroke-miterlimit="10"/>
    <g opacity=".19">
      <path d="M353.59408.00004C409.15487.00004,454.19588,45.04093,454.19588,100.6016v253.79675c0,55.56079-45.04102,100.60168-100.60181,100.60168H99.79745c-55.56079,0-100.60168-45.04089-100.60168-100.60168V100.6016C-.80424,45.04093,44.23665.00004,99.79745.00004h253.79663M353.59408-.99996H99.79745C43.77413-.99996-1.80424,44.57828-1.80424,100.6016v253.79675c0,56.02332,45.57837,101.60168,101.60168,101.60168h253.79663c56.02344,0,101.60181-45.57837,101.60181-101.60168V100.6016c0-56.02332-45.57837-101.60156-101.60181-101.60156h0Z" fill="#504e4d"/>
    </g>
  </g>
  <rect x="3.1959" y="4.00021" width="447" height="447" rx="96.60156" ry="96.60156" transform="translate(454.19611 .80431) rotate(90)" fill="none" opacity=".29" stroke="#e8e8e8" stroke-miterlimit="10" stroke-width="3"/>
  <path d="M229.73938,71.67211c-71.68196,0-129.79163,58.10967-129.79163,129.79163,0,47.80671,25.85129,89.56971,64.33312,112.09093h-64.33312v74.003h74.00295v-68.87641c16.90134,8.05851,35.81688,12.57411,55.78868,12.57411,71.68196,0,129.79163-58.10967,129.79163-129.79163s-58.10967-129.79163-129.79163-129.79163ZM229.73938,275.22495c-40.73717,0-73.76121-33.02404-73.76121-73.76121s33.02404-73.76121,73.76121-73.76121,73.76121,33.02398,73.76121,73.76121-33.02398,73.76121-73.76121,73.76121Z" fill="#fdfcfc"/>
  <ellipse cx="320.58555" cy="270.21061" rx="89.74981" ry="91.55281" fill="#939393" opacity="0"/>
</svg>