<?xml version="1.0" encoding="UTF-8"?>
<svg id="Layer_1" data-name="Layer 1" xmlns="http://www.w3.org/2000/svg" width="455" height="455" xmlns:xlink="http://www.w3.org/1999/xlink" viewBox="0 0 455 455">
  <defs>
    <clipPath id="clippath">
      <rect y="0" width="455" height="455" rx="100.60165" ry="100.60165" fill="none"/>
    </clipPath>
    <clipPath id="clippath-1">
      <rect x="-773.21739" y="0" width="455" height="455" rx="68.3913" ry="68.3913" fill="none"/>
    </clipPath>
  </defs>
  <g clip-path="url(#clippath)">
    <g>
      <polyline points="519.41232 542.62682 519.41232 -58.32406 -81.53856 -58.32406 -81.53856 542.62682" fill="#a195c8"/>
      <path d="M298.21313,405.43622l-.64039.32043c.24224-.41226.62243-.28944.64039-.32043Z" fill="#f6c5cf"/>
      <path d="M299.17372,403.19321c.24483-.43744.55765-.81011.64039-.96129l-.64039.96129Z" fill="#f6c5cf"/>
      <path d="M450.1959,196.00338v158.39478c0,53.2666-43.33496,96.60205-96.60156,96.60205h-152.97144l257.17813,98.28632,68.86957-122.34241-76.47469-230.94074Z" fill="#1e1e1e" opacity=".1"/>
    </g>
    <g opacity=".35">
      <path d="M353.59436,6.00039c52.16347,0,94.60153,42.43799,94.60153,94.60156v253.79639c0,52.16357-42.43806,94.60205-94.60153,94.60205H99.79748c-52.16348,0-94.60159-42.43848-94.60159-94.60205V100.60196C5.19589,48.43838,47.634,6.00039,99.79748,6.00039h253.79688M353.59436,4.00039H99.79748C46.53085,4.00039,3.19589,47.33584,3.19589,100.60196v253.79639c0,53.2666,43.33496,96.60205,96.60159,96.60205h253.79688c53.26659,0,96.60153-43.33545,96.60153-96.60205V100.60196c0-53.26611-43.33495-96.60156-96.60153-96.60156h0Z" fill="#e8e8e8"/>
    </g>
    <g opacity=".19">
      <path d="M353.59417-.00009C409.15495-.00009,454.19583,45.04092,454.19583,100.60147v253.79688c0,55.56055-45.04088,100.60156-100.60165,100.60156H99.79748c-55.56076,0-100.60165-45.04102-100.60165-100.60156V100.60147C-.80417,45.04092,44.23672-.00009,99.79748-.00009h253.79669M353.59417-1.00009H99.79748C43.77413-1.00009-1.80417,44.57803-1.80417,100.60147v253.79688c0,56.02344,45.57831,101.60156,101.60165,101.60156h253.79669c56.02336,0,101.60165-45.57812,101.60165-101.60156V100.60147c0-56.02344-45.57829-101.60156-101.60165-101.60156h0Z" fill="#504e4d"/>
    </g>
    <path d="M330.3327,464.44101l126.42846,128.6821-75.95137-131.21042,43.23304,33.77887c178.03437,178.03437-26.65715-20.23114-26.60847-20.22069l53.56732,58.23742,336.68871-30.58973L397.42874,103.84469l-1.02489.09356c-.25436-.25194-.51787-.47775-.80098-.64815-13.65932-8.21744-15.99947-12.62175-24.88474-6.44495-24.74537,17.20431-44.02443-3.26011-68.89786-5.97086-28.38307-3.09337-43.46304,9.28742-68.38724,10.90206-31.39222,2.03437-49.96765-14.97706-80.9907-10.73322-23.20019,3.17334-36.26814,23.58183-61.86062,5.80202-8.96112-6.22542-10.36086-.3199-23.83129,5.69435-7.5246,3.35942-6.21679,22.45697-5.29467,29.69173,1.66815,13.08748,5.10611,12.22711,9.07141,10.97419l4.05508,4.1623c-3.23646.01673-7.44658,7.84475-7.86886,10.23874-1.61045,9.13009-.05292,26.76197-.00444,37.32531l-.20941.97328,34.33576,35.47598-.05972.20176c-.00595-.00314-.01072-.00993-.01666-.01254-2.40856-1.21111-7.48762-.97432-10.73368-2.0098-3.49487-1.11441-10.46978-10.80379-12.50284-3.70493-1.52499,5.32427,0,26.68147,0,34.22828,0,5.24012,8.15439,7.63985,13.01313,6.07331l-1.59458,5.38386c-4.18105.85305-8.30526.2509-11.1951-2.28788-4.26893-3.75093-10.9885-1.99987-13.27285,3.20366-1.0147,2.3114-1.73773,4.26841-1.93362,5.07285-1.55047,6.36916-2.23404,23.81548-.34557,30.20711,18.54152,11.95322,31.76393,31.89388,51.62168,41.84357l303.64462,310.31629-143.32522-192.60995,188.2583,192.60995-132.06047-195.45556ZM220.16991,296.84771l-4.12858-4.24227c.00849-.00836.01699-.0162.02555-.02404l4.1295,4.23809c-.00902.00941-.01738.01882-.02646.02823ZM183.81082,259.48686v-.0115l5.40457,5.54694v.01777l-5.40457-5.55322Z" fill="#1e1e1e" opacity=".12"/>
    <g>
      <path d="M68.11062,272.85391c.52777,0,.97601.16846,1.37067.51514,3.08929,2.71436,7.13159,4.14893,11.68982,4.14893,2.46582,0,5.00272-.41846,7.54071-1.24414.22705-.07422.46121-.11133.69601-.11133,1.00247,0,1.94809.6665,2.29953,1.62109,3.9668,10.77441,14.55145,18.59473,25.16812,18.59473,5.10483,0,9.97678-1.75732,14.08444-5.07764.34857-.28125.69385-.58203,1.02383-.8916.72678-.68066,1.48883-.82324,2.00018-.82324.5495,0,1.56631.16846,2.20221,1.29736,5.98367,10.62402,14.31326,16.4751,23.45438,16.4751,5.21329,0,12.99567-1.99121,20.46552-11.47705.603-.76562,1.36551-.92676,1.89896-.92676.40176,0,1.41766.1084,2.17227,1.1123,5.15372,6.85645,11.06421,10.75684,17.56726,11.59277,1.03656.1333,2.06812.20068,3.06616.20068,10.7193,0,16.38269-7.54248,19.76645-12.04932.43536-.57959.9549-1.27197,1.423-1.85156.61017.67041,1.30646,1.55615,1.79962,2.18408,1.51935,1.93359,3.22232,4.10059,5.53854,5.48242,4.94095,4.02441,10.07324,6.06445,15.26239,6.06445,7.2565,0,14.1546-4.02637,19.94861-11.64355.65735-.86426,1.5383-.99316,2.00488-.99316.46564,0,1.34784.12793,2.0253.98633,7.36798,9.33447,15.13428,11.29395,20.35193,11.29395,9.14145,0,17.77307-6.0376,23.68161-16.56445.68268-1.21631,1.82513-1.34766,2.28461-1.34766.55167,0,1.34079.16797,1.96747.96777l.72745.92822.54837.69971.72766.51074c3.7334,2.61963,8.10962,4.00439,12.65552,4.00439,9.85571,0,19.85905-6.58643,24.32626-16.01709.49312-1.04102,1.50412-1.50684,2.28734-1.50684.31677,0,.60901.06934.89223.21143.7025.35205,1.43134.63574,2.16478.84229,1.73561.48926,3.46994.7373,5.15488.7373,4.82712,0,9.35089-2.04639,13.08246-5.91846.65128-.67578,1.37488-.81787,1.86726-.81787.87239,0,1.96962.44775,2.43279,1.70508,2.06609,5.60791,3.06862,22.33154,2.04483,27.58105-.66602,1.65332-5.74631,5.12939-8.1956,6.80518-2.74095,1.875-5.3299,3.64648-7.23512,5.54688-3.58438,3.5752-6.56783,6.92871-9.20004,9.8877-7.45506,8.38037-12.84151,14.43506-26.27534,19.71631-9.46426,3.72021-19.27356,5.52881-29.98837,5.52881-13.56384,0-26.65518-2.79736-40.51517-5.75879-13.92075-2.97412-28.31546-6.0498-43.27557-6.0498-1.18634,0-2.37845.01953-3.54333.05811-13.34195.44238-26.0195,3.29248-38.27966,6.04883-13.14648,2.95605-25.56387,5.74756-38.57938,5.74756-9.39761,0-18.13223-1.49463-26.70291-4.56885-12.90036-4.62793-22.81943-14.13477-33.32092-24.19971-6.685-6.40723-13.57904-13.01465-21.4245-18.40967-.94727-6.36621-.43805-19.96143.81909-25.12598.09387-.35449.62787-1.87891,1.60236-4.09863.49237-1.12158,1.58435-1.62354,2.44818-1.62354M68.11038,266.85391c-3.26013,0-6.49298,1.91162-7.94177,5.21143-1.01471,2.31152-1.73773,4.26855-1.93359,5.07275-1.55054,6.36914-2.23401,23.81543-.34558,30.20752,20.47711,13.20068,34.46588,36.14502,58.07095,44.61328,9.98434,3.58154,19.49255,4.92139,28.72894,4.92139,26.362,0,50.49585-10.91895,77.05789-11.7998,1.11801-.03711,2.23233-.05469,3.34451-.05469,28.60965,0,55.35278,11.80859,83.79071,11.80859,10.44003,0,21.1113-1.59229,32.18343-5.94482,19.84357-7.80078,23.99806-17.45557,37.51746-30.93994,4.37383-4.3623,15.91666-9.66992,17.06255-15.3501,1.23094-6.10205.18668-24.2002-2.28372-30.90527-1.33427-3.62158-4.66342-5.63086-8.06285-5.63086-2.20888,0-4.44743.84863-6.18764,2.6543-2.2168,2.30029-5.08131,4.08203-8.76208,4.08203-1.10085,0-2.27539-.15967-3.5266-.51221-.38655-.10889-.7531-.25537-1.10365-.43115-1.15245-.57764-2.37408-.84766-3.5816-.84766-3.17819,0-6.25731,1.87207-7.70979,4.93848-3.40611,7.19043-11.13361,12.58545-18.90379,12.58545-3.15839,0-6.32401-.8916-9.20905-2.91602l-.72745-.92822c-1.7247-2.20117-4.211-3.2666-6.69-3.2666-2.94946,0-5.88821,1.50977-7.51666,4.41064-4.90396,8.7373-11.57825,13.50146-18.44952,13.50146-5.34171,0-10.80261-2.87988-15.64236-9.01123-1.72028-2.17969-4.22937-3.26904-6.73489-3.26904-2.54001,0-5.07632,1.12061-6.78036,3.36084-4.10046,5.39062-9.24402,9.27588-15.1731,9.27588-3.67374,0-7.64914-1.4917-11.86469-5.04102-3.61356-1.78027-6.42084-9.40967-11.05145-9.46289h-.03369c-5.34323,0-8.11545,14.67383-20.84021,14.67383-.73248,0-1.50034-.04883-2.30115-.15186-5.49652-.70654-9.99835-4.54004-13.53613-9.24658-1.74567-2.32227-4.36224-3.50732-6.96844-3.50732-2.46207,0-4.91498,1.05859-6.61292,3.21484-4.92157,6.25-10.40524,9.18896-15.7515,9.18896-6.7757,0-13.32959-4.72461-18.22656-13.41943-1.61249-2.86279-4.48773-4.35303-7.43008-4.35303-2.15463,0-4.34549.79932-6.10172,2.44434-.21927.20557-.4487.40625-.68961.60059-3.22888,2.61035-6.79001,3.74756-10.31708,3.74756-8.33893,0-16.48019-6.36328-19.5376-14.66748-1.24823-3.39062-4.48688-5.54834-7.93011-5.54834-.84744,0-1.70734.13037-2.55292.40576-1.90057.61816-3.83215.94971-5.68378.94971-2.92365,0-5.64728-.82666-7.72961-2.65625-1.56152-1.37207-3.45081-2.00781-5.33112-2.00781h0Z" fill="#fafafb"/>
      <path d="M158.09826,95.96914c10.90308,0,20.39395,2.65381,30.44208,5.46289,10.76581,3.01025,21.8981,6.12256,35.35675,6.12256,1.86301,0,3.75372-.06104,5.61942-.18213,10.95834-.70996,20.02042-3.34521,28.78412-5.89355,9.70853-2.82324,18.87872-5.49023,30.28113-5.49023,2.70435,0,5.49152.1543,8.28412.45898,7.53888.82129,14.86804,3.56934,21.95587,6.22705,8.64719,3.24219,17.58871,6.59473,27.14571,6.59473,8.42741,0,16.23582-2.58057,23.87125-7.88916,1.72058-1.1958,3.03293-1.82812,3.79465-1.82861,1.34622,0,4.10176,1.79785,7.59035,4.07324,1.92322,1.25439,4.09474,2.6709,6.71629,4.25537.67976,1.00049,2.25647,5.49707,2.03511,15.51221-.13193,5.96729-.85123,10.74756-1.52385,13.6001-1.69913-.52246-3.76137-1.04395-5.93367-1.04395-2.30476,0-4.39301.57422-6.20518,1.70605-1.04893.65479-1.98587,1.57959-3.03828,2.99902-1.40495,1.89551-3.36247,2.17871-4.4043,2.17871-1.46747,0-2.90277-.5415-4.04147-1.5249-4.0827-3.52637-8.71988-5.39062-13.41023-5.39062-5.74612,0-11.29442,2.71729-16.04536,7.8584-1.077,1.16553-2.62494,1.83398-4.24692,1.83398-.94977,0-2.75143-.23877-4.14673-1.8374-4.78094-5.479-10.58069-8.14209-17.73065-8.14258-1.69257,0-3.5011.15137-5.37546.44971-8.52301,1.35742-13.57419,8.18115-17.63287,13.66406-1.29248,1.74561-3.34024,4.51221-4.59018,5.47021-.79446-.87354-1.95361-2.59863-2.77618-3.82275-3.93658-5.8584-10.52524-15.66357-24.43536-15.66455-1.43076,0-2.92538.10547-4.44235.31445-10.01682,1.37695-16.56592,8.47852-21.34793,13.66406-1.0051,1.08984-2.27112,2.46289-3.21234,3.32617-.71677-.79395-1.63828-2.01855-2.37244-2.99463-4.02646-5.35254-10.76556-14.31055-24.52615-14.31152-.75143,0-1.52594.02734-2.30212.08057-11.07764.76416-17.35406,7.38037-21.93695,12.21143-1.1962,1.26123-3.06873,3.23486-4.15176,3.92676-.9256-.84424-2.33035-2.48779-3.32889-3.65625-3.55441-4.15918-7.97806-9.33496-14.23462-11.29883-3.32901-1.04492-6.35895-1.55273-9.26297-1.55322-8.89993-.00049-14.22141,4.86084-17.45016,8.51758-1.38593,1.56982-3.14078,1.80469-4.06348,1.80469-1.681,0-3.28116-.72461-4.39023-1.98828-4.59311-5.23193-10.07669-7.99805-15.858-7.99854-4.50436,0-8.92941,1.67285-13.14911,4.9707-.30243.23584-.60446.48779-.89993.75-1.24542,1.10596-2.63455,1.33838-3.5806,1.33838-1.79135,0-3.42758-.79785-4.48917-2.18896-1.0838-1.42041-2.02759-2.34131-3.0592-2.98535-1.8302-1.14258-3.86536-1.72217-6.04877-1.72217-2.25421,0-4.17462.6084-5.71771,1.09766-.08942.02832-.18652.05908-.2876.09082-.34741-1.02002-.81714-2.85889-1.22266-6.04053-.2326-1.82471-.95886-8.25684-.53973-14.41406.43585-6.40186,1.88574-8.74121,2.32874-9.03955,4.41589-1.97168,7.57623-3.896,10.11554-5.44141,1.92517-1.17236,3.91577-2.38379,4.68463-2.38379.20819,0,1.05176.11377,3.16162,1.57959,8.00101,5.55811,15.68271,8.26025,23.48419,8.26025,8.7674,0,16.3407-3.39697,23.66458-6.68213,5.94812-2.66797,12.09869-5.42676,18.94824-6.36328,3.04312-.4165,6.1207-.62744,9.14722-.62744M158.09826,89.96914c-3.18811,0-6.49713.20898-9.96033.68262-16.3183,2.23193-27.6228,12.99023-41.79971,12.99023-5.97879,0-12.46936-1.91406-20.06088-7.18799-2.70355-1.87793-4.71875-2.65186-6.58493-2.65186-4.3194,0-7.8399,4.14648-17.24634,8.34619-7.52466,3.35938-6.21686,22.45654-5.29468,29.69141,1.20715,9.47119,3.3399,11.6377,5.92957,11.6377,2.18573,0,4.69708-1.54443,7.25012-1.54443.95587,0,1.91779.21631,2.87073.81152.39429.24609.8985.79004,1.46747,1.53564,2.27869,2.98633,5.76196,4.54932,9.25906,4.54932,2.6958,0,5.40015-.92969,7.56512-2.85254.19534-.17334.3974-.34229.60693-.50586,3.32193-2.59619,6.50082-3.70068,9.45709-3.7002,4.35477,0,8.2254,2.39795,11.34943,5.95654,2.34479,2.6709,5.62927,4.02979,8.89932,4.02979,3.15323,0,6.29306-1.26416,8.5614-3.8335,3.35889-3.8042,7.24048-6.48877,12.95193-6.48877,2.19397.00049,4.65878.39648,7.46646,1.27783,8.63272,2.70947,14.03387,15.47314,18.83493,15.47314,7.76572,0,11.81656-15.3457,27.02701-16.39502.64896-.04492,1.27731-.06641,1.88861-.06641,17.56519.00098,19.92426,17.88086,26.92804,17.88086,5.44705,0,12.06348-15.79443,25.34869-17.62109,1.27853-.17578,2.48395-.2583,3.62476-.2583,17.64438.00098,19.50916,19.76416,26.89426,19.76416,7.85178,0,12.00748-17.65771,23.48447-19.48584,1.59814-.25439,3.06906-.375,4.43143-.375,6.11029,0,10.01657,2.42773,13.21017,6.0874,2.26959,2.60059,5.46194,3.89258,8.66742,3.89258,3.16422,0,6.34122-1.25928,8.65375-3.76221,3.56308-3.85596,7.56551-5.93018,11.63831-5.93018,3.17874,0,6.40053,1.26416,9.48859,3.93115,2.30925,1.99463,5.15479,2.98438,7.96332,2.98438,3.507,0,6.9558-1.54492,9.22467-4.60596.52924-.71387,1.00453-1.23828,1.39488-1.48193.92709-.5791,1.9601-.7959,3.02789-.7959,3.19563,0,6.69986,1.94385,8.5863,1.94385.35995,0,.66107-.0708.88986-.23926,4.1333-3.04541,6.69482-36.30859-.69487-40.75439-9.20906-5.54053-13.27238-9.34717-17.66589-9.34717-2.12317.00049-4.32401.88965-7.21887,2.90234-7.1862,4.99609-13.91122,6.81543-20.44629,6.81543-15.9682,0-30.80151-10.86279-48.45154-12.78662-3.13037-.34131-6.09641-.49414-8.9342-.49414-22.89243,0-37.27777,9.95996-59.45309,11.39648-1.78381.11572-3.52582.16992-5.23151.16992-24.96057,0-42.05103-11.58594-65.79886-11.58594h0Z" fill="#fafafb"/>
      <path d="M198.13732,153.01455h-.00009c3.05746,0,6.43494,1.71533,9.47992,4.79932,1.69916,1.86328,8.07953,13.00928,9.1254,16.17383v29.38379c0,2.53125-2.05945,4.59082-4.59085,4.59082h-25.54434c-3.58707,0-6.50534-2.91846-6.50534-6.50537v-25.9502c.82587-3.68652,8.88571-17.28418,11.29605-19.52881,2.1514-1.96631,4.41879-2.96338,6.73926-2.96338M198.13653,147.01455c-3.66254,0-7.35455,1.39795-10.78619,4.53418-3.38245,3.09131-13.24832,19.78125-13.24832,23.68115v26.22705c0,6.90674,5.59885,12.50537,12.50534,12.50537h25.54434c5.84918,0,10.59085-4.7417,10.59085-10.59082v-29.94287c0-2.55176-8.41089-17.35303-10.82587-19.79932-4.08997-4.14307-8.90924-6.61523-13.78015-6.61475h0Z" fill="#fafafb"/>
      <path d="M254.94107,147.1625v6h.00015c2.20129,0,4.27902.9209,6.35025,2.81396,2.41187,2.24609,10.47174,15.84375,11.29761,19.53027v25.77295c0,3.68457-2.9978,6.68262-6.68259,6.68262h-23.69193c-3.24054,0-5.87207-2.55176-5.991-5.80908-.09656-2.64453-.25867-5.34912-.41547-7.96436-.42023-7.01074-.85477-14.25977.05975-19.7793,1.53683-9.27637,11.06146-21.24561,19.0719-21.24707l.00131-6M254.93865,147.1625c-11.89713.00244-23.15036,15.16211-24.99011,26.26611-1.38455,8.35693-.08279,19.03369.27902,28.94336.23602,6.46533,5.51761,11.59033,11.987,11.59033h23.69193c7.00439,0,12.68259-5.67822,12.68259-12.68262v-26.0498c0-3.8999-9.86588-20.58984-13.24832-23.68115-3.37674-3.08594-6.91586-4.38672-10.4021-4.38623h0Z" fill="#fafafb"/>
      <path d="M309.83831,153.14102h-.00006c.53256,0,1.04752.06738,1.56763.20508,3.29282,1.98242,11.06094,14.80322,11.62521,18.42236v26.69189c0,2.22119-1.87637,4.09766-4.09738,4.09766h-25.59912c-1.84222,0-3.341-1.49902-3.341-3.34131v-18.58203c0-3.66943,2.33142-10.82812,6.78741-17.40967,4.27457-6.31396,9.15582-10.0835,13.05731-10.08398M311.29855,153.28457c.00018,0-.00018,0,0,0h0M309.83767,147.14102c-13.6084.00049-25.84409,22.75488-25.84409,33.49365v18.58203c0,5.15918,4.1821,9.34131,9.341,9.34131h25.59912c5.55356,0,10.09738-4.54395,10.09738-10.09766v-26.8335c0-4.74365-10.43539-22.396-15.70218-23.97168-1.16934-.34961-2.33505-.51416-3.49124-.51416h0Z" fill="#fafafb"/>
      <path d="M143.93298,146.9042v6c3.89227,0,8.30484,4.04834,12.10626,11.10791,3.92227,7.2832,6.19882,15.89258,6.65417,20.80957.43518,4.69922.45233,13.39209-.16479,17.73633h-32.25992c-.32709,0-.65652-.33398-.66513-.67432-.05594-2.21484-.14502-4.5293-.23935-6.979-.30295-7.86865-.6463-16.7876.22369-22.35059.61505-3.93262,7.96573-16.98145,11.06918-18.875,1.16074-.52148,2.23267-.7749,3.27493-.7749l.00095-6M143.93099,146.9042c-1.85483,0-3.79889.41992-5.82245,1.34229-5.05157,2.30225-13.62003,18.08301-14.44855,23.38037-1.23721,7.91113-.29984,20.69824-.0545,30.4082.09064,3.58789,3.07428,6.52295,6.66321,6.52295h35.72656c3.88269,0,3.01288-20.61475,2.67258-24.28955-1.09143-11.78516-10.25311-37.3667-24.73685-37.36426h0Z" fill="#fafafb"/>
      <path d="M145.87884,241.43838c.01187.00195.02441.00391.03766.00635l16.1579,2.66992c1.44589.23877,2.65674.36914,3.81494.41016.659.02344,1.27301.07178,1.87869.14844,3.27142.41357,5.7384,3.26514,5.73843,6.63281l.00006,19.19482c-.01413,1.39551-1.91342,6.58984-5.64749,11.97266-4.04404,5.82959-7.38965,7.7915-8.27249,7.79346-.99362-.13721-4.33182-2.45996-8.30807-8.76367-3.68713-5.8457-5.40497-11.0957-5.40497-12.80322v-27.22803c0-.0127.00201-.02393.00534-.03369M145.71493,235.42276c-.52448,0-1.04663.06641-1.54828.22168-2.48676.77002-4.29315,3.08789-4.29315,5.82764v27.22803c0,7.229,10.83505,26.81982,19.18655,27.54346.16727.01465.33487.02148.504.02148,8.77023,0,19.94247-19.20508,19.94247-25.76318l-.00006-19.1958c-.00003-6.35254-4.68393-11.78906-10.98624-12.58545-.77118-.09766-1.57153-.16211-2.42044-.19189-1.02252-.03662-2.03949-.16748-3.04895-.33398l-16.15607-2.66992c-.38965-.06445-.78537-.10205-1.17984-.10205h0Z" fill="#fafafb"/>
      <path d="M306.81759,241.49209v27.20801c0,1.72607-1.72693,7.00537-5.43365,12.85449-3.84793,6.07227-7.09525,8.42773-8.20932,8.70068-1.08679-.28125-4.34961-2.5625-8.34146-8.29395-3.83786-5.51025-5.59793-10.26758-5.64859-11.45947l.00003-21.03271c0-1.92041,1.2146-3.69238,3.16983-4.62402l.02969-.01416.02954-.01465.06671-.03271c.47998-.21729,2.62375-.90527,7.3024-1.9585,1.1936-.26904,2.41025-.44238,3.61594-.51611l13.41888-.81689M308.60089,235.37246l-15.5668.94775c-1.53931.09375-3.06516.3125-4.56967.65137-3.0499.68652-7.18988,1.71094-8.62225,2.42334-.02304.01123-.04602.02246-.06894.03369-3.93756,1.87646-6.58862,5.67822-6.58862,10.04053l-.00003,21.03271c0,6.4126,12.01987,25.76953,19.995,25.76953.14877,0,.29669-.00684.44254-.02051,8.38098-.78711,19.1955-20.28027,19.1955-27.55078v-29.11084c0-2.3291-1.88788-4.2168-4.21671-4.2168h0Z" fill="#fafafb"/>
      <path d="M213.50381,246.77676c1.78586,0,3.23874,1.45312,3.23874,3.23877v24.04688c-.10666,1.11182-1.7569,5.02197-5.30746,9.57812-3.62497,4.65137-6.56784,6.55908-7.58655,6.83887-1.02551-.32471-3.99353-2.49121-7.61621-7.70752-3.46384-4.9873-5.18631-9.35498-5.32129-10.5376v-22.21875c0-1.78564,1.45291-3.23877,3.23874-3.23877h19.35403M213.50381,240.77676h-19.35403c-5.10242,0-9.23874,4.13623-9.23874,9.23877v22.2876c0,5.51221,11.25177,24.19287,18.91544,24.19824h.0029c7.22638,0,18.91318-16.41064,18.91318-22.39697v-24.08887c0-5.10254-4.13632-9.23877-9.23874-9.23877h0Z" fill="#fafafb"/>
      <path d="M259.01504,246.77676c1.52463,0,2.76501,1.24023,2.76501,2.76514v22.69238c-.13498,1.18262-1.85745,5.55029-5.32126,10.5376-3.62268,5.21631-6.59073,7.38281-7.61621,7.70752-1.01874-.27979-3.96164-2.1875-7.58661-6.83887-3.5506-4.55615-5.20081-8.46631-5.30743-9.57812v-24.52051c0-1.5249,1.24039-2.76514,2.76505-2.76514h20.30145M259.01504,240.77676h-20.30145c-4.84079,0-8.76505,3.92432-8.76505,8.76514v24.5625c0,5.98633,11.68692,22.39697,18.91321,22.39697h.0029c7.66364-.00537,18.91541-18.68604,18.91541-24.19824v-22.76123c0-4.84082-3.92422-8.76514-8.76501-8.76514h0Z" fill="#fafafb"/>
      <path d="M101.10754,153.11953c.8295.11768,3.53802,1.9165,6.73328,6.78662,3.05017,4.64941,4.39948,8.81982,4.41467,9.91943v23.15137c0,2.30273-1.87357,4.17627-4.17648,4.17627h-13.7923c-2.31604,0-4.25571-1.82764-4.4158-4.16113-.88647-12.91943,2.29913-31.78516,8.28766-38.19971,1.52979-1.63867,2.57916-1.67236,2.94897-1.67285M101.12854,147.11953c-13.14554.00244-18.4231,29.09229-17.24356,46.2832.37631,5.48389,4.90482,9.75049,10.40173,9.75049h13.7923c5.62033,0,10.17648-4.55615,10.17648-10.17627v-23.15137c0-5.95215-9.34439-22.69287-17.11172-22.70605h-.01523Z" fill="#fafafb"/>
      <path d="M350.89541,146.68155v6c.40646,0,1.29239.44287,2.45146,1.69141,6.1183,6.58984,11.18814,25.63525,10.23532,38.44971-.18056,2.42822-2.26149,4.33057-4.73743,4.33057h-13.65636c-2.62071,0-4.75281-2.13232-4.75281-4.75293v-21.75293c.85669-2.49902,4.10815-10.52588,4.8756-11.98926,2.76842-4.72607,4.86209-5.97656,5.58417-5.97656l.00005-6M350.89503,146.68155c-3.41206,0-7.07372,2.62939-10.79126,8.99561-.90746,1.5542-5.66817,13.38623-5.66817,14.14844v22.57471c0,5.93896,4.81419,10.75293,10.75281,10.75293h13.65636c5.60442,0,10.30534-4.29688,10.72092-9.88574,1.29491-17.41504-7.30521-46.58691-18.67065-46.58594h0Z" fill="#fafafb"/>
      <path d="M339.06855,235.68741c1.26929,0,2.65698.09229,4.12616.18945.43477.02881.86966.05762,1.3042.08447.08702.00537.15019.06055.15019.13086v36.75928c-1.02791,1.48291-3.52209,4.27979-4.54654,5.03857-1.61482.98193-3.06552,1.47998-4.31284,1.47998-5.64709,0-10.90521-11.74561-11.66055-21.8501-.20581-2.75293-.40515-12.68359-.26556-17.5293.95322-.30762,2.03775-.61768,2.77625-.8291.64163-.18359,1.25171-.3584,1.79385-.52393,1.20776-.36768,2.2619-.79639,3.28131-1.21045,1.54642-.62891,2.88193-1.17139,4.79352-1.54443.672-.13135,1.50937-.19531,2.56001-.19531M339.06817,229.68741c-1.29527,0-2.54492.0791-3.7088.30615-3.89478.76025-6.05814,2.10742-8.67468,2.90479-2.68805.81934-7.13449,1.87793-8.40414,3.14746-.79919.79932-.37735,18.67529-.13467,21.92139.79639,10.65332,6.70856,27.40283,17.64386,27.40283,2.28616,0,4.79399-.7334,7.51816-2.40723,1.93591-1.18945,7.34122-7.31836,7.34122-8.8584v-38.01221c0-3.25195-2.53796-5.9209-5.78348-6.11963-1.94855-.11963-3.92102-.28516-5.79745-.28516h0Z" fill="#fafafb"/>
      <path d="M112.24136,236.66104h-.00006c.3486,0,.70349.04639,1.05612.13818.76883.19971,1.38257.3418,1.99088.46045,3.76367.73486,5.83835,1.18311,8.1824,1.89746,1.34958.41162,2.64716.59229,3.79199.75146.93466.13037,1.65656.2373,2.23944.39746.1611,1.81787.08475,5.56152-.71756,13.15332-.10327.97705-.18411,1.75537-.22186,2.24365-.84482,10.94238-6.15094,23.66162-11.72571,23.66162-1.21042,0-2.6394-.49609-4.24832-1.47461-1.02429-.75879-3.51871-3.55566-4.54669-5.03857l.00003-31.9126c0-2.55859,2.17136-4.27783,4.19934-4.27783M112.24096,230.66104c-5.46991,0-10.19894,4.48779-10.19894,10.27783l-.00003,33.16553c0,1.54004,5.4053,7.66895,7.34125,8.8584,2.71884,1.67041,5.19962,2.40186,7.45377,2.40186,11.31378,0,16.87772-18.44727,17.70792-29.19971.23492-3.04248,2.33566-18.2207-.30783-20.15918-2.99026-2.19287-6.32898-1.76855-9.01697-2.58789-2.61652-.79736-4.88751-1.28662-8.78232-2.04688-.55734-.10889-1.09747-.24023-1.63101-.37891-.86322-.22461-1.72321-.33105-2.56583-.33105h0Z" fill="#fafafb"/>
      <path d="M373.56071,230.09317c.06161,1.95215.14883,4.07324.23872,6.25879.33501,8.146.79382,19.30273-.1918,23.87891-.60052,2.78809-1.53383,2.78809-1.98235,2.78809-3.4035,0-9.10809-4.93457-9.71104-11.01465-.20996-2.11719-.43109-12.00537-.31664-17.35352.01848-.00439.0369-.00879.05518-.01318,2.18729-.5249,4.66641-1.12012,6.45857-1.69189,1.01686-.32422,1.96547-.87158,3.40137-1.70068.4641-.26758,1.22198-.70508,2.04799-1.15186M377.01623,222.5336c-3.42667,0-9.37401,4.26416-10.72787,4.6958-3.24583,1.03516-9.84918,2.35205-10.24635,2.72949-.82059.77979-.3981,19.61621-.09848,22.6377.89986,9.07373,9.1107,16.42236,15.68175,16.42236,3.59612,0,6.70123-2.20117,7.84787-7.5249,1.65102-7.66553,0-26.76855,0-36.02979,0-2.16113-1.00078-2.93115-2.45691-2.93066h0Z" fill="#fafafb"/>
      <path d="M78.57455,231.59903c1.71722,1.40332,3.3891,2.66992,5.32336,3.28662,2.05685.65576,4.33649.9082,6.34778,1.13086.49371.05469,1.09106.12109,1.66293.19531.05508,2.47803-.35034,7.00244-1.81314,12.38916-2.08517,7.67822-4.71948,11.03223-5.65054,11.44629-.17032.06006-.65533.19922-1.47845.19922-1.70834,0-3.18362-.59033-3.75009-1.01465-.0152-2.28174-.13684-5.4585-.27631-9.09961-.19391-5.06348-.50793-13.26123-.36554-18.5332M75.70797,222.88565c-1.07117,0-1.95306.7041-2.48999,2.57861-1.52496,5.32422,0,26.68164,0,34.22852,0,4.17627,5.18402,6.55371,9.7485,6.55371,1.24042,0,2.43521-.17578,3.46762-.53857,9.24417-3.24854,14.08673-32.48486,10.02042-34.5293-2.40854-1.21045-7.48761-.97412-10.73367-2.00928-2.57187-.82031-7.02814-6.28418-10.01288-6.28369h0Z" fill="#fafafb"/>
      <path d="M69.43093,155.91201c1.82037,3.44922,3.91766,7.62939,4.4884,9.04688.37091,2.43945.63647,12.30273.58942,17.32568-.00763.81934.02594,1.76318.06476,2.85645.05609,1.57812.17151,4.82422-.0509,6.79541-.57928.06006-1.3313.10645-2.25366.10645-1.58521,0-2.91101-.12988-3.901-.28906-.0592-2.63379-.17474-5.5332-.29492-8.54883-.35718-8.96191-.76178-19.11328.22925-24.85889.16638-.59033.59985-1.50195,1.12866-2.43408M70.28915,146.96963c-3.23779.00049-7.45746,7.84863-7.88019,10.24561-1.63568,9.27295,0,27.33203,0,37.83154,0,2.02002,5.23474,2.99609,9.85999,2.99609,2.83191,0,5.43561-.36621,6.46851-1.08252,2.73215-1.89551,1.73779-11.06787,1.77106-14.61963.03455-3.68896-.14685-15.98975-.76538-18.88623-.33612-1.57373-7.61169-15.62061-8.35931-16.13721-.34625-.23926-.71344-.34814-1.09467-.34766h0Z" fill="#fafafb"/>
      <path d="M383.02191,156.01992c1.55183,6.62402,2.30118,28.90723,1.52399,35.60254-1.03026.2666-2.82402.55225-5.31075.58545-.6282-7.51562-1.09933-23.35889-.64926-26.28027.2368-1.28516.78119-2.3667,1.53465-3.86377.37112-.7373.79176-1.57324,1.19182-2.48584.66426-1.51562,1.23296-2.67432,1.70955-3.55811M383.36874,147.68106c-2.98619,0-5.62096,5.08301-7.55177,9.48828-1.13806,2.59717-2.5752,4.6499-3.13181,7.67139-.73428,3.98682.24892,31.7168,1.37927,32.91504.21254.2251,2.18582.45557,4.68213.45557,4.39029,0,10.39752-.7124,11.28375-3.4165,1.71301-5.22656.6162-37.40088-1.95923-42.57471-1.62604-3.2666-3.20816-4.53906-4.70235-4.53906h0Z" fill="#fafafb"/>
    </g>
    <g opacity=".36">
      <path d="M73.44149,268.86152c3.40121,2.98846,8.51196,3.3017,13.4134,1.7065,4.28129-1.39336,8.92756.91762,10.48304,5.14271,4.35054,11.81723,18.99182,19.70138,29.85471,10.92015.24082-.19467.47028-.3951.6896-.60052,4.1544-3.89107,10.73849-3.05112,13.53175,1.90843,8.76091,15.55533,22.81906,18.40165,33.97807,4.23047,3.49532-4.43882,10.18652-4.2235,13.58135.29263,3.53782,4.70635,8.0396,8.53988,13.53612,9.24657,14.74239,1.89546,17.50117-14.58725,23.17507-14.52205,4.63061.05321,7.4379,7.68267,11.05145,9.46269,11.01904,9.27794,20.39657,4.49629,27.03775-4.23482,3.38498-4.45021,10.05105-4.48067,13.51528-.09187,11.06536,14.0186,25.37561,11.03914,34.09193-4.48986,2.99706-5.33957,10.4299-5.96391,14.20666-1.14422l.72746.92835c9.98274,7.00519,23.32219.4438,28.11278-9.66945,2.00435-4.23131,7.10573-6.18869,11.29143-4.09074.35055.1757.71707.32206,1.10364.43104,5.43466,1.53209,9.40889-.58165,12.28865-3.56994,4.41834-4.58486,12.04924-2.99804,14.2505,2.97666,2.47041,6.70523,3.51471,24.8032,2.28375,30.90525-1.14589,5.68033-12.68873,10.98792-17.06257,15.35031-13.5194,13.48403-17.67387,23.13908-37.51741,30.93962-42.40442,16.66928-78.88249-7.15-119.31872-5.80901-35.86847,1.18951-67.30562,20.68275-105.78679,6.87832-23.60507-8.4679-37.59383-31.41261-58.07096-44.61339-1.88845-6.39163-1.20493-23.83793.34559-30.2071.19585-.80448.91888-2.7615,1.93357-5.07276,2.28436-5.20331,9.00397-6.95486,13.2729-3.20399Z" fill="#fafafb"/>
      <path d="M391.99341,143.65315c-1.82855,1.34716-8.27302-3.55105-12.50409-.9086-.39036.24379-.86564.76808-1.39489,1.4821-4.08587,5.51227-11.99513,6.10604-17.18801,1.62123-7.04461-6.08406-14.78282-4.86595-21.12685,1.99935-4.65519,5.03769-12.81117,5.03759-17.3212-.13046-3.90564-4.47547-8.87554-7.10845-17.64153-5.71235-11.47707,1.82787-15.63276,19.48594-23.48451,19.48594-7.86258,0-9.46635-22.40138-30.519-19.50619-13.28526,1.82701-19.90166,17.62138-25.34872,17.62138-7.24749,0-9.51998-19.14611-28.81663-17.81481-15.21045,1.04938-19.2613,16.39524-27.02698,16.39524-4.80105,0-10.20226-12.76368-18.83493-15.47321-10.11683-3.17536-15.76929-.0547-20.41843,5.21109-4.62069,5.23357-12.85495,5.05038-17.46072-.19632-5.24482-5.97468-12.59118-8.67671-20.80656-2.25657-.20948.16371-.41157.33257-.60691.50606-4.97351,4.41733-12.78897,3.59141-16.82419-1.69684-.56899-.74568-1.07318-1.28937-1.46749-1.53563-6.51341-4.06778-13.44292,9.55298-16.05039-10.90456-.92215-7.23495-2.22996-26.33247,5.29465-29.69187,13.47045-6.01395,14.87015-11.91941,23.83129-5.69399,25.59251,17.77946,38.66045-2.62897,61.86061-5.80246,31.02307-4.24357,49.59852,12.76745,80.99073,10.73356,24.92421-1.61483,40.0042-13.99577,68.38726-10.90247,24.87343,2.71081,44.15244,23.17511,68.89785,5.97137,8.88527-6.17731,11.22539-1.77287,24.88471,6.44473,7.38972,4.44574,4.82817,37.70917.69493,40.75429Z" fill="#fafafb"/>
      <path d="M212.15171,213.96237h-25.54434c-6.90651,0-12.50534-5.59883-12.50534-12.50534v-26.22693c0-3.90009,9.86586-20.59022,13.24832-23.68137,7.99549-7.30691,17.40104-5.17778,24.56633,2.0804,2.41499,2.44629,10.82587,17.24771,10.82587,19.79948v29.94293c0,5.84916-4.74168,10.59084-10.59084,10.59084Z" fill="#fafafb"/>
      <path d="M229.94855,173.4286c2.37882-14.35789,20.49208-35.49678,35.39221-21.87987,3.38246,3.09115,13.24832,19.78129,13.24832,23.68137v26.04969c0,7.00439-5.67818,12.68258-12.68258,12.68258h-23.69192c-6.46939,0-11.75098-5.12517-11.98702-11.59025-.3618-9.90989-1.66358-20.58665-.27901-28.94352Z" fill="#fafafb"/>
      <path d="M293.33458,208.55786c-5.1589,0-9.34101-4.18211-9.34101-9.34101v-18.58225c0-11.65075,14.4027-37.44623,29.33533-32.97926,5.2668,1.57552,15.70219,19.2281,15.70219,23.97176v26.83337c0,5.55357-4.54383,10.0974-10.0974,10.0974h-25.59911Z" fill="#fafafb"/>
      <path d="M123.66,171.6271c.82851-5.29751,9.39696-21.07848,14.44855-23.38058,17.82474-8.12307,29.3281,22.7275,30.5593,36.02212.3403,3.67458,1.2101,24.28923-2.67258,24.28923l-35.72656.00006c-3.58894,0-6.57258-2.93489-6.66322-6.52268-.24533-9.7103-1.18271-22.49735.05451-30.40814Z" fill="#fafafb"/>
      <path d="M168.52022,238.72059c6.30233.79657,10.98622,6.23306,10.98624,12.58553l.00007,19.1955c0,6.68503-11.6067,26.50793-20.44649,25.74201-8.35148-.72361-19.18653-20.31445-19.18653-27.54351v-27.22819c0-2.73979,1.80638-5.05767,4.29314-5.82764.87892-.27214,1.82033-.26963,2.72811-.11962l16.15607,2.66986c1.00947.16682,2.02643.29758,3.04894.33399.84891.03023,1.64926.09461,2.42044.19208Z" fill="#fafafb"/>
      <path d="M308.60089,235.37236c2.32882,0,4.2167,1.88788,4.2167,4.2167v29.11106c0,7.27047-10.8145,26.76347-19.19548,27.55069-7.96447.7481-20.43754-19.21694-20.43754-25.74919l.00002-21.03271c0-4.36187,2.65106-8.164,6.58863-10.04052.0229-.01091.04588-.0221.06894-.03356,1.43236-.71216,5.57234-1.73682,8.62224-2.42339,1.50452-.33869,3.03036-.55759,4.56969-.65131l15.56679-.94777Z" fill="#fafafb"/>
      <path d="M213.5038,240.77686c5.10242,0,9.23875,4.13633,9.23875,9.23875v24.08902c0,5.98726-11.69003,22.40113-18.91609,22.39651-7.66366-.0049-18.91543-18.68563-18.91543-24.19801v-22.28752c0-5.10242,4.13633-9.23875,9.23875-9.23875h19.35402Z" fill="#fafafb"/>
      <path d="M259.01503,240.77686c4.8408,0,8.76504,3.92424,8.76504,8.76504v22.76123c0,5.51238-11.25177,24.19311-18.91543,24.19801-7.22606.00462-18.91609-16.40925-18.91609-22.39651v-24.56273c0-4.8408,3.92424-8.76504,8.76504-8.76504h20.30144Z" fill="#fafafb"/>
      <path d="M108.079,203.15339l-13.79229.00003c-5.49692.00001-10.02544-4.26683-10.40174-9.75085-1.18006-17.19798,4.1009-46.30566,17.25879-46.28322,7.76735.01325,17.11174,16.75408,17.11174,22.70625v23.15127c0,5.62033-4.55617,10.17651-10.1765,10.17652Z" fill="#fafafb"/>
      <path d="M358.84476,203.15337h-13.65634c-5.93862-.00001-10.75283-4.81422-10.75283-10.75284v-22.57494c0-.76207,4.76073-12.59428,5.66818-14.14826,16.1005-27.57169,31.14556,14.94669,29.4619,37.58996-.41557,5.58898-5.11651,9.88609-10.72091,9.88608Z" fill="#fafafb"/>
      <path d="M344.8656,229.97236c3.24553.19897,5.7835,2.86805,5.7835,6.11967v38.01259c0,1.53986-5.40531,7.66876-7.34122,8.85826-15.75457,9.68021-24.19917-12.11549-25.16202-24.99587-.24266-3.24613-.66451-21.12206.13468-21.92125,1.26967-1.26967,5.71611-2.32802,8.40416-3.14733,2.61653-.79751,4.77988-2.14451,8.67468-2.90471,2.84992-.55625,6.21262-.22329,9.50622-.02137Z" fill="#fafafb"/>
      <path d="M102.04201,240.93903c0-6.68211,6.29798-11.62965,12.76478-9.94706.53353.13882,1.07367.27032,1.63102.3791,3.8948.76019,6.16579,1.24951,8.78232,2.04703,2.68799.81929,6.0267.39461,9.01695,2.58746,2.64351,1.93857.54276,17.11677.30783,20.15939-.99563,12.89485-8.79675,36.85354-25.16168,26.79793-1.93592-1.18955-7.34123-7.31837-7.34123-8.85826l.00002-33.16559Z" fill="#fafafb"/>
      <path d="M379.47312,261.49412c-3.24181,15.05187-22.13729,5.14187-23.52959-8.89773-.29962-3.02133-.72211-21.85783.09848-22.63743.39717-.37733,7.00051-1.69428,10.24634-2.72938,1.92922-.61523,13.18477-9.01188,13.18477-1.76548,0,9.26161,1.65104,28.36418,0,36.03002Z" fill="#fafafb"/>
      <path d="M73.21798,225.4641c2.0331-7.09853,9.00802,2.59065,12.50288,3.70522,3.24605,1.03523,8.32512.79862,10.73365,2.00939,4.06633,2.04415-.77624,31.2807-10.02039,34.52907-4.8315,1.69778-13.21614-.70377-13.21614-6.01517,0-7.54684-1.52497-28.90409,0-34.22852Z" fill="#fafafb"/>
      <path d="M62.40898,157.21509c.47252-2.67886,5.68821-12.1689,8.97485-9.89796.7476.51656,8.02317,14.56352,8.35928,16.13746.61858,2.89664.79995,15.19728.76541,18.88609-.03325,3.55173.96108,12.72395-1.77105,14.61949-2.71984,1.88701-16.32848,1.34367-16.32848-1.91356,0-10.49928-1.63568-28.55835,0-37.83152Z" fill="#fafafb"/>
      <path d="M374.06443,197.75585c-1.13035-1.19814-2.11354-28.92855-1.37926-32.91489.5566-3.02169,1.99374-5.07467,3.13179-7.6714,2.89691-6.60998,7.37842-14.74434,12.25412-4.94934,2.57543,5.17389,3.67224,37.34793,1.95924,42.57469-1.39015,4.24167-15.37955,3.58245-15.9659,2.96094Z" fill="#fafafb"/>
    </g>
  </g>
  <g opacity=".27">
    <path d="M236.53547,65.79043c-5.60466,2.23794-12.12648,2.3447-17.79236.25889,0-.0001.01502-.07383.01502-.07383,5.83098,1.27984,12.09346.92022,17.77734-.18506h0Z" fill="#fff"/>
  </g>
  <g clip-path="url(#clippath-1)">
    <polygon points="34.35011 536.11141 -361.4889 131.13139 -706.7249 131.13139 -310.88582 536.11141 34.35011 536.11141" fill="#1e1e1e" opacity=".1"/>
  </g>
  <g opacity=".08">
    <path d="M354.39837,1.99991c54.36911,0,98.60162,44.23242,98.60162,98.60156v253.79688c0,54.36914-44.23251,98.60156-98.60162,98.60156H100.60162c-54.36913,0-98.60162-44.23242-98.60162-98.60156V100.60147C1.99999,46.23233,46.23249,1.99991,100.60162,1.99991h253.79675M354.39837-.00009H100.60162C45.04087-.00009,0,45.04092,0,100.60147v253.79688C0,409.95889,45.04087,454.99991,100.60162,454.99991h253.79675c55.56076,0,100.60162-45.04102,100.60162-100.60156V100.60147C454.99999,45.04092,409.95913-.00009,354.39837-.00009h0Z" fill="#101010"/>
  </g>
</svg>