<?xml version="1.0" encoding="UTF-8"?>
<svg id="Layer_1" data-name="Layer 1" xmlns="http://www.w3.org/2000/svg" width="455" height="455" viewBox="0 0 455 455">
  <rect width="455" height="455" rx="100.60165" ry="100.60165" fill="#d3d3d3"/>
  <path d="M348.9116,109.81756c-64.99414-67.05371-172.04053-68.72327-239.09375-3.729-67.0542,64.99426-68.72363,172.04028-3.72949,239.09399l-.00391.00415,106.44043,109.81323h141.87354c55.56055,0,100.60156-45.04077,100.60156-100.60156v-135.13074l-106.08838-109.45007Z" fill="#1d1d1d" opacity=".1"/>
  <g>
    <path d="M232.49998,62.41449c-93.3833,0-169.08545,75.70215-169.08545,169.08545s75.70215,169.08569,169.08545,169.08569,169.08545-75.70227,169.08545-169.08569S325.88328,62.41449,232.49998,62.41449ZM338.78513,195.03119l-96.78516,47.40515v23.80774c0,5.24707-4.25293,9.5-9.5,9.5s-9.5-4.25293-9.5-9.5v-14.50159l-6.35156,3.11096c-1.98145.96973-4.08105,1.42969-6.14746,1.42969-5.17676,0-10.15332-2.88184-12.58398-7.84473-3.40039-6.94336-.52832-15.33008,6.41504-18.73145l18.66797-9.14355v-123.18945c0-5.24707,4.25293-9.5,9.5-9.5s9.5,4.25293,9.5,9.5v113.8833l84.46875-41.37256c6.94336-3.40039,15.33008-.5293,18.73145,6.41504,3.40039,6.94336.52832,15.33008-6.41504,18.73145Z" fill="#e3e6ee"/>
    <circle cx="232.5" cy="231.50006" r="6.12601" fill="#e3e6ee"/>
    <polygon points="249.64421 198.0697 236.99998 198.0697 236.99998 207.25726 241.99998 211.25726 249.64421 198.0697" fill="#e3e6ee"/>
    <polygon points="236.7016 227.05003 228.05349 235.70553 222.99998 231.50006 229.85079 221.84188 236.7016 227.05003" fill="#e3e6ee"/>
    <polygon points="222.99998 261.20013 217.99998 261.20013 217.99998 247.74249 222.99998 251.74249 222.99998 261.20013" fill="#e3e6ee"/>
  </g>
  <g opacity=".09">
    <path d="M354.39841,3.00006c53.81787,0,97.60156,43.78394,97.60156,97.60156v253.79675c0,53.81763-43.78369,97.60156-97.60156,97.60156H100.60154c-53.81787,0-97.60156-43.78394-97.60156-97.60156V100.60162C2.99998,46.78399,46.78367,3.00006,100.60154,3.00006h253.79688M354.39841.00006H100.60154C45.04099.00006-.00002,45.04095-.00002,100.60162v253.79675C-.00002,409.95916,45.04099,454.99994,100.60154,454.99994h253.79688c55.56055,0,100.60156-45.04077,100.60156-100.60156V100.60162C454.99998,45.04095,409.95896.00006,354.39841.00006h0Z" fill="#232323"/>
  </g>
  <path d="M448.99998,213.07757v141.3208c0,52.16357-42.43848,94.60156-94.60254,94.60156h-147.68848l5.81592,6h141.87354c55.56055,0,100.60156-45.04077,100.60156-100.60156v-135.13074l-6-6.19006Z" fill="#1d1d1d" opacity=".1"/>
  <path d="M227.49998,58.41449c-93.3833,0-169.08545,75.70215-169.08545,169.08545s75.70215,169.08569,169.08545,169.08569,169.08545-75.70227,169.08545-169.08569S320.88328,58.41449,227.49998,58.41449ZM333.78513,191.03119l-96.78516,47.40515v23.80774c0,5.24707-4.25293,9.5-9.5,9.5s-9.5-4.25293-9.5-9.5v-14.50159l-6.35156,3.11096c-1.98145.96973-4.08105,1.42969-6.14746,1.42969-5.17676,0-10.15332-2.88184-12.58398-7.84473-3.40039-6.94336-.52832-15.33008,6.41504-18.73145l18.66797-9.14355v-123.18945c0-5.24707,4.25293-9.5,9.5-9.5s9.5,4.25293,9.5,9.5v113.8833l84.46875-41.37256c6.94336-3.40039,15.33008-.5293,18.73145,6.41504,3.40039,6.94336.52832,15.33008-6.41504,18.73145Z" fill="#fff"/>
  <circle cx="227.5" cy="227.50006" r="6.12601" fill="#fffcfc"/>
  <path d="M100.60156,6h253.79688c52.21202,0,94.60156,42.38954,94.60156,94.60156v253.7959c0,52.21256-42.38998,94.60254-94.60254,94.60254H100.60156c-52.21202,0-94.60156-42.38954-94.60156-94.60156V100.60156C6,48.38954,48.38954,6,100.60156,6Z" transform="translate(455) rotate(90)" fill="none" opacity=".46" stroke="#e8e7e7" stroke-miterlimit="10" stroke-width="1.5"/>
</svg>