<?xml version="1.0" encoding="UTF-8"?>
<svg id="Layer_1" data-name="Layer 1" xmlns="http://www.w3.org/2000/svg" width="455" height="455" xmlns:xlink="http://www.w3.org/1999/xlink" viewBox="0 0 455 455">
  <defs>
    <clipPath id="clippath">
      <rect y="510.26087" width="455" height="455" rx="100.60165" ry="100.60165" fill="none"/>
    </clipPath>
    <clipPath id="clippath-1">
      <rect y="0" width="455" height="455" rx="100.60165" ry="100.60165" fill="none"/>
    </clipPath>
    <clipPath id="clippath-2">
      <path d="M3.52531,203.80956c45.86035,0,88.854-7.23242,121.06104-20.36475,29.49854-12.02783,46.41699-27.76855,46.41699-43.18604,0-15.41748-16.91846-31.1582-46.41699-43.18628-32.20703-13.13232-75.20068-20.36475-121.06104-20.36475-45.86084,0-88.85449,7.23242-121.06152,20.36475-29.49854,12.02783-46.41699,27.7688-46.41699,43.18628,0,15.41748,16.91846,31.1582,46.41699,43.18604,32.20703,13.13232,75.20068,20.36475,121.06152,20.36475Z" fill="none"/>
    </clipPath>
    <linearGradient id="linear-gradient" x1="230.85374" y1="247.77956" x2="264.81661" y2="233.36317" gradientUnits="userSpaceOnUse">
      <stop offset="0" stop-color="#231f20"/>
      <stop offset=".34916" stop-color="#231f20"/>
      <stop offset=".77366" stop-color="#5c5b5e"/>
      <stop offset="1" stop-color="#7d7e81"/>
    </linearGradient>
    <clipPath id="clippath-3">
      <path d="M276.72565,140.25878c0-36.33838,66.43701-66.34692,152.48389-70.93945V-35.43312H26.42683v104.75244c86.04688,4.59253,152.48389,34.60107,152.48389,70.93945S112.4737,206.6057,26.42683,211.19823v299.0625h402.78271V211.19823c-86.04688-4.59253-152.48389-34.60107-152.48389-70.93945Z" fill="none"/>
    </clipPath>
    <linearGradient id="linear-gradient-2" x1="230.76118" y1="247.77956" x2="264.72405" y2="233.36317" xlink:href="#linear-gradient"/>
    <clipPath id="clippath-4">
      <path d="M3.52531,203.80956c45.86035,0,88.854-7.23242,121.06104-20.36475,29.49854-12.02783,46.41699-27.76855,46.41699-43.18604,0-15.41748-16.91846-31.1582-46.41699-43.18628-32.20703-13.13232-75.20068-20.36475-121.06104-20.36475-45.86084,0-88.85449,7.23242-121.06152,20.36475-29.49854,12.02783-46.41699,27.7688-46.41699,43.18628,0,15.41748,16.91846,31.1582,46.41699,43.18604,32.20703,13.13232,75.20068,20.36475,121.06152,20.36475Z" fill="none"/>
    </clipPath>
    <linearGradient id="linear-gradient-3" x1="231.85374" x2="265.81661" y2="233.36317" xlink:href="#linear-gradient"/>
    <clipPath id="clippath-5">
      <path d="M452.36969,203.80956c-45.86035,0-88.854-7.23242-121.06104-20.36475-29.49854-12.02783-46.41699-27.76855-46.41699-43.18604s16.91846-31.1582,46.41699-43.18628c32.20703-13.13232,75.20068-20.36475,121.06104-20.36475s88.85449,7.23242,121.06152,20.36475c29.49854,12.02783,46.41699,27.7688,46.41699,43.18628s-16.91846,31.1582-46.41699,43.18604c-32.20703,13.13232-75.20068,20.36475-121.06152,20.36475Z" fill="none"/>
    </clipPath>
    <linearGradient id="linear-gradient-4" x1="230.92718" x2="264.89006" y2="233.36317" xlink:href="#linear-gradient"/>
    <clipPath id="clippath-6">
      <path d="M452.36969,203.80956c-45.86035,0-88.854-7.23242-121.06104-20.36475-29.49854-12.02783-46.41699-27.76855-46.41699-43.18604s16.91846-31.1582,46.41699-43.18628c32.20703-13.13232,75.20068-20.36475,121.06104-20.36475s88.85449,7.23242,121.06152,20.36475c29.49854,12.02783,46.41699,27.7688,46.41699,43.18628s-16.91846,31.1582-46.41699,43.18604c-32.20703,13.13232-75.20068,20.36475-121.06152,20.36475Z" fill="none"/>
    </clipPath>
    <linearGradient id="linear-gradient-5" x1="161.1722" y1="240.22008" x2="351.63348" y2="240.22008" gradientUnits="userSpaceOnUse">
      <stop offset=".45587" stop-color="#ededee" stop-opacity="0"/>
      <stop offset=".85957" stop-color="#656263" stop-opacity=".13425"/>
      <stop offset=".95978" stop-color="#231f20" stop-opacity=".2"/>
    </linearGradient>
    <clipPath id="clippath-7">
      <path d="M3.52531,203.80956c45.86035,0,88.854-7.23242,121.06104-20.36475,29.49854-12.02783,46.41699-27.76855,46.41699-43.18604s-16.91846-31.1582-46.41699-43.18628c-32.20703-13.13232-75.20068-20.36475-121.06104-20.36475-45.86084,0-88.85449,7.23242-121.06152,20.36475-29.49854,12.02783-46.41699,27.7688-46.41699,43.18628s16.91846,31.1582,46.41699,43.18604c32.20703,13.13232,75.20068,20.36475,121.06152,20.36475Z" fill="none"/>
    </clipPath>
    <linearGradient id="linear-gradient-6" x1="-697.46119" y1="240.22008" x2="-506.99991" y2="240.22008" gradientTransform="translate(-402.73839) rotate(-180) scale(1 -1)" gradientUnits="userSpaceOnUse">
      <stop offset=".45587" stop-color="#ededee" stop-opacity="0"/>
      <stop offset=".85957" stop-color="#656263" stop-opacity=".13425"/>
      <stop offset=".95978" stop-color="#231f20" stop-opacity=".2"/>
    </linearGradient>
    <clipPath id="clippath-8">
      <path d="M452.36969,203.80956c-45.86035,0-88.854-7.23242-121.06104-20.36475-29.49854-12.02783-46.41699-27.76855-46.41699-43.18604,0-15.41748,16.91846-31.1582,46.41699-43.18628,32.20703-13.13232,75.20068-20.36475,121.06104-20.36475s88.85449,7.23242,121.06152,20.36475c29.49854,12.02783,46.41699,27.7688,46.41699,43.18628,0,15.41748-16.91846,31.1582-46.41699,43.18604-32.20703,13.13232-75.20068,20.36475-121.06152,20.36475Z" fill="none"/>
    </clipPath>
    <linearGradient id="linear-gradient-7" x1="1862.27977" y1="247.77956" x2="1896.24265" y2="233.36317" gradientTransform="translate(2087.32103) rotate(-180) scale(1 -1)" xlink:href="#linear-gradient"/>
    <clipPath id="clippath-9">
      <path d="M3.52531,203.80956c45.86035,0,88.854-7.23242,121.06104-20.36475,29.49854-12.02783,46.41699-27.76855,46.41699-43.18604s-16.91846-31.1582-46.41699-43.18628c-32.20703-13.13232-75.20068-20.36475-121.06104-20.36475-45.86084,0-88.85449,7.23242-121.06152,20.36475-29.49854,12.02783-46.41699,27.7688-46.41699,43.18628s16.91846,31.1582,46.41699,43.18604c32.20703,13.13232,75.20068,20.36475,121.06152,20.36475Z" fill="none"/>
    </clipPath>
    <linearGradient id="linear-gradient-8" x1="610.01707" y1="240.22008" x2="800.47835" y2="240.22008" gradientTransform="translate(904.73987) rotate(-180) scale(1 -1)" xlink:href="#linear-gradient-5"/>
  </defs>
  <g clip-path="url(#clippath)">
    <polyline points="521.52102 1054.99639 521.52102 454.0455 -79.42987 454.0455 -79.42987 1054.99639" fill="#b7b7b7"/>
  </g>
  <g clip-path="url(#clippath-1)">
    <g>
      <polyline points="521.00478 544.75578 521.00478 -56.1951 -79.9461 -56.1951 -79.9461 544.75578" fill="#fdbf5b"/>
      <path d="M449.67418,195.65555l71.3251,234.67446-65.11129,114.05768-255.78683-93.73527-23.07784-25.05717c-.05841.00977-.11737.01953-.16455.00049-.09967-.11377-.21143-.21533-.32019-.32031-2.03259-1.96118-3.99121-3.14844-6.08374-5.44727-8.8999-9.77686-16.20544-24.96875-21.2829-37.18018-12.83228-30.86133-18.37799-68.63794-17.15399-102.05981.52075-14.21924,2.88324-27.41846,2.26782-41.97632-.87231-20.63232-9.78003-33.78223-16.90356-52.29688-8.60254-22.35889-17.37628-50.8042-13.10736-74.79956,3.11377-17.50269,17.77863-51.41919,33.42114-60.76099,13.55658-8.09595,31.16168-3.75732,45.09253,1.21436,25.17664,8.98535,37.10822,22.60889,65.69086,9.99609,20.24451-8.93359,50.5921-25.72363,70.86719-8.38794,1.3866,1.18579,2.13782,2.20386,3.20203,3.20435l127.1256,138.87427Z" fill="#1e1e1e" opacity=".1"/>
      <path d="M297.69139,405.08839l-.64039.32043c.24224-.41226.62243-.28944.64039-.32043Z" fill="#f6c5cf"/>
      <path d="M298.65198,402.84538c.24483-.43744.55765-.81011.64039-.96129l-.64039.96129Z" fill="#f6c5cf"/>
      <path d="M449.67416,195.65555v158.39478c0,53.2666-43.33496,96.60205-96.60156,96.60205h-152.97144l257.17813,98.28632,68.86957-122.34241-76.47469-230.94074Z" fill="#1e1e1e" opacity=".1"/>
    </g>
    <rect x="3.1959" y="4.00021" width="447" height="447" rx="96.60156" ry="96.60156" transform="translate(454.19611 .80431) rotate(90)" fill="none" opacity=".46" stroke="#e8e8e8" stroke-miterlimit="10"/>
    <g opacity=".19">
      <path d="M353.59421,0C409.155,0,454.19577,45.04101,454.19577,100.60155v253.79688c0,55.56079-45.04077,100.60156-100.60156,100.60156H99.79758c-55.56079,0-100.60181-45.04077-100.60181-100.60156V100.60155C-.80423,45.04101,44.23679,0,99.79758,0h253.79663M353.59421-1.00001H99.79758C43.77414-1.00001-1.80423,44.57836-1.80423,100.60155v253.79688c0,56.02319,45.57837,101.60156,101.60181,101.60156h253.79663c56.02319,0,101.60156-45.57837,101.60156-101.60156V100.60155c0-56.02319-45.57837-101.60156-101.60156-101.60156h0Z" fill="#504e4d"/>
    </g>
    <path d="M117.48906,88.38476c0-2.17188-2.71069-3.93213-6.05444-3.93213-.23218,0-.46045.01025-.68579.02686l-25.92236-.1626-.05566,7.99927,26.979.02246-.00269-.03198c3.19751-.1062,5.74194-1.81885,5.74194-3.92188Z" fill="#fdbf5b"/>
    <path d="M125.02167,189.23813c0,2.17188-2.71069,3.93213-6.05444,3.93213-.23218,0-.46045-.01025-.68579-.02686l-25.92236.1626-.05566-7.99927,26.979-.02246-.00269.03198c3.19751.1062,5.74194,1.81885,5.74194,3.92188Z" fill="#fdbf5b"/>
  </g>
  <g clip-path="url(#clippath-2)">
    <g>
      <path d="M337.33812,186.11837c8.60254-22.35889,17.37622-50.8042,13.10742-74.79956-3.11377-17.50256-17.77869-51.41919-33.42114-60.76086-13.55664-8.09607-31.16174-3.75745-45.09253,1.21423-17.94427,6.40417-29.26392,15.10254-44.47192,15.10254s-26.52765-8.69836-44.47192-15.10254c-13.93079-4.97168-31.53589-9.3103-45.09247-1.21423-15.64252,9.34167-30.30737,43.2583-33.4212,60.76086-4.26886,23.99536,4.50488,52.44067,13.10742,74.79956,7.12354,18.51465,16.03125,31.66467,16.9035,52.297.61548,14.55774-1.74701,27.75696-2.26776,41.9762-1.224,33.42188,4.32172,71.19836,17.15393,102.05994,5.07745,12.2113,12.383,27.40308,21.28296,37.18005,2.09253,2.29883,4.5741,4.83875,7.17493,6.08813,2.91772,1.37231,5.65259,2.10144,7.20459-1.60205,2.2356-5.33447-.67065-16.37366-1.39551-22.31543-2.64398-21.67346-1.13116-41.20081,2.2948-62.65979,5.07263-31.77313,16.85486-61.2345,30.4624-90.09351,2.78748-5.70032,6.7113-9.25732,11.06262-9.25732,4.40137,0,8.36584,3.63824,11.15881,9.45398,13.5683,28.79614,25.30847,58.19586,30.36957,89.89685,3.42603,21.45898,4.93884,40.98633,2.2948,62.65979-.72479,5.94177-3.6311,16.98096-1.39545,22.31543,1.55194,3.70349,4.2868,2.97437,7.20453,1.60205,2.60089-1.24939,5.08246-3.78931,7.17499-6.08813,8.90002-9.77698,16.20544-24.96875,21.28296-37.18005,12.83215-30.86157,18.37793-68.63806,17.15393-102.05994-.52075-14.21924-2.8833-27.41846-2.26782-41.9762.87231-20.63232,9.78003-33.78235,16.90356-52.297Z" fill="#fcc25e"/>
      <path d="M337.33812,186.2043c8.60254-22.35889,17.37622-50.8042,13.10742-74.79956-2.85132-16.02759-15.39014-45.80603-29.49463-57.88696-2.04425,10.49646-9.60944,15.09198-24.65295,25.0578-15.9483,10.56525-25.65216,26.83362-25.65216,59.07214,0,26.79742-7.20654,41.83002-43.34888,41.83002-28.85767,0-45.21924,16.65814-52.57318,45.15405-7.74585,32.22925-19.10455,98.44214-10.60962,152.25488,2.39551,16.7218,6.96985,33.47144,13.71521,48.91895,2.91772,1.37231,5.65259,2.10132,7.20459-1.60205,2.2356-5.33447-.67065-16.37378-1.39551-22.31543-2.64398-21.67358-1.13116-41.20093,2.2948-62.65991,5.13635-32.17212,17.15137-61.97443,30.97559-91.18073,2.7464-5.11157,6.45892-8.25592,10.54944-8.25592,4.10358,0,7.82678,3.16412,10.57581,8.30469,13.81445,29.19073,25.81909,58.97772,30.95258,91.13196,3.42603,21.45898,4.93884,40.98633,2.2948,62.65991-.72479,5.94165-3.6311,16.98096-1.39545,22.31543,1.55194,3.70337,4.2868,2.97437,7.20453,1.60205,2.60089-1.24951,5.08246-3.78931,7.17499-6.08813,8.90002-9.7771,16.20544-24.96875,21.28296-37.18018,12.83215-30.86157,18.37793-68.63794,17.15393-102.05981-.52075-14.21924-2.8833-27.41846-2.26782-41.97632.87231-20.63232,9.78003-33.78223,16.90356-52.29688Z" fill="#e4e7ef"/>
      <path d="M191.44419,78.36319c-1.76562-.01074-3.53857.01855-5.30737.0166-9.09277-.01025-19.22559.26416-24.98413,8.49268-12.3418,17.63574-10.2041,50.00391-8.35522,70.70703.58276,6.5249,1.95557,13.10742,2.53955,19.521.02905.3208.26562,1.02783-.24731.9624-6.22046-17.95947-13.86475-36.1748-17.38281-54.94482-2.6687-14.23828-5.22681-42.35889,9.38623-50.88867,13.29712-7.76172,28.99829-1.09131,41.68262,4.65283.84326.38184,2.05103.81836,2.66846,1.48096Z" fill="#faf4ed" opacity=".16"/>
      <path d="M283.17748,280.99306c-8.66327-29.28021-23.80176-63.1864-48.74078-82.34125-.02184-.01518-.0437-.03029-.06558-.04533-2.92236-2.00925-6.90637.20628-6.9065,3.75273l-.00136,36.65759c.00061,0,.0011.00012.00171.00012v.79657c4.10248.00177,7.82471,3.16589,10.573,8.30554,13.81427,29.19037,25.8186,58.97699,30.95203,91.13104,3.42596,21.45892,4.93878,40.98627,2.2948,62.65973-.72485,5.94183-3.6311,16.98102-1.39551,22.31555,1.552,3.70343,4.28687,2.97424,7.20453,1.60199,6.74542-15.44751,11.31976-32.19708,13.71527-48.91888,4.73627-33.06213,1.77295-64.13037-7.63159-95.91541Z" fill="#fdfcfc"/>
      <path d="M234.43669,198.6518h0c-2.95007-2.03472-6.97194.07696-6.97208,3.66067l-.00136,36.70432c.00061,0,.0011.00012.00171.00012v.77917l.02808.01874c2.16308.08932,3.78432.87937,5.00004,1.65454l49.17312,34.59101c-8.87158-28.07959-23.67914-59.32031-47.22949-77.40857Z" fill="url(#linear-gradient)" opacity=".05"/>
    </g>
    <path d="M104.47435,111.31881c-4.26886,23.99536,4.50488,52.44067,13.10742,74.79956" fill="none" stroke="#fcc25e" stroke-miterlimit="10"/>
    <path d="M137.89556,50.55794c-15.64252,9.34167-30.30737,43.2583-33.4212,60.76086" fill="none" stroke="#fcc25e" stroke-miterlimit="10"/>
  </g>
  <rect x="227.81821" y="79.17558" width="48.90744" height="154.08696" fill="none" stroke="#fff" stroke-miterlimit="10"/>
  <rect x="178.91077" y="79.17558" width="48.90744" height="154.08696" transform="translate(406.72899 312.43812) rotate(-180)" fill="none" stroke="#fff" stroke-miterlimit="10"/>
  <g clip-path="url(#clippath-3)">
    <g>
      <path d="M337.24556,186.11837c8.60254-22.35889,17.37622-50.8042,13.10742-74.79956-3.11377-17.50256-17.77869-51.41919-33.42114-60.76086-13.55664-8.09607-31.16174-3.75745-45.09253,1.21423-17.94427,6.40417-29.26392,15.10254-44.47192,15.10254s-26.52765-8.69836-44.47192-15.10254c-13.93079-4.97168-31.53589-9.3103-45.09247-1.21423-15.64252,9.34167-30.30737,43.2583-33.4212,60.76086-4.26886,23.99536,4.50488,52.44067,13.10742,74.79956,7.12354,18.51465,16.03125,31.66467,16.9035,52.297.61548,14.55774-1.74701,27.75696-2.26776,41.9762-1.224,33.42188,4.32172,71.19836,17.15393,102.05994,5.07745,12.2113,12.383,27.40308,21.28296,37.18005,2.09253,2.29883,4.5741,4.83875,7.17493,6.08813,2.91772,1.37231,5.65259,2.10144,7.20459-1.60205,2.2356-5.33447-.67065-16.37366-1.39551-22.31543-2.64398-21.67346-1.13116-41.20081,2.2948-62.65979,5.07263-31.77313,16.85486-61.2345,30.4624-90.09351,2.78748-5.70032,6.7113-9.25732,11.06262-9.25732,4.40137,0,8.36584,3.63824,11.15881,9.45398,13.5683,28.79614,25.30847,58.19586,30.36957,89.89685,3.42603,21.45898,4.93884,40.98633,2.2948,62.65979-.72479,5.94177-3.6311,16.98096-1.39545,22.31543,1.55194,3.70349,4.2868,2.97437,7.20453,1.60205,2.60089-1.24939,5.08246-3.78931,7.17499-6.08813,8.90002-9.77698,16.20544-24.96875,21.28296-37.18005,12.83215-30.86157,18.37793-68.63806,17.15393-102.05994-.52075-14.21924-2.8833-27.41846-2.26782-41.9762.87231-20.63232,9.78003-33.78235,16.90356-52.297Z" fill="#fdfcfc"/>
      <path d="M337.24556,186.2043c8.60254-22.35889,17.37622-50.8042,13.10742-74.79956-2.85132-16.02759-15.39014-45.80603-29.49463-57.88696-2.04425,10.49646-9.60944,15.09198-24.65295,25.0578-15.9483,10.56525-25.65216,26.83362-25.65216,59.07214,0,26.79742-7.20654,41.83002-43.34888,41.83002-28.85767,0-45.21924,16.65814-52.57318,45.15405-7.74585,32.22925-19.10455,98.44214-10.60962,152.25488,2.39551,16.7218,6.96985,33.47144,13.71521,48.91895,2.91772,1.37231,5.65259,2.10132,7.20459-1.60205,2.2356-5.33447-.67065-16.37378-1.39551-22.31543-2.64398-21.67358-1.13116-41.20093,2.2948-62.65991,5.13635-32.17212,17.15137-61.97443,30.97559-91.18073,2.7464-5.11157,6.45892-8.25592,10.54944-8.25592,4.10358,0,7.82678,3.16412,10.57581,8.30469,13.81445,29.19073,25.81909,58.97772,30.95258,91.13196,3.42603,21.45898,4.93884,40.98633,2.2948,62.65991-.72479,5.94165-3.6311,16.98096-1.39545,22.31543,1.55194,3.70337,4.2868,2.97437,7.20453,1.60205,2.60089-1.24951,5.08246-3.78931,7.17499-6.08813,8.90002-9.7771,16.20544-24.96875,21.28296-37.18018,12.83215-30.86157,18.37793-68.63794,17.15393-102.05981-.52075-14.21924-2.8833-27.41846-2.26782-41.97632.87231-20.63232,9.78003-33.78223,16.90356-52.29688Z" fill="#e4e7ef"/>
      <path d="M191.35163,78.36319c-1.76562-.01074-3.53857.01855-5.30737.0166-9.09277-.01025-19.22559.26416-24.98413,8.49268-12.3418,17.63574-10.2041,50.00391-8.35522,70.70703.58276,6.5249,1.95557,13.10742,2.53955,19.521.02905.3208.26562,1.02783-.24731.9624-6.22046-17.95947-13.86475-36.1748-17.38281-54.94482-2.6687-14.23828-5.22681-42.35889,9.38623-50.88867,13.29712-7.76172,28.99829-1.09131,41.68262,4.65283.84326.38184,2.05103.81836,2.66846,1.48096Z" fill="#fcc25e" opacity=".2"/>
      <path d="M283.08492,280.99306c-8.66327-29.28021-23.80176-63.1864-48.74078-82.34125-.02184-.01518-.0437-.03029-.06558-.04533-2.92236-2.00925-6.90637.20628-6.9065,3.75273l-.00136,36.65759c.00061,0,.0011.00012.00171.00012v.79657c4.10248.00177,7.82471,3.16589,10.573,8.30554,13.81427,29.19037,25.8186,58.97699,30.95203,91.13104,3.42596,21.45892,4.93878,40.98627,2.2948,62.65973-.72485,5.94183-3.6311,16.98102-1.39551,22.31555,1.552,3.70343,4.28687,2.97424,7.20453,1.60199,6.74542-15.44751,11.31976-32.19708,13.71527-48.91888,4.73627-33.06213,1.77295-64.13037-7.63159-95.91541Z" fill="#fdfcfc"/>
      <path d="M234.34413,198.6518h0c-2.95007-2.03472-6.97194.07696-6.97208,3.66067l-.00136,36.70432c.00061,0,.0011.00012.00171.00012v.77917l.02808.01874c2.16308.08932,3.78432.87937,5.00004,1.65454l49.17312,34.59101c-8.87158-28.07959-23.67914-59.32031-47.22949-77.40857Z" fill="url(#linear-gradient-2)" opacity=".05"/>
    </g>
  </g>
  <g opacity=".16">
    <g clip-path="url(#clippath-4)">
      <g>
        <path d="M338.33812,186.11837c8.60254-22.35889,17.37622-50.8042,13.10742-74.79956-3.11377-17.50256-17.77869-51.41919-33.42114-60.76086-13.55664-8.09607-31.16174-3.75745-45.09253,1.21423-17.94427,6.40417-29.26392,15.10254-44.47192,15.10254s-26.52765-8.69836-44.47192-15.10254c-13.93079-4.97168-31.53589-9.3103-45.09247-1.21423-15.64252,9.34167-30.30737,43.2583-33.4212,60.76086-4.26886,23.99536,4.50488,52.44067,13.10742,74.79956,7.12354,18.51465,16.03125,31.66467,16.9035,52.297.61548,14.55774-1.74701,27.75696-2.26776,41.9762-1.224,33.42188,4.32172,71.19836,17.15393,102.05994,5.07745,12.2113,12.383,27.40308,21.28296,37.18005,2.09253,2.29883,4.5741,4.83875,7.17493,6.08813,2.91772,1.37231,5.65259,2.10144,7.20459-1.60205,2.2356-5.33447-.67065-16.37366-1.39551-22.31543-2.64398-21.67346-1.13116-41.20081,2.2948-62.65979,5.07263-31.77313,16.85486-61.2345,30.4624-90.09351,2.78748-5.70032,6.7113-9.25732,11.06262-9.25732,4.40137,0,8.36584,3.63824,11.15881,9.45398,13.5683,28.79614,25.30847,58.19586,30.36957,89.89685,3.42603,21.45898,4.93884,40.98633,2.2948,62.65979-.72479,5.94177-3.6311,16.98096-1.39545,22.31543,1.55194,3.70349,4.2868,2.97437,7.20453,1.60205,2.60089-1.24939,5.08246-3.78931,7.17499-6.08813,8.90002-9.77698,16.20544-24.96875,21.28296-37.18005,12.83215-30.86157,18.37793-68.63806,17.15393-102.05994-.52075-14.21924-2.8833-27.41846-2.26782-41.9762.87231-20.63232,9.78003-33.78235,16.90356-52.297Z" fill="#fdfcfc"/>
        <path d="M338.33812,186.2043c8.60254-22.35889,17.37622-50.8042,13.10742-74.79956-2.85132-16.02759-15.39014-45.80603-29.49463-57.88696-2.04425,10.49646-9.60944,15.09198-24.65295,25.0578-15.9483,10.56525-25.65216,26.83362-25.65216,59.07214,0,26.79742-7.20654,41.83002-43.34888,41.83002-28.85767,0-45.21924,16.65814-52.57318,45.15405-7.74585,32.22925-19.10455,98.44214-10.60962,152.25488,2.39551,16.7218,6.96985,33.47144,13.71521,48.91895,2.91772,1.37231,5.65259,2.10132,7.20459-1.60205,2.2356-5.33447-.67065-16.37378-1.39551-22.31543-2.64398-21.67358-1.13116-41.20093,2.2948-62.65991,5.13635-32.17212,17.15137-61.97443,30.97559-91.18073,2.7464-5.11157,6.45892-8.25592,10.54944-8.25592,4.10358,0,7.82678,3.16412,10.57581,8.30469,13.81445,29.19073,25.81909,58.97772,30.95258,91.13196,3.42603,21.45898,4.93884,40.98633,2.2948,62.65991-.72479,5.94165-3.6311,16.98096-1.39545,22.31543,1.55194,3.70337,4.2868,2.97437,7.20453,1.60205,2.60089-1.24951,5.08246-3.78931,7.17499-6.08813,8.90002-9.7771,16.20544-24.96875,21.28296-37.18018,12.83215-30.86157,18.37793-68.63794,17.15393-102.05981-.52075-14.21924-2.8833-27.41846-2.26782-41.97632.87231-20.63232,9.78003-33.78223,16.90356-52.29688Z" fill="#e4e7ef"/>
        <path d="M284.17748,280.99306c-8.66327-29.28021-23.80176-63.1864-48.74078-82.34125-.02184-.01518-.0437-.03029-.06558-.04533-2.92236-2.00925-6.90637.20628-6.9065,3.75273l-.00136,36.65759c.00061,0,.0011.00012.00171.00012v.79657c4.10248.00177,7.82471,3.16589,10.573,8.30554,13.81427,29.19037,25.8186,58.97699,30.95203,91.13104,3.42596,21.45892,4.93878,40.98627,2.2948,62.65973-.72485,5.94183-3.6311,16.98102-1.39551,22.31555,1.552,3.70343,4.28687,2.97424,7.20453,1.60199,6.74542-15.44751,11.31976-32.19708,13.71527-48.91888,4.73627-33.06213,1.77295-64.13037-7.63159-95.91541Z" fill="#fdfcfc"/>
        <path d="M235.43669,198.6518h0c-2.95007-2.03472-6.97194.07696-6.97208,3.66067l-.00136,36.70432c.00061,0,.0011.00012.00171.00012v.77917l.02808.01874c2.16308.08932,3.78432.87937,5.00004,1.65454l49.17312,34.59101c-8.87158-28.07959-23.67914-59.32031-47.22949-77.40857Z" fill="url(#linear-gradient-3)" opacity=".05"/>
      </g>
    </g>
  </g>
  <g opacity=".72">
    <g clip-path="url(#clippath-5)">
      <g>
        <path d="M337.41157,186.11837c8.60254-22.35889,17.37622-50.8042,13.10742-74.79956-3.11377-17.50256-17.77869-51.41919-33.42114-60.76086-13.55664-8.09607-31.16174-3.75745-45.09253,1.21423-17.94427,6.40417-29.26392,15.10254-44.47192,15.10254s-26.52765-8.69836-44.47192-15.10254c-13.93079-4.97168-31.53589-9.3103-45.09247-1.21423-15.64252,9.34167-30.30737,43.2583-33.4212,60.76086-4.26886,23.99536,4.50488,52.44067,13.10742,74.79956,7.12354,18.51465,16.03125,31.66467,16.9035,52.297.61548,14.55774-1.74701,27.75696-2.26776,41.9762-1.224,33.42188,4.32172,71.19836,17.15393,102.05994,5.07745,12.2113,12.383,27.40308,21.28296,37.18005,2.09253,2.29883,4.5741,4.83875,7.17493,6.08813,2.91772,1.37231,5.65259,2.10144,7.20459-1.60205,2.2356-5.33447-.67065-16.37366-1.39551-22.31543-2.64398-21.67346-1.13116-41.20081,2.2948-62.65979,5.07263-31.77313,16.85486-61.2345,30.4624-90.09351,2.78748-5.70032,6.7113-9.25732,11.06262-9.25732,4.40137,0,8.36584,3.63824,11.15881,9.45398,13.5683,28.79614,25.30847,58.19586,30.36957,89.89685,3.42603,21.45898,4.93884,40.98633,2.2948,62.65979-.72479,5.94177-3.6311,16.98096-1.39545,22.31543,1.55194,3.70349,4.2868,2.97437,7.20453,1.60205,2.60089-1.24939,5.08246-3.78931,7.17499-6.08813,8.90002-9.77698,16.20544-24.96875,21.28296-37.18005,12.83215-30.86157,18.37793-68.63806,17.15393-102.05994-.52075-14.21924-2.8833-27.41846-2.26782-41.9762.87231-20.63232,9.78003-33.78235,16.90356-52.297Z" fill="#fdfcfc"/>
        <path d="M337.41157,186.2043c8.60254-22.35889,17.37622-50.8042,13.10742-74.79956-2.85132-16.02759-15.39014-45.80603-29.49463-57.88696-2.04425,10.49646-9.60944,15.09198-24.65295,25.0578-15.9483,10.56525-25.65216,26.83362-25.65216,59.07214,0,26.79742-7.20654,41.83002-43.34888,41.83002-28.85767,0-45.21924,16.65814-52.57318,45.15405-7.74585,32.22925-19.10455,98.44214-10.60962,152.25488,2.39551,16.7218,6.96985,33.47144,13.71521,48.91895,2.91772,1.37231,5.65259,2.10132,7.20459-1.60205,2.2356-5.33447-.67065-16.37378-1.39551-22.31543-2.64398-21.67358-1.13116-41.20093,2.2948-62.65991,5.13635-32.17212,17.15137-61.97443,30.97559-91.18073,2.7464-5.11157,6.45892-8.25592,10.54944-8.25592,4.10358,0,7.82678,3.16412,10.57581,8.30469,13.81445,29.19073,25.81909,58.97772,30.95258,91.13196,3.42603,21.45898,4.93884,40.98633,2.2948,62.65991-.72479,5.94165-3.6311,16.98096-1.39545,22.31543,1.55194,3.70337,4.2868,2.97437,7.20453,1.60205,2.60089-1.24951,5.08246-3.78931,7.17499-6.08813,8.90002-9.7771,16.20544-24.96875,21.28296-37.18018,12.83215-30.86157,18.37793-68.63794,17.15393-102.05981-.52075-14.21924-2.8833-27.41846-2.26782-41.97632.87231-20.63232,9.78003-33.78223,16.90356-52.29688Z" fill="#fcc25e"/>
        <path d="M191.51764,78.36319c-1.76562-.01074-3.53857.01855-5.30737.0166-9.09277-.01025-19.22559.26416-24.98413,8.49268-12.3418,17.63574-10.2041,50.00391-8.35522,70.70703.58276,6.5249,1.95557,13.10742,2.53955,19.521.02905.3208.26562,1.02783-.24731.9624-6.22046-17.95947-13.86475-36.1748-17.38281-54.94482-2.6687-14.23828-5.22681-42.35889,9.38623-50.88867,13.29712-7.76172,28.99829-1.09131,41.68262,4.65283.84326.38184,2.05103.81836,2.66846,1.48096Z" fill="#fcc25e" opacity=".32"/>
        <path d="M283.25093,280.99306c-8.66327-29.28021-23.80176-63.1864-48.74078-82.34125-.02184-.01518-.0437-.03029-.06558-.04533-2.92236-2.00925-6.90637.20628-6.9065,3.75273l-.00136,36.65759c.00061,0,.0011.00012.00171.00012v.79657c4.10248.00177,7.82471,3.16589,10.573,8.30554,13.81427,29.19037,25.8186,58.97699,30.95203,91.13104,3.42596,21.45892,4.93878,40.98627,2.2948,62.65973-.72485,5.94183-3.6311,16.98102-1.39551,22.31555,1.552,3.70343,4.28687,2.97424,7.20453,1.60199,6.74542-15.44751,11.31976-32.19708,13.71527-48.91888,4.73627-33.06213,1.77295-64.13037-7.63159-95.91541Z" fill="#fdfcfc"/>
        <path d="M234.51014,198.6518h0c-2.95007-2.03472-6.97194.07696-6.97208,3.66067l-.00136,36.70432c.00061,0,.0011.00012.00171.00012v.77917l.02808.01874c2.16308.08932,3.78432.87937,5.00004,1.65454l49.17312,34.59101c-8.87158-28.07959-23.67914-59.32031-47.22949-77.40857Z" fill="url(#linear-gradient-4)" opacity=".05"/>
      </g>
    </g>
  </g>
  <g opacity=".5">
    <g clip-path="url(#clippath-6)">
      <path d="M337.41157,186.2043c8.60254-22.35889,17.37622-50.8042,13.10742-74.79956-2.85132-16.02759-15.39014-45.80603-29.49463-57.88696-2.04425,10.49646-9.60944,15.09198-24.65295,25.0578-15.9483,10.56525-25.65216,26.83362-25.65216,59.07214,0,26.79742-7.20654,41.83002-43.34888,41.83002-28.85767,0-45.21924,16.65814-52.57318,45.15405-7.74585,32.22925-19.10455,98.44214-10.60962,152.25488,2.39551,16.7218,6.96985,33.47144,13.71521,48.91895,2.91772,1.37231,5.65259,2.10132,7.20459-1.60205,2.2356-5.33447-.67065-16.37378-1.39551-22.31543-2.64398-21.67358-1.13116-41.20093,2.2948-62.65991,5.13635-32.17212,17.15137-61.97443,30.97559-91.18073,2.7464-5.11157,6.45892-8.25592,10.54944-8.25592,4.10358,0,7.82678,3.16412,10.57581,8.30469,13.81445,29.19073,25.81909,58.97772,30.95258,91.13196,3.42603,21.45898,4.93884,40.98633,2.2948,62.65991-.72479,5.94165-3.6311,16.98096-1.39545,22.31543,1.55194,3.70337,4.2868,2.97437,7.20453,1.60205,2.60089-1.24951,5.08246-3.78931,7.17499-6.08813,8.90002-9.7771,16.20544-24.96875,21.28296-37.18018,12.83215-30.86157,18.37793-68.63794,17.15393-102.05981-.52075-14.21924-2.8833-27.41846-2.26782-41.97632.87231-20.63232,9.78003-33.78223,16.90356-52.29688Z" fill="url(#linear-gradient-5)"/>
    </g>
  </g>
  <g opacity=".12">
    <g clip-path="url(#clippath-7)">
      <path d="M118.48342,186.2043c-8.60254-22.35889-17.37622-50.8042-13.10742-74.79956,2.85132-16.02759,15.39014-45.80603,29.49463-57.88696,2.04425,10.49646,9.60944,15.09198,24.65295,25.0578,15.9483,10.56525,25.65216,26.83362,25.65216,59.07214,0,26.79742,7.20654,41.83002,43.34888,41.83002,28.85767,0,45.21924,16.65814,52.57318,45.15405,7.74585,32.22925,19.10455,98.44214,10.60962,152.25488-2.39551,16.7218-6.96985,33.47144-13.71521,48.91895-2.91772,1.37231-5.65259,2.10132-7.20459-1.60205-2.2356-5.33447.67065-16.37378,1.39551-22.31543,2.64398-21.67358,1.13116-41.20093-2.2948-62.65991-5.13635-32.17212-17.15137-61.97443-30.97559-91.18073-2.7464-5.11157-6.45892-8.25592-10.54944-8.25592-4.10358,0-7.82678,3.16412-10.57581,8.30469-13.81445,29.19073-25.81909,58.97772-30.95258,91.13196-3.42603,21.45898-4.93884,40.98633-2.2948,62.65991.72479,5.94165,3.6311,16.98096,1.39545,22.31543-1.55194,3.70337-4.2868,2.97437-7.20453,1.60205-2.60089-1.24951-5.08246-3.78931-7.17499-6.08813-8.90002-9.7771-16.20544-24.96875-21.28296-37.18018-12.83215-30.86157-18.37793-68.63794-17.15393-102.05981.52075-14.21924,2.8833-27.41846,2.26782-41.97632-.87231-20.63232-9.78003-33.78223-16.90356-52.29688Z" fill="url(#linear-gradient-6)"/>
    </g>
  </g>
  <g opacity=".14">
    <path d="M337.64377,185.62865c8.50751-26.05639,17.76251-54.2678,10.69197-81.6948-.84077-3.85082-2.37233-7.87497-3.32236-11.52267,2.85114,7.47364,5.29224,15.17184,6.22654,23.14008,2.41802,23.9836-5.03255,48.16019-13.59615,70.07739h0Z" fill="#9a9191"/>
  </g>
  <g opacity=".21">
    <path d="M110.78684,92.31688c-2.39352,7.60771-4.71579,15.26635-5.70198,23.18821-2.09844,19.92407,3.01424,39.82465,9.35225,58.58427,1.1195,3.83958,2.40368,7.62864,3.62634,11.44505-1.60156-3.67188-3.12964-7.37769-4.57227-11.12085-8.97715-26.13179-15.45719-56.10123-2.70435-82.09668h0Z" fill="#fdfcfc"/>
  </g>
  <g opacity=".14">
    <path d="M338.28781,185.62865c8.5138-26.05429,17.75941-54.26817,10.68953-81.69407-.83981-3.85081-2.37057-7.87548-3.31992-11.5234,2.85136,7.47362,5.29248,15.17173,6.22678,23.14008,2.41819,23.98349-5.03338,48.16021-13.5964,70.07739h0Z" fill="#9a9191"/>
  </g>
  <g opacity=".1">
    <g clip-path="url(#clippath-8)">
      <g>
        <path d="M118.55687,186.11837c-8.60254-22.35889-17.37622-50.8042-13.10742-74.79956,3.11377-17.50256,17.77869-51.41919,33.42114-60.76086,13.55664-8.09607,31.16174-3.75745,45.09253,1.21423,17.94427,6.40417,29.26392,15.10254,44.47192,15.10254s26.52765-8.69836,44.47192-15.10254c13.93079-4.97168,31.53589-9.3103,45.09247-1.21423,15.64252,9.34167,30.30737,43.2583,33.4212,60.76086,4.26886,23.99536-4.50488,52.44067-13.10742,74.79956-7.12354,18.51465-16.03125,31.66467-16.9035,52.297-.61548,14.55774,1.74701,27.75696,2.26776,41.9762,1.224,33.42188-4.32172,71.19836-17.15393,102.05994-5.07745,12.2113-12.383,27.40308-21.28296,37.18005-2.09253,2.29883-4.5741,4.83875-7.17493,6.08813-2.91772,1.37231-5.65259,2.10144-7.20459-1.60205-2.2356-5.33447.67065-16.37366,1.39551-22.31543,2.64398-21.67346,1.13116-41.20081-2.2948-62.65979-5.07263-31.77313-16.85486-61.2345-30.4624-90.09351-2.78748-5.70032-6.7113-9.25732-11.06262-9.25732-4.40137,0-8.36584,3.63824-11.15881,9.45398-13.5683,28.79614-25.30847,58.19586-30.36957,89.89685-3.42603,21.45898-4.93884,40.98633-2.2948,62.65979.72479,5.94177,3.6311,16.98096,1.39545,22.31543-1.55194,3.70349-4.2868,2.97437-7.20453,1.60205-2.60089-1.24939-5.08246-3.78931-7.17499-6.08813-8.90002-9.77698-16.20544-24.96875-21.28296-37.18005-12.83215-30.86157-18.37793-68.63806-17.15393-102.05994.52075-14.21924,2.8833-27.41846,2.26782-41.9762-.87231-20.63232-9.78003-33.78235-16.90356-52.297Z" fill="#fdfcfc"/>
        <path d="M118.55687,186.2043c-8.60254-22.35889-17.37622-50.8042-13.10742-74.79956,2.85132-16.02759,15.39014-45.80603,29.49463-57.88696,2.04425,10.49646,9.60944,15.09198,24.65295,25.0578,15.9483,10.56525,25.65216,26.83362,25.65216,59.07214,0,26.79742,7.20654,41.83002,43.34888,41.83002,28.85767,0,45.21924,16.65814,52.57318,45.15405,7.74585,32.22925,19.10455,98.44214,10.60962,152.25488-2.39551,16.7218-6.96985,33.47144-13.71521,48.91895-2.91772,1.37231-5.65259,2.10132-7.20459-1.60205-2.2356-5.33447.67065-16.37378,1.39551-22.31543,2.64398-21.67358,1.13116-41.20093-2.2948-62.65991-5.13635-32.17212-17.15137-61.97443-30.97559-91.18073-2.7464-5.11157-6.45892-8.25592-10.54944-8.25592-4.10358,0-7.82678,3.16412-10.57581,8.30469-13.81445,29.19073-25.81909,58.97772-30.95258,91.13196-3.42603,21.45898-4.93884,40.98633-2.2948,62.65991.72479,5.94165,3.6311,16.98096,1.39545,22.31543-1.55194,3.70337-4.2868,2.97437-7.20453,1.60205-2.60089-1.24951-5.08246-3.78931-7.17499-6.08813-8.90002-9.7771-16.20544-24.96875-21.28296-37.18018-12.83215-30.86157-18.37793-68.63794-17.15393-102.05981.52075-14.21924,2.8833-27.41846,2.26782-41.97632-.87231-20.63232-9.78003-33.78223-16.90356-52.29688Z" fill="#e4e7ef"/>
        <path d="M172.71752,280.99306c8.66327-29.28021,23.80176-63.1864,48.74078-82.34125.02184-.01518.0437-.03029.06558-.04533,2.92236-2.00925,6.90637.20628,6.9065,3.75273l.00136,36.65759c-.00061,0-.0011.00012-.00171.00012v.79657c-4.10248.00177-7.82471,3.16589-10.573,8.30554-13.81427,29.19037-25.8186,58.97699-30.95203,91.13104-3.42596,21.45892-4.93878,40.98627-2.2948,62.65973.72485,5.94183,3.6311,16.98102,1.39551,22.31555-1.552,3.70343-4.28687,2.97424-7.20453,1.60199-6.74542-15.44751-11.31976-32.19708-13.71527-48.91888-4.73627-33.06213-1.77295-64.13037,7.63159-95.91541Z" fill="#fdfcfc"/>
        <path d="M221.4583,198.6518h0c2.95007-2.03472,6.97194.07696,6.97208,3.66067l.00136,36.70432c-.00061,0-.0011.00012-.00171.00012v.77917l-.02808.01874c-2.16308.08932-3.78432.87937-5.00004,1.65454l-49.17312,34.59101c8.87158-28.07959,23.67914-59.32031,47.22949-77.40857Z" fill="url(#linear-gradient-7)" opacity=".05"/>
      </g>
    </g>
  </g>
  <g opacity=".21">
    <g clip-path="url(#clippath-9)">
      <path d="M118.48342,186.2043c-8.60254-22.35889-17.37622-50.8042-13.10742-74.79956,2.85132-16.02759,15.39014-45.80603,29.49463-57.88696,2.04425,10.49646,9.60944,15.09198,24.65295,25.0578,15.9483,10.56525,25.65216,26.83362,25.65216,59.07214,0,26.79742,7.20654,41.83002,43.34888,41.83002,28.85767,0,45.21924,16.65814,52.57318,45.15405,7.74585,32.22925,19.10455,98.44214,10.60962,152.25488-2.39551,16.7218-6.96985,33.47144-13.71521,48.91895-2.91772,1.37231-5.65259,2.10132-7.20459-1.60205-2.2356-5.33447.67065-16.37378,1.39551-22.31543,2.64398-21.67358,1.13116-41.20093-2.2948-62.65991-5.13635-32.17212-17.15137-61.97443-30.97559-91.18073-2.7464-5.11157-6.45892-8.25592-10.54944-8.25592-4.10358,0-7.82678,3.16412-10.57581,8.30469-13.81445,29.19073-25.81909,58.97772-30.95258,91.13196-3.42603,21.45898-4.93884,40.98633-2.2948,62.65991.72479,5.94165,3.6311,16.98096,1.39545,22.31543-1.55194,3.70337-4.2868,2.97437-7.20453,1.60205-2.60089-1.24951-5.08246-3.78931-7.17499-6.08813-8.90002-9.7771-16.20544-24.96875-21.28296-37.18018-12.83215-30.86157-18.37793-68.63794-17.15393-102.05981.52075-14.21924,2.8833-27.41846,2.26782-41.97632-.87231-20.63232-9.78003-33.78223-16.90356-52.29688Z" fill="url(#linear-gradient-8)"/>
    </g>
  </g>
  <g opacity=".52">
    <path d="M337.86252,186.1184c9.10339-26.09325,18.93266-54.65298,11.09516-82.28003-1.01362-3.88965-2.23261-7.73096-3.59467-11.52197,1.51782,3.73169,2.89673,7.52417,4.07593,11.38647,7.6727,26.79865-1.51413,57.32156-11.57642,82.41553h0Z" fill="#fdfcfc"/>
  </g>
  <g opacity=".42">
    <path d="M110.60568,92.31615c-2.65792,7.58216-5.01035,15.32346-5.97146,23.31395-2.06132,20.10703,3.13357,40.14974,9.5629,59.0574,1.21691,3.83738,2.55968,7.63475,3.90905,11.43089-1.50488-3.73633-3.00513-7.47803-4.38159-11.26782-6.45415-18.9802-11.65822-39.07884-9.58727-59.27684.88257-8.04675,3.39909-15.80104,6.46837-23.25758h0Z" fill="#fdfcfc"/>
  </g>
  <g opacity=".31">
    <path d="M331.43405,183.46801c-18.68044-7.25744-52.60046-25.11533-45.90323-49.48949,5.89276-18.38287,29.06712-30.17552,45.90309-36.92933-16.48447,7.10193-39.65763,18.66707-45.45116,37.05863-6.53953,24.26895,27.15588,41.70253,45.4513,49.36019h0Z" fill="#fff"/>
  </g>
  <g opacity=".35">
    <path d="M124.2988,183.44481c18.3952-7.78931,51.64438-25.04351,45.28098-49.28532-5.90229-18.42086-28.58874-29.83243-45.28077-37.08721,18.0551,7.18654,50.40258,24.0433,46.20286,47.36639-4.11187,19.23669-29.38428,32.19769-46.20307,39.00614h0Z" fill="#fff"/>
  </g>
  <path d="M330.39575,189.71435c0-2.17188,2.71069-3.93213,6.05444-3.93213.02979,0,.05811.00317.08789.00342-2.04736-.7583-4.05737-1.53809-6.02588-2.34082-29.49854-12.02783-46.41699-27.76855-46.41699-43.18604s16.91846-31.1582,46.41699-43.18628c4.11304-1.67725,8.41113-3.25244,12.86011-4.73413l-.22632.00024.00269-.03198c-3.19751-.1062-5.74194-1.81885-5.74194-3.92188,0-1.56299,1.40723-2.90869,3.44043-3.54272-.01831-.04126-.03467-.08252-.05322-.12378-39.57397,13.11816-64.86475,33.12329-64.86475,55.54053,0,21.01465,22.21899,39.91211,57.59985,53.00146.01343-.03149.02661-.06421.04028-.0957-1.88794-.66455-3.17358-1.95728-3.17358-3.4502Z" fill="#1e1e1e" opacity=".05"/>
  <g opacity=".34">
    <path d="M151.49387,168.23192c-8.59316-21.01736-16.8732-43.22001-15.93653-66.27392,0,0,.0752.00024.0752.00024-.12013,23.01318,8.37507,45.02412,15.86133,66.27368h0Z" fill="#fff"/>
  </g>
  <g opacity=".12">
    <path d="M150.45041,168.23192c-8.59315-21.01737-16.87325-43.22001-15.93653-66.27392,0,0,.0752.00024.0752.00024-.12047,23.01321,8.37524,45.02409,15.86133,66.27368h0Z" fill="#fff"/>
  </g>
</svg>