<?xml version="1.0" encoding="UTF-8"?>
<svg id="Layer_1" data-name="Layer 1" xmlns="http://www.w3.org/2000/svg" width="454.19581" height="455" xmlns:xlink="http://www.w3.org/1999/xlink" viewBox="0 0 454.19581 455">
  <defs>
    <clipPath id="clippath">
      <rect x="-13.04348" y="510.26087" width="455" height="455" rx="100.60165" ry="100.60165" fill="none"/>
    </clipPath>
    <clipPath id="clippath-1">
      <rect width="455" height="455" rx="100.60165" ry="100.60165" fill="none"/>
    </clipPath>
    <linearGradient id="linear-gradient" x1="230.76118" y1="246.77956" x2="264.72405" y2="232.36317" gradientUnits="userSpaceOnUse">
      <stop offset="0" stop-color="#231f20"/>
      <stop offset=".34916" stop-color="#231f20"/>
      <stop offset=".77366" stop-color="#5c5b5e"/>
      <stop offset="1" stop-color="#7d7e81"/>
    </linearGradient>
    <linearGradient id="linear-gradient-2" x1="175.87901" y1="145.73553" x2="101.58118" y2="139.23531" gradientUnits="userSpaceOnUse">
      <stop offset="0" stop-color="#fbba5a"/>
      <stop offset=".45654" stop-color="#fbbe64"/>
      <stop offset="1" stop-color="#fdc777"/>
    </linearGradient>
    <linearGradient id="linear-gradient-3" x1="954.86131" y1="145.73553" x2="880.56348" y2="139.23531" gradientTransform="translate(1233.71707) rotate(-180) scale(1 -1)" xlink:href="#linear-gradient-2"/>
    <clipPath id="clippath-2">
      <path d="M185.73172,125.75973c-5.3479-23.43359-41.48462-38.51147-73.68677-39.52368-3.77686,8.89014-6.51147,17.60938-7.66309,24.08276-4.26904,23.99536,4.50488,52.44067,13.10742,74.79956,1.33862,3.47925,2.74023,6.76855,4.13965,9.9541,36.72949-13.3042,70.26758-42.29907,64.10278-69.31274Z" fill="none"/>
    </clipPath>
  </defs>
  <g clip-path="url(#clippath)">
    <polyline points="508.47754 1054.99639 508.47754 454.0455 -92.47335 454.0455 -92.47335 1054.99639" fill="#8e8e8e"/>
  </g>
  <g clip-path="url(#clippath-1)">
    <g>
      <polyline points="521.26565 544.75578 521.26565 -56.1951 -79.68524 -56.1951 -79.68524 544.75578" fill="#fbaf5e"/>
      <path d="M449.67418,194.65555l71.3251,234.67446-65.11129,114.05768-255.78683-93.73527-23.07784-25.05717c-4.90535-3.65887-.11737.01953-.16455.00049-.09967-.11377-.21143-.21533-.32019-.32031-2.03259-1.96118-3.99121-3.14844-6.08374-5.44727-8.8999-9.77686-16.20544-24.96875-21.2829-37.18018-12.83228-30.86133-18.37799-68.63794-17.15399-102.05981.52075-14.21924,2.88324-27.41846,2.26782-41.97632-.87231-20.63232-9.78003-33.78223-16.90356-52.29688-8.60254-22.35889-17.37628-50.8042-13.10736-74.79956,3.11377-17.50269,17.77863-51.41919,33.42114-60.76099,13.55658-8.09595,31.16168-3.75732,45.09253,1.21436,25.17664,8.98535,37.10822,22.60889,65.69086,9.99609,20.24451-8.93359,50.5921-25.72363,70.86719-8.38794,1.3866,1.18579,2.13782,2.20386,3.20203,3.20435l127.1256,138.87427Z" fill="#1e1e1e" opacity=".1"/>
      <path d="M297.69139,405.08839l-.64039.32043c.24224-.41226.62243-.28944.64039-.32043Z" fill="#f6c5cf"/>
      <path d="M298.65198,402.84538c.24483-.43744.55765-.81011.64039-.96129l-.64039.96129Z" fill="#f6c5cf"/>
      <path d="M449.67416,195.65555v158.39478c0,53.2666-43.33496,96.60205-96.60156,96.60205h-152.97144l257.17813,98.28632,68.86957-122.34241-76.47469-230.94074Z" fill="#1e1e1e" opacity=".1"/>
      <path d="M449.67416,195.65555v158.39478c0,53.2666-43.33496,96.60205-96.60156,96.60205h-152.97144l257.17813,98.28632,68.86957-122.34241-76.47469-230.94074Z" fill="#1e1e1e" opacity=".1"/>
    </g>
    <rect x="3.1959" y="4.00021" width="447" height="447" rx="96.60156" ry="96.60156" transform="translate(454.19611 .80431) rotate(90)" fill="none" opacity=".46" stroke="#e8e8e8" stroke-miterlimit="10"/>
    <g opacity=".19">
      <path d="M353.59407-.00004C409.15486-.00004,454.19587,45.04098,454.19587,100.60177v253.79663c0,55.56079-45.04102,100.60156-100.60181,100.60156H99.79744c-55.56079,0-100.60156-45.04077-100.60156-100.60156V100.60177C-.80413,45.04098,44.23664-.00004,99.79744-.00004h253.79663M353.59407-1.00004H99.79744C43.77424-1.00004-1.80413,44.57833-1.80413,100.60177v253.79663c0,56.02319,45.57837,101.60156,101.60156,101.60156h253.79663c56.02344,0,101.60181-45.57837,101.60181-101.60156V100.60177c0-56.02344-45.57837-101.60181-101.60181-101.60181h0Z" fill="#504e4d"/>
    </g>
  </g>
  <rect x="227.81821" y="78.17558" width="48.90744" height="154.08696" fill="none" stroke="#fff" stroke-miterlimit="10"/>
  <rect x="178.91077" y="78.17558" width="48.90744" height="154.08696" transform="translate(406.72899 310.43812) rotate(-180)" fill="none" stroke="#fff" stroke-miterlimit="10"/>
  <g>
    <path d="M337.24556,185.11837c8.60254-22.35889,17.37622-50.8042,13.10742-74.79956-3.11377-17.50256-17.77869-51.41919-33.42114-60.76086-13.55664-8.09607-31.16174-3.75745-45.09253,1.21423-17.94427,6.40417-29.26392,15.10254-44.47192,15.10254s-26.52765-8.69836-44.47192-15.10254c-13.93079-4.97168-31.53589-9.3103-45.09247-1.21423-15.64252,9.34167-30.30737,43.2583-33.4212,60.76086-4.26886,23.99536,4.50488,52.44067,13.10742,74.79956,7.12354,18.51465,16.03125,31.66467,16.9035,52.297.61548,14.55774-1.74701,27.75696-2.26776,41.9762-1.224,33.42188,4.32172,71.19836,17.15393,102.05994,5.07745,12.2113,12.383,27.40308,21.28296,37.18005,2.09253,2.29883,4.5741,4.83875,7.17493,6.08813,2.91772,1.37231,5.65259,2.10144,7.20459-1.60205,2.2356-5.33447-.67065-16.37366-1.39551-22.31543-2.64398-21.67346-1.13116-41.20081,2.2948-62.65979,5.07263-31.77313,16.85486-61.2345,30.4624-90.09351,2.78748-5.70032,6.7113-9.25732,11.06262-9.25732,4.40137,0,8.36584,3.63824,11.15881,9.45398,13.5683,28.79614,25.30847,58.19586,30.36957,89.89685,3.42603,21.45898,4.93884,40.98633,2.2948,62.65979-.72479,5.94177-3.6311,16.98096-1.39545,22.31543,1.55194,3.70349,4.2868,2.97437,7.20453,1.60205,2.60089-1.24939,5.08246-3.78931,7.17499-6.08813,8.90002-9.77698,16.20544-24.96875,21.28296-37.18005,12.83215-30.86157,18.37793-68.63806,17.15393-102.05994-.52075-14.21924-2.8833-27.41846-2.26782-41.9762.87231-20.63232,9.78003-33.78235,16.90356-52.297Z" fill="#fdfcfc"/>
    <path d="M337.24556,185.2043c8.60254-22.35889,17.37622-50.8042,13.10742-74.79956-2.85132-16.02759-15.39014-45.80603-29.49463-57.88696-2.04425,10.49646-9.60944,15.09198-24.65295,25.0578-15.9483,10.56525-25.65216,26.83362-25.65216,59.07214,0,26.79742-7.20654,41.83002-43.34888,41.83002-28.85767,0-45.21924,16.65814-52.57318,45.15405-7.74585,32.22925-19.10455,98.44214-10.60962,152.25488,2.39551,16.7218,6.96985,33.47144,13.71521,48.91895,2.91772,1.37231,5.65259,2.10132,7.20459-1.60205,2.2356-5.33447-.67065-16.37378-1.39551-22.31543-2.64398-21.67358-1.13116-41.20093,2.2948-62.65991,5.13635-32.17212,17.15137-61.97443,30.97559-91.18073,2.7464-5.11157,6.45892-8.25592,10.54944-8.25592,4.10358,0,7.82678,3.16412,10.57581,8.30469,13.81445,29.19073,25.81909,58.97772,30.95258,91.13196,3.42603,21.45898,4.93884,40.98633,2.2948,62.65991-.72479,5.94165-3.6311,16.98096-1.39545,22.31543,1.55194,3.70337,4.2868,2.97437,7.20453,1.60205,2.60089-1.24951,5.08246-3.78931,7.17499-6.08813,8.90002-9.7771,16.20544-24.96875,21.28296-37.18018,12.83215-30.86157,18.37793-68.63794,17.15393-102.05981-.52075-14.21924-2.8833-27.41846-2.26782-41.97632.87231-20.63232,9.78003-33.78223,16.90356-52.29688Z" fill="#e4e7ef"/>
    <path d="M191.35163,75.36319c-1.76562-.01074-3.53857.01855-5.30737.0166-9.09277-.01025-19.22559.26416-24.98413,8.49268-12.3418,17.63574-10.2041,50.00391-8.35522,70.70703.58276,6.5249,1.95557,13.10742,2.53955,19.521.02905.3208.26562,1.02783-.24731.9624-6.22046-17.95947-13.86475-36.1748-17.38281-54.94482-2.6687-14.23828-5.22681-42.35889,9.38623-50.88867,13.29712-7.76172,28.99829-1.09131,41.68262,4.65283.84326.38184,2.05103.81836,2.66846,1.48096Z" fill="#fcc25e" opacity=".32"/>
    <path d="M283.08492,279.99306c-8.66327-29.28021-23.80176-63.1864-48.74078-82.34125-.02184-.01518-.0437-.03029-.06558-.04533-2.92236-2.00925-6.90637.20628-6.9065,3.75273l-.00136,36.65759c.00061,0,.0011.00012.00171.00012v.79657c4.10248.00177,7.82471,3.16589,10.573,8.30554,13.81427,29.19037,25.8186,58.97699,30.95203,91.13104,3.42596,21.45892,4.93878,40.98627,2.2948,62.65973-.72485,5.94183-3.6311,16.98102-1.39551,22.31555,1.552,3.70343,4.28687,2.97424,7.20453,1.60199,6.74542-15.44751,11.31976-32.19708,13.71527-48.91888,4.73627-33.06213,1.77295-64.13037-7.63159-95.91541Z" fill="#fdfcfc"/>
    <path d="M234.34413,197.6518h0c-2.95007-2.03472-6.97194.07696-6.97208,3.66067l-.00136,36.70432c.00061,0,.0011.00012.00171.00012v.77917l.02808.01874c2.16308.08932,3.78432.87937,5.00004,1.65454l49.17312,34.59101c-8.87158-28.07959-23.67914-59.32031-47.22949-77.40857Z" fill="url(#linear-gradient)" opacity=".05"/>
  </g>
  <path d="M276.72565,139.25878c0-36.33838,66.43701-66.34692,152.48389-70.93945V-36.43312H26.42683v104.75244c86.04688,4.59253,152.48389,34.60107,152.48389,70.93945S112.4737,205.6057,26.42683,210.19823v299.0625h402.78271V210.19823c-86.04688-4.59253-152.48389-34.60107-152.48389-70.93945Z" fill="none"/>
  <g opacity=".14">
    <path d="M337.64363,184.62863c8.50771-26.05625,17.76272-54.26804,10.69197-81.6948-.84082-3.85094-2.37144-7.87442-3.32236-11.52267,2.85112,7.47332,5.29272,15.17193,6.22654,23.14008,2.41806,23.98336-5.03248,48.16077-13.59615,70.07739h0Z" fill="#9a9191"/>
  </g>
  <g opacity=".21">
    <path d="M110.78694,91.31686c-2.39411,7.60769-4.71569,15.26629-5.70222,23.18821-2.09809,19.92413,3.01458,39.82459,9.35225,58.58427,1.11975,3.83958,2.40368,7.62864,3.62634,11.44505-1.60156-3.67188-3.12939-7.37769-4.57202-11.12061-8.97737-26.13168-15.45725-56.10146-2.70435-82.09692h0Z" fill="#fdfcfc"/>
  </g>
  <g opacity=".14">
    <path d="M338.28791,184.62863c8.51354-26.05426,17.75942-54.26843,10.68929-81.69407-.84011-3.85093-2.36968-7.87493-3.31992-11.5234,2.8513,7.47337,5.29294,15.17175,6.22678,23.14008,2.41853,23.98365-5.03316,48.16013-13.59615,70.07739h0Z" fill="#9a9191"/>
  </g>
  <g opacity=".31">
    <path d="M331.43415,182.46798c-18.68029-7.25716-52.6009-25.11566-45.90323-49.48924,5.89189-18.38301,29.06747-30.17575,45.90309-36.92958-16.4844,7.10174-39.65802,18.66733-45.45116,37.05863-6.54017,24.2684,27.15611,41.70297,45.4513,49.36019h0Z" fill="#fff"/>
  </g>
  <g opacity=".35">
    <path d="M124.2989,182.44479c18.3954-7.78981,51.64379-25.0427,45.28098-49.28531-5.9028-18.42097-28.58872-29.83212-45.28077-37.08722,18.05457,7.18648,50.40293,24.04351,46.20261,47.36639-4.11071,19.23575-29.38483,32.19815-46.20283,39.00614h0Z" fill="#fff"/>
  </g>
  <g opacity=".34">
    <path d="M151.49397,167.2319c-8.5933-21.01726-16.87333-43.21977-15.93653-66.27368,0,0,.07496,0,.07496,0-.11964,23.01324,8.37444,45.02367,15.86157,66.27368h0Z" fill="#fff"/>
  </g>
  <g opacity=".12">
    <path d="M150.45051,167.2319c-8.59337-21.01716-16.87336-43.21982-15.93653-66.27368,0,0,.07496,0,.07496,0-.11964,23.01324,8.37444,45.02367,15.86157,66.27368h0Z" fill="#fff"/>
  </g>
  <rect x="3.1959" y="4.00021" width="447" height="447" rx="96.60156" ry="96.60156" transform="translate(454.19611 .80431) rotate(90)" fill="none" opacity=".29" stroke="#e8e8e8" stroke-miterlimit="10" stroke-width="4"/>
  <path d="M175.73172,125.75973c-5.3479-23.43359-31.48462-38.51147-63.68677-39.52368-3.77686,8.89014-6.51147,17.60938-7.66309,24.08276-4.26904,23.99536,4.50488,52.44067,13.10742,74.79956,1.33862,3.47925,2.74023,6.76855,4.13965,9.9541,36.72949-13.3042,60.26758-42.29907,54.10278-69.31274Z" fill="url(#linear-gradient-2)" opacity=".94"/>
  <path d="M279.00304,125.75973c5.3479-23.43359,31.48462-38.51147,63.68677-39.52368,3.77686,8.89014,6.51147,17.60938,7.66309,24.08276,4.26904,23.99536-4.50488,52.44067-13.10742,74.79956-1.33862,3.47925-2.74023,6.76855-4.13965,9.9541-36.72949-13.3042-60.26758-42.29907-54.10278-69.31274Z" fill="url(#linear-gradient-3)" opacity=".94"/>
  <g clip-path="url(#clippath-2)">
    <path d="M191.35163,75.36319c-1.76562-.01074-3.53857.01855-5.30737.0166-9.09277-.01025-19.22559.26416-24.98413,8.49268-12.3418,17.63574-10.2041,50.00391-8.35522,70.70703.58276,6.5249,1.95557,13.10742,2.53955,19.521.02905.3208.26562,1.02783-.24731.9624-6.22046-17.95947-13.86475-36.1748-17.38281-54.94482-2.6687-14.23828-5.22681-42.35889,9.38623-50.88867,13.29712-7.76172,28.99829-1.09131,41.68262,4.65283.84326.38184,2.05103.81836,2.66846,1.48096Z" fill="#fff3e2" opacity=".2"/>
  </g>
</svg>