<?xml version="1.0" encoding="UTF-8"?>
<svg id="Layer_1" data-name="Layer 1" xmlns="http://www.w3.org/2000/svg" width="454.19581" height="455" xmlns:xlink="http://www.w3.org/1999/xlink" viewBox="0 0 454.19581 455">
  <defs>
    <clipPath id="clippath">
      <rect x="0" width="455" height="455" rx="100.60165" ry="100.60165" fill="none"/>
    </clipPath>
  </defs>
  <g clip-path="url(#clippath)">
    <g>
      <polyline points="521.52102 544.73552 521.52102 -56.21537 -79.42987 -56.21537 -79.42987 544.73552" fill="#a898c9"/>
      <path d="M566.44393,352.26594l-248.16577-248.16602-40.7689-7.8558-50.35111-14.43478c-70.31006,0-127.30754,76.42398-127.30754,146.73404,0,34.19922,30.94009,42.39316,52.88296,65.26596l7.64525,4.43478,13.56522,15.65217c46.81775-.6531-53.19733,16.19434-81.22944,79.91731l262.61244,234.69187,211.11689-276.23954Z" fill="#1e1e1e" opacity=".09"/>
      <path d="M298.21313,405.43622l-.64039.32043c.24224-.41226.62243-.28944.64039-.32043Z" fill="#f6c5cf"/>
      <path d="M299.17372,403.19321c.24483-.43744.55765-.81011.64039-.96129l-.64039.96129Z" fill="#f6c5cf"/>
      <path d="M450.1959,215.82544v138.57272c0,53.2666-43.33496,96.60205-96.60156,96.60205h-205.93958l180.22473,161.45692,212.37969-307.02216-90.06328-89.60953Z" fill="#1e1e1e" opacity=".1"/>
    </g>
    <rect x="3.1959" y="4.00021" width="447" height="447" rx="96.60156" ry="96.60156" transform="translate(454.19611 .80431) rotate(90)" fill="none" opacity=".46" stroke="#e8e8e8" stroke-miterlimit="10"/>
    <g opacity=".19">
      <path d="M353.59408-.0001C409.15487-.0001,454.19588,45.04091,454.19588,100.6017v253.79663c0,55.56079-45.04102,100.60168-100.60181,100.60168H99.79745c-55.56079,0-100.60168-45.04089-100.60168-100.60168V100.6017C-.80424,45.04091,44.23665-.0001,99.79745-.0001h253.79663M353.59408-1.0001H99.79745C43.77413-1.0001-1.80424,44.57827-1.80424,100.6017v253.79663c0,56.02332,45.57837,101.60168,101.60168,101.60168h253.79663c56.02344,0,101.60181-45.57837,101.60181-101.60168V100.6017c0-56.02344-45.57837-101.60181-101.60181-101.60181h0Z" fill="#504e4d"/>
    </g>
    <ellipse cx="222.03674" cy="204.18096" rx="80.86957" ry="85.71534" fill="#939393" opacity="0"/>
  </g>
  <rect x="3.1959" y="4.00021" width="447" height="447" rx="96.60156" ry="96.60156" transform="translate(454.19611 .80431) rotate(90)" fill="none" opacity=".29" stroke="#e8e8e8" stroke-miterlimit="10" stroke-width="4"/>
  <path d="M228.71764,66.52081c-75.11243,0-136.00304,60.70322-136.00304,135.5845,0,49.94042,27.08845,93.5674,67.4119,117.09378h-67.4119v77.30591h77.54449v-71.95051c17.71018,8.41818,37.53097,13.13532,58.45855,13.13532,75.11243,0,136.00304-60.70322,136.00304-135.5845s-60.89061-135.5845-136.00304-135.5845ZM228.71764,279.15863c-42.68672,0-77.29119-34.49797-77.29119-77.05332s34.60446-77.05332,77.29119-77.05332,77.29119,34.49791,77.29119,77.05332-34.6044,77.05332-77.29119,77.05332Z" fill="#939393"/>
  <path d="M226.73938,66.52081c-74.01987,0-134.02478,60.00491-134.02478,134.02478,0,49.36593,26.69443,92.49103,66.43135,115.74678h-66.43135v76.41661h76.41655v-71.12282c17.45258,8.32134,36.98505,12.98421,57.60823,12.98421,74.01987,0,134.02478-60.00491,134.02478-134.02478s-60.00491-134.02478-134.02478-134.02478ZM226.73938,276.71252c-42.06582,0-76.16693-34.10112-76.16693-76.16693s34.10112-76.16693,76.16693-76.16693,76.16693,34.10106,76.16693,76.16693-34.10106,76.16693-76.16693,76.16693Z" fill="#fdfcfc"/>
</svg>