<?xml version="1.0" encoding="UTF-8"?>
<svg id="Layer_1" data-name="Layer 1" xmlns="http://www.w3.org/2000/svg" width="455" height="455" xmlns:xlink="http://www.w3.org/1999/xlink" viewBox="0 0 455 455">
  <defs>
    <clipPath id="clippath">
      <rect y="0" width="455" height="455" rx="100.60165" ry="100.60165" fill="none"/>
    </clipPath>
    <clipPath id="clippath-1">
      <rect x="46.47304" y="157.51254" width="339.04348" height="320.3913" fill="none"/>
    </clipPath>
    <linearGradient id="linear-gradient" x1="231.03695" y1="246.77956" x2="264.99983" y2="232.36317" gradientUnits="userSpaceOnUse">
      <stop offset="0" stop-color="#231f20"/>
      <stop offset=".34916" stop-color="#231f20"/>
      <stop offset=".77366" stop-color="#5c5b5e"/>
      <stop offset="1" stop-color="#7d7e81"/>
    </linearGradient>
    <clipPath id="clippath-2">
      <rect x="78.97935" y="-37.83529" width="364.52066" height="183.82609" fill="none"/>
    </clipPath>
    <linearGradient id="linear-gradient-2" x1="231.3413" y1="246.77956" x2="265.30417" y2="232.36317" xlink:href="#linear-gradient"/>
    <clipPath id="clippath-3">
      <rect x="73.73391" y="19.25167" width="311.78261" height="130.73913" fill="none"/>
    </clipPath>
  </defs>
  <g clip-path="url(#clippath)">
    <g>
      <polyline points="521.52102 544.73552 521.52102 -56.21537 -79.42987 -56.21537 -79.42987 544.73552" fill="#55aec6"/>
      <path d="M106.77679,150.05067c-2.91713-13.28309-4.17942-26.82576-1.98021-39.18742,3.11377-17.50269,17.77863-51.41919,33.42114-60.76099,13.55658-8.09595,31.16168-3.75732,45.09253,1.21436,25.17664,8.98535,37.10822,22.60889,65.69086,9.99609,20.24451-8.93359,50.5921-25.72363,70.86719-8.38794,1.3866,1.18579,2.13782,2.20386,4.86057.72393l127.1256,138.87427,69.66655,237.15487-65.11129,114.05768-255.78683-93.73527-23.07784-25.05717c-.05841.00977-.11737.01953-.16455.00049-.09967-.11377-.21143-.21533-.32019-.32031-2.03259-1.96118-3.99121-3.14844-6.08374-5.44727-8.8999-9.77686-16.20544-24.96875-21.2829-37.18018-12.83228-30.86133-18.37799-68.63794-17.15399-102.05981.52075-14.21924,2.88324-27.41846,2.26782-41.97632-.87231-20.63232-9.78003-33.78223-16.90356-52.29688-4.17078-10.84029-8.3818-23.11126-11.12715-35.61214" fill="#333" opacity=".1"/>
      <path d="M298.21313,405.43622l-.64039.32043c.24224-.41226.62243-.28944.64039-.32043Z" fill="#f6c5cf"/>
      <path d="M299.17372,403.19321c.24483-.43744.55765-.81011.64039-.96129l-.64039.96129Z" fill="#f6c5cf"/>
      <path d="M450.1959,196.00338v158.39478c0,53.2666-43.33496,96.60205-96.60156,96.60205h-152.97144l257.17813,98.28632,68.86957-122.34241-76.47469-230.94074Z" fill="#1e1e1e" opacity=".1"/>
      <path d="M450.1959,196.00338v158.39478c0,53.2666-43.33496,96.60205-96.60156,96.60205h-152.97144l257.17813,98.28632,68.86957-122.34241-76.47469-230.94074Z" fill="#1e1e1e" opacity=".1"/>
    </g>
    <rect x="3.1959" y="4.00021" width="447" height="447" rx="96.60205" ry="96.60205" transform="translate(454.19611 .80431) rotate(90)" fill="none" opacity=".28" stroke="#e8e8e8" stroke-miterlimit="10"/>
    <g opacity=".19">
      <path d="M353.59409.00011C409.15488.00011,454.19589,45.04113,454.19589,100.60167v253.79688c0,55.56055-45.04102,100.60156-100.60181,100.60156H99.79746c-55.56079,0-100.60156-45.04102-100.60156-100.60156V100.60167C-.80411,45.04113,44.23667.00011,99.79746.00011h253.79663M353.59409-.99989H99.79746C43.77426-.99989-1.80411,44.57824-1.80411,100.60167v253.79688c0,56.02344,45.57837,101.60156,101.60156,101.60156h253.79663c56.02344,0,101.60181-45.57812,101.60181-101.60156V100.60167c0-56.02344-45.57837-101.60156-101.60181-101.60156h0Z" fill="#504e4d"/>
    </g>
    <polygon points="123.22906 161.51254 74.73896 160.94731 74.73896 151.36021 106.48896 147.45819 123.22906 161.51254" fill="#55aec6"/>
  </g>
  <g opacity=".88">
    <path d="M349.24106,146.92541c1.98741-12.29986,2.83066-25.06932.12554-37.30029-4.15046-15.98182-10.60876-31.6583-19.88287-45.36875-3.50779-4.98758-7.43598-9.83542-12.55657-13.12789-12.58113-7.67148-28.07848-4.3016-41.37212.06002-16.02463,4.81317-30.54087,16.02301-47.85904,16.18641-17.31978-.16377-31.83251-11.37245-47.85933-16.18601-14.9206-5.03825-33.75238-8.45815-46.06734,3.656-13.58737,13.57049-22.93207,36.34916-27.76202,54.77662-2.70153,12.23367-1.86039,25.00385.14314,37.30388-2.91119-12.25583-4.4276-25.16116-2.38475-37.73779,2.12904-12.60972,7.15527-24.46976,13.05783-35.73635,4.07981-7.50192,8.66946-14.78732,14.8816-20.7837,12.99582-12.94953,33.43486-9.73575,49.08525-4.32347,12.09713,3.78511,22.95413,10.43817,34.92765,14.18015,7.83049,2.42896,16.1253,2.42865,23.95564-.00033,3.92114-1.15368,7.74536-2.74743,11.55396-4.45446,15.27921-6.96785,31.22729-14.3265,48.48924-14.49279,8.68156-.07837,17.74183,2.84699,23.96994,9.09107,9.18991,9.04278,15.22517,20.59797,20.39594,32.24245,9.54101,20.97021,10.66329,39.76131,5.15831,62.01523h0Z" fill="#e8e8e8"/>
  </g>
  <g>
    <g clip-path="url(#clippath-1)">
      <g>
        <path d="M337.52133,185.11837c8.60254-22.35889,17.37622-50.8042,13.10742-74.79956-3.11377-17.50256-17.77869-51.41919-33.42114-60.76086-13.55664-8.09607-31.16174-3.75745-45.09253,1.21423-17.94427,6.40417-29.26392,15.10254-44.47192,15.10254s-26.52765-8.69836-44.47192-15.10254c-13.93079-4.97168-31.53589-9.3103-45.09247-1.21423-15.64252,9.34167-30.30737,43.2583-33.4212,60.76086-4.26886,23.99536,4.50488,52.44067,13.10742,74.79956,7.12354,18.51465,16.03125,31.66467,16.9035,52.297.61548,14.55774-1.74701,27.75696-2.26776,41.9762-1.224,33.42188,4.32172,71.19836,17.15393,102.05994,5.07745,12.2113,12.383,27.40308,21.28296,37.18005,2.09253,2.29883,4.5741,4.83875,7.17493,6.08813,2.91772,1.37231,5.65259,2.10144,7.20459-1.60205,2.2356-5.33447-.67065-16.37366-1.39551-22.31543-2.64398-21.67346-1.13116-41.20081,2.2948-62.65979,5.07263-31.77313,16.85486-61.2345,30.4624-90.09351,2.78748-5.70032,6.7113-9.25732,11.06262-9.25732,4.40137,0,8.36584,3.63824,11.15881,9.45398,13.5683,28.79614,25.30847,58.19586,30.36957,89.89685,3.42603,21.45898,4.93884,40.98633,2.2948,62.65979-.72479,5.94177-3.6311,16.98096-1.39545,22.31543,1.55194,3.70349,4.2868,2.97437,7.20453,1.60205,2.60089-1.24939,5.08246-3.78931,7.17499-6.08813,8.90002-9.77698,16.20544-24.96875,21.28296-37.18005,12.83215-30.86157,18.37793-68.63806,17.15393-102.05994-.52075-14.21924-2.8833-27.41846-2.26782-41.9762.87231-20.63232,9.78003-33.78235,16.90356-52.297Z" fill="#fdfcfc"/>
        <path d="M337.52133,185.2043c8.60254-22.35889,17.37622-50.8042,13.10742-74.79956-2.85132-16.02759-15.39014-45.80603-29.49463-57.88696-2.04425,10.49646-9.60944,15.09198-24.65295,25.0578-15.9483,10.56525-25.65216,26.83362-25.65216,59.07214,0,26.79742-7.20654,41.83002-43.34888,41.83002-28.85767,0-45.21924,16.65814-52.57318,45.15405-7.74585,32.22925-19.10455,98.44214-10.60962,152.25488,2.39551,16.7218,6.96985,33.47144,13.71521,48.91895,2.91772,1.37231,5.65259,2.10132,7.20459-1.60205,2.2356-5.33447-.67065-16.37378-1.39551-22.31543-2.64398-21.67358-1.13116-41.20093,2.2948-62.65991,5.13635-32.17212,17.15137-61.97443,30.97559-91.18073,2.7464-5.11157,6.45892-8.25592,10.54944-8.25592,4.10358,0,7.82678,3.16412,10.57581,8.30469,13.81445,29.19073,25.81909,58.97772,30.95258,91.13196,3.42603,21.45898,4.93884,40.98633,2.2948,62.65991-.72479,5.94165-3.6311,16.98096-1.39545,22.31543,1.55194,3.70337,4.2868,2.97437,7.20453,1.60205,2.60089-1.24951,5.08246-3.78931,7.17499-6.08813,8.90002-9.7771,16.20544-24.96875,21.28296-37.18018,12.83215-30.86157,18.37793-68.63794,17.15393-102.05981-.52075-14.21924-2.8833-27.41846-2.26782-41.97632.87231-20.63232,9.78003-33.78223,16.90356-52.29688Z" fill="#e4e7ef"/>
        <path d="M191.6274,77.36319c-1.76562-.01074-3.53857.01855-5.30737.0166-9.09277-.01025-19.22559.26416-24.98413,8.49268-12.3418,17.63574-10.2041,50.00391-8.35522,70.70703.58276,6.5249,1.95557,13.10742,2.53955,19.521.02905.3208.26562,1.02783-.24731.9624-6.22046-17.95947-13.86475-36.1748-17.38281-54.94482-2.6687-14.23828-5.22681-42.35889,9.38623-50.88867,13.29712-7.76172,28.99829-1.09131,41.68262,4.65283.84326.38184,2.05103.81836,2.66846,1.48096Z" fill="#e4e7ef"/>
        <path d="M283.36069,279.99306c-8.66327-29.28021-23.80176-63.1864-48.74078-82.34125-.02184-.01518-.0437-.03029-.06558-.04533-2.92236-2.00925-6.90637.20628-6.9065,3.75273l-.00136,36.65759c.00061,0,.0011.00012.00171.00012v.79657c4.10248.00177,7.82471,3.16589,10.573,8.30554,13.81427,29.19037,25.8186,58.97699,30.95203,91.13104,3.42596,21.45892,4.93878,40.98627,2.2948,62.65973-.72485,5.94183-3.6311,16.98102-1.39551,22.31555,1.552,3.70343,4.28687,2.97424,7.20453,1.60199,6.74542-15.44751,11.31976-32.19708,13.71527-48.91888,4.73627-33.06213,1.77295-64.13037-7.63159-95.91541Z" fill="#fdfcfc"/>
        <path d="M234.61991,197.6518h0c-2.95007-2.03472-6.97194.07696-6.97208,3.66067l-.00136,36.70432c.00061,0,.0011.00012.00171.00012v.77917l.02808.01874c2.16308.08932,3.78432.87937,5.00004,1.65454l49.17312,34.59101c-8.87158-28.07959-23.67914-59.32031-47.22949-77.40857Z" fill="url(#linear-gradient)" opacity=".05"/>
      </g>
    </g>
    <path d="M145.60109,145.99081c-3.14175-9.17643-5.94578-18.45476-7.71099-27.87274-2.6687-14.23828-5.22681-42.35889,9.38623-50.88867,13.29712-7.76172,28.99829-1.09131,41.68262,4.65283.84326.38184,2.05103.81836,2.66846,1.48096-1.76562-.01074-3.53857.01855-5.30737.0166-9.09277-.01025-19.22559.26416-24.98413,8.49268-11.09783,15.85818-10.48793,43.6286-8.90797,64.11834" fill="#fff" opacity=".52"/>
    <path d="M348.84564,145.99082c2.99309-9.43806,4.31337-23.15999,2.08746-35.67201-3.11377-17.50256-17.77869-51.41919-33.42114-60.76086-13.55664-8.09607-31.16174-3.75745-45.09253,1.21423-17.94427,6.40417-29.26392,15.10254-44.47192,15.10254s-26.52765-8.69836-44.47192-15.10254c-13.93079-4.97168-31.53589-9.3103-45.09247-1.21423-15.64252,9.34167-30.30737,43.2583-33.4212,60.76086-2.22593,12.51202-.90566,26.23395,2.08744,35.672h241.79629Z" fill="none" opacity=".49" stroke="#fff" stroke-linecap="round" stroke-linejoin="round" stroke-width="2"/>
    <g clip-path="url(#clippath-2)">
      <g>
        <path d="M337.82568,185.11837c8.60254-22.35889,17.37622-50.8042,13.10742-74.79956-3.11377-17.50256-17.77869-51.41919-33.42114-60.76086-13.55664-8.09607-31.16174-3.75745-45.09253,1.21423-17.94427,6.40417-29.26392,15.10254-44.47192,15.10254s-26.52765-8.69836-44.47192-15.10254c-13.93079-4.97168-31.53589-9.3103-45.09247-1.21423-15.64252,9.34167-30.30737,43.2583-33.4212,60.76086-4.26886,23.99536,4.50488,52.44067,13.10742,74.79956,7.12354,18.51465,16.03125,31.66467,16.9035,52.297.61548,14.55774-1.74701,27.75696-2.26776,41.9762-1.224,33.42188,4.32172,71.19836,17.15393,102.05994,5.07745,12.2113,12.383,27.40308,21.28296,37.18005,2.09253,2.29883,4.5741,4.83875,7.17493,6.08813,2.91772,1.37231,5.65259,2.10144,7.20459-1.60205,2.2356-5.33447-.67065-16.37366-1.39551-22.31543-2.64398-21.67346-1.13116-41.20081,2.2948-62.65979,5.07263-31.77313,16.85486-61.2345,30.4624-90.09351,2.78748-5.70032,6.7113-9.25732,11.06262-9.25732,4.40137,0,8.36584,3.63824,11.15881,9.45398,13.5683,28.79614,25.30847,58.19586,30.36957,89.89685,3.42603,21.45898,4.93884,40.98633,2.2948,62.65979-.72479,5.94177-3.6311,16.98096-1.39545,22.31543,1.55194,3.70349,4.2868,2.97437,7.20453,1.60205,2.60089-1.24939,5.08246-3.78931,7.17499-6.08813,8.90002-9.77698,16.20544-24.96875,21.28296-37.18005,12.83215-30.86157,18.37793-68.63806,17.15393-102.05994-.52075-14.21924-2.8833-27.41846-2.26782-41.9762.87231-20.63232,9.78003-33.78235,16.90356-52.297Z" fill="#fdfcfc"/>
        <path d="M337.82568,185.2043c8.60254-22.35889,17.37622-50.8042,13.10742-74.79956-2.85132-16.02759-15.39014-45.80603-29.49463-57.88696-2.04425,10.49646-9.60944,15.09198-24.65295,25.0578-15.9483,10.56525-25.65216,26.83362-25.65216,59.07214,0,26.79742-7.20654,41.83002-43.34888,41.83002-28.85767,0-45.21924,16.65814-52.57318,45.15405-7.74585,32.22925-19.10455,98.44214-10.60962,152.25488,2.39551,16.7218,6.96985,33.47144,13.71521,48.91895,2.91772,1.37231,5.65259,2.10132,7.20459-1.60205,2.2356-5.33447-.67065-16.37378-1.39551-22.31543-2.64398-21.67358-1.13116-41.20093,2.2948-62.65991,5.13635-32.17212,17.15137-61.97443,30.97559-91.18073,2.7464-5.11157,6.45892-8.25592,10.54944-8.25592,4.10358,0,7.82678,3.16412,10.57581,8.30469,13.81445,29.19073,25.81909,58.97772,30.95258,91.13196,3.42603,21.45898,4.93884,40.98633,2.2948,62.65991-.72479,5.94165-3.6311,16.98096-1.39545,22.31543,1.55194,3.70337,4.2868,2.97437,7.20453,1.60205,2.60089-1.24951,5.08246-3.78931,7.17499-6.08813,8.90002-9.7771,16.20544-24.96875,21.28296-37.18018,12.83215-30.86157,18.37793-68.63794,17.15393-102.05981-.52075-14.21924-2.8833-27.41846-2.26782-41.97632.87231-20.63232,9.78003-33.78223,16.90356-52.29688Z" fill="#e4e7ef"/>
        <path d="M191.93175,77.36319c-1.76562-.01074-3.53857.01855-5.30737.0166-9.09277-.01025-19.22559.26416-24.98413,8.49268-12.3418,17.63574-10.2041,50.00391-8.35522,70.70703.58276,6.5249,1.95557,13.10742,2.53955,19.521.02905.3208.26562,1.02783-.24731.9624-6.22046-17.95947-13.86475-36.1748-17.38281-54.94482-2.6687-14.23828-5.22681-42.35889,9.38623-50.88867,13.29712-7.76172,28.99829-1.09131,41.68262,4.65283.84326.38184,2.05103.81836,2.66846,1.48096Z" fill="#84bccb"/>
        <path d="M283.66504,279.99306c-8.66327-29.28021-23.80176-63.1864-48.74078-82.34125-.02184-.01518-.0437-.03029-.06558-.04533-2.92236-2.00925-6.90637.20628-6.9065,3.75273l-.00136,36.65759c.00061,0,.0011.00012.00171.00012v.79657c4.10248.00177,7.82471,3.16589,10.573,8.30554,13.81427,29.19037,25.8186,58.97699,30.95203,91.13104,3.42596,21.45892,4.93878,40.98627,2.2948,62.65973-.72485,5.94183-3.6311,16.98102-1.39551,22.31555,1.552,3.70343,4.28687,2.97424,7.20453,1.60199,6.74542-15.44751,11.31976-32.19708,13.71527-48.91888,4.73627-33.06213,1.77295-64.13037-7.63159-95.91541Z" fill="#fdfcfc"/>
        <path d="M234.92425,197.6518h0c-2.95007-2.03472-6.97194.07696-6.97208,3.66067l-.00136,36.70432c.00061,0,.0011.00012.00171.00012v.77917l.02808.01874c2.16308.08932,3.78432.87937,5.00004,1.65454l49.17312,34.59101c-8.87158-28.07959-23.67914-59.32031-47.22949-77.40857Z" fill="url(#linear-gradient-2)" opacity=".05"/>
        <g opacity=".71">
          <g clip-path="url(#clippath-3)">
            <path d="M337.82568,185.11837c8.60254-22.35889,17.37622-50.8042,13.10742-74.79956-3.11377-17.50256-17.77869-51.41919-33.42114-60.76086-13.55664-8.09607-31.16174-3.75745-45.09253,1.21423-17.94427,6.40417-29.26392,15.10254-44.47192,15.10254s-26.52765-8.69836-44.47192-15.10254c-13.93079-4.97168-31.53589-9.3103-45.09247-1.21423-15.64252,9.34167-30.30737,43.2583-33.4212,60.76086-4.26886,23.99536,4.50488,52.44067,13.10742,74.79956,7.12354,18.51465,16.03125,31.66467,16.9035,52.297.61548,14.55774-1.74701,27.75696-2.26776,41.9762-1.224,33.42188,4.32172,71.19836,17.15393,102.05994,5.07745,12.2113,12.383,27.40308,21.28296,37.18005,2.09253,2.29883,4.5741,4.83875,7.17493,6.08813,2.91772,1.37231,5.65259,2.10144,7.20459-1.60205,2.2356-5.33447-.67065-16.37366-1.39551-22.31543-2.64398-21.67346-1.13116-41.20081,2.2948-62.65979,5.07263-31.77313,16.85486-61.2345,30.4624-90.09351,2.78748-5.70032,6.7113-9.25732,11.06262-9.25732,4.40137,0,8.36584,3.63824,11.15881,9.45398,13.5683,28.79614,25.30847,58.19586,30.36957,89.89685,3.42603,21.45898,4.93884,40.98633,2.2948,62.65979-.72479,5.94177-3.6311,16.98096-1.39545,22.31543,1.55194,3.70349,4.2868,2.97437,7.20453,1.60205,2.60089-1.24939,5.08246-3.78931,7.17499-6.08813,8.90002-9.77698,16.20544-24.96875,21.28296-37.18005,12.83215-30.86157,18.37793-68.63806,17.15393-102.05994-.52075-14.21924-2.8833-27.41846-2.26782-41.9762.87231-20.63232,9.78003-33.78235,16.90356-52.297Z" fill="#77cedd"/>
          </g>
        </g>
      </g>
    </g>
  </g>
  <path d="M189.40842,76.88197c-12.68433-5.74414-28.3855-12.41406-41.68262-4.65234-14.61304,8.5293-12.05493,36.65039-9.38623,50.88867,1.8252,9.73779,4.76416,19.32617,8.03564,24.80713h6.57617c-1.63184-16.57275-2.43433-44.95117,8.83398-61.05322,5.75854-8.22852,15.89136-8.50293,24.98413-8.49219,1.7688.00195,3.54175-.02734,5.30737-.0166-.61743-.66309-1.8252-1.09961-2.66846-1.48145Z" fill="#fdfcfc" opacity=".82"/>
  <rect x="3.1959" y="4.00021" width="447" height="447" rx="96.60156" ry="96.60156" transform="translate(454.19611 .80431) rotate(90)" fill="none" opacity=".16" stroke="#e8e8e8" stroke-miterlimit="10" stroke-width="4"/>
</svg>